%TF.GenerationSoftware,KiCad,Pcbnew,10.99.0-1021-gc24091a86e*%
%TF.CreationDate,2026-07-26T01:42:24+00:00*%
%TF.ProjectId,Arduino Mega,41726475-696e-46f2-904d-6567612e6b69,rev?*%
%TF.SameCoordinates,Original*%
%TF.FileFunction,Paste,Top*%
%TF.FilePolarity,Positive*%
%FSLAX46Y46*%
G04 Gerber Fmt 4.6, Leading zero omitted, Abs format (unit mm)*
G04 Created by KiCad (PCBNEW 10.99.0-1021-gc24091a86e) date 2026-07-26 01:42:24*
%MOMM*%
%LPD*%
G01*
G04 APERTURE LIST*
G04 Aperture macros list*
%AMRoundRect*
0 Rectangle with rounded corners*
0 $1 Rounding radius*
0 $2 $3 $4 $5 $6 $7 $8 $9 X,Y pos of 4 corners*
0 Add a 4 corners polygon primitive as box body*
4,1,4,$2,$3,$4,$5,$6,$7,$8,$9,$2,$3,0*
0 Add four circle primitives for the rounded corners*
1,1,$1+$1,$2,$3*
1,1,$1+$1,$4,$5*
1,1,$1+$1,$6,$7*
1,1,$1+$1,$8,$9*
0 Add four rect primitives between the rounded corners*
20,1,$1+$1,$2,$3,$4,$5,0*
20,1,$1+$1,$4,$5,$6,$7,0*
20,1,$1+$1,$6,$7,$8,$9,0*
20,1,$1+$1,$8,$9,$2,$3,0*%
G04 Aperture macros list end*
%ADD10RoundRect,0.075000X-0.662500X-0.075000X0.662500X-0.075000X0.662500X0.075000X-0.662500X0.075000X0*%
%ADD11RoundRect,0.075000X-0.075000X-0.662500X0.075000X-0.662500X0.075000X0.662500X-0.075000X0.662500X0*%
%ADD12RoundRect,0.250000X-0.412500X-1.100000X0.412500X-1.100000X0.412500X1.100000X-0.412500X1.100000X0*%
%ADD13RoundRect,0.250000X1.100000X-0.412500X1.100000X0.412500X-1.100000X0.412500X-1.100000X-0.412500X0*%
%ADD14RoundRect,0.250000X-1.100000X0.412500X-1.100000X-0.412500X1.100000X-0.412500X1.100000X0.412500X0*%
%ADD15RoundRect,0.150000X-0.587500X-0.150000X0.587500X-0.150000X0.587500X0.150000X-0.587500X0.150000X0*%
%ADD16RoundRect,0.250000X0.337500X0.475000X-0.337500X0.475000X-0.337500X-0.475000X0.337500X-0.475000X0*%
%ADD17RoundRect,0.250001X0.462499X0.624999X-0.462499X0.624999X-0.462499X-0.624999X0.462499X-0.624999X0*%
%ADD18R,1.750000X0.600000*%
%ADD19R,3.000000X1.000000*%
%ADD20RoundRect,0.250000X0.412500X1.100000X-0.412500X1.100000X-0.412500X-1.100000X0.412500X-1.100000X0*%
%ADD21RoundRect,0.250000X-1.275000X-1.125000X1.275000X-1.125000X1.275000X1.125000X-1.275000X1.125000X0*%
%ADD22RoundRect,0.250000X-0.850000X-0.350000X0.850000X-0.350000X0.850000X0.350000X-0.850000X0.350000X0*%
%ADD23RoundRect,0.150000X0.512500X0.150000X-0.512500X0.150000X-0.512500X-0.150000X0.512500X-0.150000X0*%
%ADD24RoundRect,0.375000X0.375000X-0.625000X0.375000X0.625000X-0.375000X0.625000X-0.375000X-0.625000X0*%
%ADD25RoundRect,0.500000X1.400000X-0.500000X1.400000X0.500000X-1.400000X0.500000X-1.400000X-0.500000X0*%
%ADD26RoundRect,0.190000X-0.435000X-0.190000X0.435000X-0.190000X0.435000X0.190000X-0.435000X0.190000X0*%
%ADD27RoundRect,0.250000X-0.495000X-0.495000X0.495000X-0.495000X0.495000X0.495000X-0.495000X0.495000X0*%
%ADD28RoundRect,0.062500X-0.337500X-0.062500X0.337500X-0.062500X0.337500X0.062500X-0.337500X0.062500X0*%
%ADD29RoundRect,0.062500X-0.062500X-0.337500X0.062500X-0.337500X0.062500X0.337500X-0.062500X0.337500X0*%
%ADD30RoundRect,0.172500X-0.182500X-0.172500X0.182500X-0.172500X0.182500X0.172500X-0.182500X0.172500X0*%
%ADD31RoundRect,0.062500X-0.365000X-0.062500X0.365000X-0.062500X0.365000X0.062500X-0.365000X0.062500X0*%
%ADD32RoundRect,0.147500X0.172500X-0.147500X0.172500X0.147500X-0.172500X0.147500X-0.172500X-0.147500X0*%
%ADD33RoundRect,0.250001X-0.624999X0.462499X-0.624999X-0.462499X0.624999X-0.462499X0.624999X0.462499X0*%
%ADD34RoundRect,0.250001X0.799999X-2.049999X0.799999X2.049999X-0.799999X2.049999X-0.799999X-2.049999X0*%
%ADD35RoundRect,0.250001X-2.049999X-0.799999X2.049999X-0.799999X2.049999X0.799999X-2.049999X0.799999X0*%
%ADD36RoundRect,0.112500X-0.577500X0.112500X-0.577500X-0.112500X0.577500X-0.112500X0.577500X0.112500X0*%
%ADD37RoundRect,0.250000X-0.400000X0.575000X-0.400000X-0.575000X0.400000X-0.575000X0.400000X0.575000X0*%
%ADD38RoundRect,0.250000X-0.525000X0.462500X-0.525000X-0.462500X0.525000X-0.462500X0.525000X0.462500X0*%
%ADD39RoundRect,0.250000X-0.700000X0.650000X-0.700000X-0.650000X0.700000X-0.650000X0.700000X0.650000X0*%
%ADD40RoundRect,0.250000X-0.700000X0.250000X-0.700000X-0.250000X0.700000X-0.250000X0.700000X0.250000X0*%
G04 APERTURE END LIST*
D10*
%TO.C,U2*%
X172000000Y-94000000D03*
X172000000Y-94500000D03*
X172000000Y-95000000D03*
X172000000Y-95500000D03*
X172000000Y-96000000D03*
X172000000Y-96500000D03*
X172000000Y-97000000D03*
X172000000Y-97500000D03*
X172000000Y-98000000D03*
X172000000Y-98500000D03*
X172000000Y-99000000D03*
X172000000Y-99500000D03*
X172000000Y-100000000D03*
X172000000Y-100500000D03*
X172000000Y-101000000D03*
X172000000Y-101500000D03*
X172000000Y-102000000D03*
X172000000Y-102500000D03*
X172000000Y-103000000D03*
X172000000Y-103500000D03*
X172000000Y-104000000D03*
X172000000Y-104500000D03*
X172000000Y-105000000D03*
X172000000Y-105500000D03*
X172000000Y-106000000D03*
D11*
X173662500Y-107662500D03*
X174162500Y-107662500D03*
X174662500Y-107662500D03*
X175162500Y-107662500D03*
X175662500Y-107662500D03*
X176162500Y-107662500D03*
X176662500Y-107662500D03*
X177162500Y-107662500D03*
X177662500Y-107662500D03*
X178162500Y-107662500D03*
X178662500Y-107662500D03*
X179162500Y-107662500D03*
X179662500Y-107662500D03*
X180162500Y-107662500D03*
X180662500Y-107662500D03*
X181162500Y-107662500D03*
X181662500Y-107662500D03*
X182162500Y-107662500D03*
X182662500Y-107662500D03*
X183162500Y-107662500D03*
X183662500Y-107662500D03*
X184162500Y-107662500D03*
X184662500Y-107662500D03*
X185162500Y-107662500D03*
X185662500Y-107662500D03*
D10*
X187325000Y-106000000D03*
X187325000Y-105500000D03*
X187325000Y-105000000D03*
X187325000Y-104500000D03*
X187325000Y-104000000D03*
X187325000Y-103500000D03*
X187325000Y-103000000D03*
X187325000Y-102500000D03*
X187325000Y-102000000D03*
X187325000Y-101500000D03*
X187325000Y-101000000D03*
X187325000Y-100500000D03*
X187325000Y-100000000D03*
X187325000Y-99500000D03*
X187325000Y-99000000D03*
X187325000Y-98500000D03*
X187325000Y-98000000D03*
X187325000Y-97500000D03*
X187325000Y-97000000D03*
X187325000Y-96500000D03*
X187325000Y-96000000D03*
X187325000Y-95500000D03*
X187325000Y-95000000D03*
X187325000Y-94500000D03*
X187325000Y-94000000D03*
D11*
X185662500Y-92337500D03*
X185162500Y-92337500D03*
X184662500Y-92337500D03*
X184162500Y-92337500D03*
X183662500Y-92337500D03*
X183162500Y-92337500D03*
X182662500Y-92337500D03*
X182162500Y-92337500D03*
X181662500Y-92337500D03*
X181162500Y-92337500D03*
X180662500Y-92337500D03*
X180162500Y-92337500D03*
X179662500Y-92337500D03*
X179162500Y-92337500D03*
X178662500Y-92337500D03*
X178162500Y-92337500D03*
X177662500Y-92337500D03*
X177162500Y-92337500D03*
X176662500Y-92337500D03*
X176162500Y-92337500D03*
X175662500Y-92337500D03*
X175162500Y-92337500D03*
X174662500Y-92337500D03*
X174162500Y-92337500D03*
X173662500Y-92337500D03*
%TD*%
D12*
%TO.C,C16*%
X145962500Y-93550000D03*
X149087500Y-93550000D03*
%TD*%
D13*
%TO.C,C7*%
X80662500Y-97125000D03*
X80662500Y-94000000D03*
%TD*%
D12*
%TO.C,C14*%
X112100000Y-112500000D03*
X115225000Y-112500000D03*
%TD*%
D14*
%TO.C,C10*%
X76662500Y-72937500D03*
X76662500Y-76062500D03*
%TD*%
D15*
%TO.C,Q1*%
X145525000Y-76150000D03*
X145525000Y-78050000D03*
X147400000Y-77100000D03*
%TD*%
D16*
%TO.C,C2*%
X86000000Y-71300000D03*
X83925000Y-71300000D03*
%TD*%
D13*
%TO.C,C15*%
X141662500Y-105062500D03*
X141662500Y-101937500D03*
%TD*%
D17*
%TO.C,D2*%
X179725000Y-69300000D03*
X176750000Y-69300000D03*
%TD*%
D14*
%TO.C,C5*%
X69662500Y-94000000D03*
X69662500Y-97125000D03*
%TD*%
D17*
%TO.C,D3*%
X179675000Y-60800000D03*
X176700000Y-60800000D03*
%TD*%
D18*
%TO.C,J12*%
X105412500Y-83000000D03*
X103662500Y-82000000D03*
X105412500Y-81000000D03*
X103662500Y-80000000D03*
X105412500Y-79000000D03*
X103662500Y-78000000D03*
%TD*%
%TO.C,J5*%
X190250000Y-86500000D03*
X192000000Y-87500000D03*
X190250000Y-88500000D03*
X192000000Y-89500000D03*
X190250000Y-90500000D03*
X192000000Y-91500000D03*
%TD*%
D19*
%TO.C,J2*%
X195960000Y-118240000D03*
X201000000Y-118240000D03*
X195960000Y-115700000D03*
X201000000Y-115700000D03*
X195960000Y-113160000D03*
X201000000Y-113160000D03*
X195960000Y-110620000D03*
X201000000Y-110620000D03*
X195960000Y-108080000D03*
X201000000Y-108080000D03*
X195960000Y-105540000D03*
X201000000Y-105540000D03*
X195960000Y-103000000D03*
X201000000Y-103000000D03*
X195960000Y-100460000D03*
X201000000Y-100460000D03*
X195960000Y-97920000D03*
X201000000Y-97920000D03*
X195960000Y-95380000D03*
X201000000Y-95380000D03*
X195960000Y-92840000D03*
X201000000Y-92840000D03*
X195960000Y-90300000D03*
X201000000Y-90300000D03*
X195960000Y-87760000D03*
X201000000Y-87760000D03*
X195960000Y-85220000D03*
X201000000Y-85220000D03*
X195960000Y-82680000D03*
X201000000Y-82680000D03*
X195960000Y-80140000D03*
X201000000Y-80140000D03*
X195960000Y-77600000D03*
X201000000Y-77600000D03*
X195960000Y-75060000D03*
X201000000Y-75060000D03*
X195960000Y-72520000D03*
X201000000Y-72520000D03*
X195960000Y-69980000D03*
X201000000Y-69980000D03*
X195960000Y-67440000D03*
X201000000Y-67440000D03*
X195960000Y-64900000D03*
X201000000Y-64900000D03*
X195960000Y-62360000D03*
X201000000Y-62360000D03*
X195960000Y-59820000D03*
X201000000Y-59820000D03*
X195960000Y-57280000D03*
X201000000Y-57280000D03*
%TD*%
D20*
%TO.C,C17*%
X77225000Y-80500000D03*
X74100000Y-80500000D03*
%TD*%
D21*
%TO.C,U6*%
X139462500Y-62445000D03*
X139462500Y-65495000D03*
X142812500Y-62445000D03*
X142812500Y-65495000D03*
D22*
X134837500Y-61690000D03*
X134837500Y-63970000D03*
X134837500Y-66250000D03*
%TD*%
D23*
%TO.C,U5*%
X148300000Y-86450000D03*
X148300000Y-85500000D03*
X148300000Y-84550000D03*
X146025000Y-84550000D03*
X146025000Y-86450000D03*
%TD*%
D24*
%TO.C,U1*%
X119162500Y-68450000D03*
X121462500Y-68450000D03*
D25*
X121462500Y-62150000D03*
D24*
X123762500Y-68450000D03*
%TD*%
D26*
%TO.C,SW1*%
X58087500Y-55865000D03*
X58087500Y-57135000D03*
X64237500Y-57135000D03*
X64237500Y-55865000D03*
%TD*%
D18*
%TO.C,J6*%
X101162500Y-91000000D03*
X102912500Y-90000000D03*
X101162500Y-89000000D03*
X102912500Y-88000000D03*
%TD*%
D13*
%TO.C,C6*%
X75162500Y-97125000D03*
X75162500Y-94000000D03*
%TD*%
D27*
%TO.C,U3*%
X91162500Y-81500000D03*
X91162500Y-83350000D03*
X93012500Y-81500000D03*
X93012500Y-83350000D03*
D28*
X89637500Y-80675000D03*
X89637500Y-81175000D03*
X89637500Y-81675000D03*
X89637500Y-82175000D03*
X89637500Y-82675000D03*
X89637500Y-83175000D03*
X89637500Y-83675000D03*
X89637500Y-84175000D03*
D29*
X90337500Y-84875000D03*
X90837500Y-84875000D03*
X91337500Y-84875000D03*
X91837500Y-84875000D03*
X92337500Y-84875000D03*
X92837500Y-84875000D03*
X93337500Y-84875000D03*
X93837500Y-84875000D03*
D28*
X94537500Y-84175000D03*
X94537500Y-83675000D03*
X94537500Y-83175000D03*
X94537500Y-82675000D03*
X94537500Y-82175000D03*
X94537500Y-81675000D03*
X94537500Y-81175000D03*
X94537500Y-80675000D03*
D29*
X93837500Y-79975000D03*
X93337500Y-79975000D03*
X92837500Y-79975000D03*
X92337500Y-79975000D03*
X91837500Y-79975000D03*
X91337500Y-79975000D03*
X90837500Y-79975000D03*
X90337500Y-79975000D03*
%TD*%
D14*
%TO.C,C9*%
X80662500Y-72937500D03*
X80662500Y-76062500D03*
%TD*%
D30*
%TO.C,U4*%
X165642500Y-64710000D03*
X165642500Y-65500000D03*
X165642500Y-66290000D03*
X166462500Y-64710000D03*
X166462500Y-65500000D03*
X166462500Y-66290000D03*
D31*
X164605000Y-64500000D03*
X164605000Y-65000000D03*
X164605000Y-65500000D03*
X164605000Y-66000000D03*
X164605000Y-66500000D03*
X167500000Y-66500000D03*
X167500000Y-66000000D03*
X167500000Y-65500000D03*
X167500000Y-65000000D03*
X167500000Y-64500000D03*
%TD*%
D32*
%TO.C,FB1*%
X64235000Y-113970000D03*
X64235000Y-113000000D03*
%TD*%
D20*
%TO.C,C8*%
X183725000Y-78500000D03*
X180600000Y-78500000D03*
%TD*%
%TO.C,C13*%
X75062500Y-117000000D03*
X71937500Y-117000000D03*
%TD*%
D33*
%TO.C,D6*%
X101162500Y-100500000D03*
X101162500Y-103475000D03*
%TD*%
D20*
%TO.C,C12*%
X92287500Y-72500000D03*
X89162500Y-72500000D03*
%TD*%
D17*
%TO.C,D5*%
X77575000Y-86000000D03*
X74600000Y-86000000D03*
%TD*%
D13*
%TO.C,C11*%
X85662500Y-78062500D03*
X85662500Y-74937500D03*
%TD*%
D34*
%TO.C,C1*%
X117500000Y-99800000D03*
X117500000Y-91000000D03*
%TD*%
D14*
%TO.C,C4*%
X69687500Y-102840000D03*
X69687500Y-105965000D03*
%TD*%
D35*
%TO.C,C3*%
X99562500Y-66300000D03*
X108362500Y-66300000D03*
%TD*%
D36*
%TO.C,J7*%
X58960000Y-114200000D03*
X58960000Y-114850000D03*
X58960000Y-115500000D03*
X58960000Y-116150000D03*
X58960000Y-116800000D03*
D37*
X56300000Y-112125000D03*
D38*
X58875000Y-113012500D03*
D39*
X56300000Y-114350000D03*
D40*
X56300000Y-117050000D03*
D38*
X58875000Y-117987500D03*
D37*
X56300000Y-118875000D03*
%TD*%
M02*
