%TF.GenerationSoftware,KiCad,Pcbnew,10.99.0-1021-gc24091a86e*%
%TF.CreationDate,2026-07-26T01:42:24+00:00*%
%TF.ProjectId,Arduino Mega,41726475-696e-46f2-904d-6567612e6b69,rev?*%
%TF.SameCoordinates,Original*%
%TF.FileFunction,Copper,L1,Top*%
%TF.FilePolarity,Positive*%
%FSLAX46Y46*%
G04 Gerber Fmt 4.6, Leading zero omitted, Abs format (unit mm)*
G04 Created by KiCad (PCBNEW 10.99.0-1021-gc24091a86e) date 2026-07-26 01:42:24*
%MOMM*%
%LPD*%
G01*
G04 APERTURE LIST*
G04 Aperture macros list*
%AMRoundRect*
0 Rectangle with rounded corners*
0 $1 Rounding radius*
0 $2 $3 $4 $5 $6 $7 $8 $9 X,Y pos of 4 corners*
0 Add a 4 corners polygon primitive as box body*
4,1,4,$2,$3,$4,$5,$6,$7,$8,$9,$2,$3,0*
0 Add four circle primitives for the rounded corners*
1,1,$1+$1,$2,$3*
1,1,$1+$1,$4,$5*
1,1,$1+$1,$6,$7*
1,1,$1+$1,$8,$9*
0 Add four rect primitives between the rounded corners*
20,1,$1+$1,$2,$3,$4,$5,0*
20,1,$1+$1,$4,$5,$6,$7,0*
20,1,$1+$1,$6,$7,$8,$9,0*
20,1,$1+$1,$8,$9,$2,$3,0*%
G04 Aperture macros list end*
%ADD10C,0.375000*%
%TA.AperFunction,NonConductor*%
%ADD11C,0.375000*%
%TD*%
%TA.AperFunction,ComponentPad*%
%ADD12C,1.400000*%
%TD*%
%TA.AperFunction,SMDPad,CuDef*%
%ADD13RoundRect,0.075000X-0.662500X-0.075000X0.662500X-0.075000X0.662500X0.075000X-0.662500X0.075000X0*%
%TD*%
%TA.AperFunction,SMDPad,CuDef*%
%ADD14RoundRect,0.075000X-0.075000X-0.662500X0.075000X-0.662500X0.075000X0.662500X-0.075000X0.662500X0*%
%TD*%
%TA.AperFunction,SMDPad,CuDef*%
%ADD15RoundRect,0.250000X-0.412500X-1.100000X0.412500X-1.100000X0.412500X1.100000X-0.412500X1.100000X0*%
%TD*%
%TA.AperFunction,SMDPad,CuDef*%
%ADD16RoundRect,0.250000X1.100000X-0.412500X1.100000X0.412500X-1.100000X0.412500X-1.100000X-0.412500X0*%
%TD*%
%TA.AperFunction,SMDPad,CuDef*%
%ADD17RoundRect,0.250000X-1.100000X0.412500X-1.100000X-0.412500X1.100000X-0.412500X1.100000X0.412500X0*%
%TD*%
%TA.AperFunction,SMDPad,CuDef*%
%ADD18RoundRect,0.150000X-0.587500X-0.150000X0.587500X-0.150000X0.587500X0.150000X-0.587500X0.150000X0*%
%TD*%
%TA.AperFunction,SMDPad,CuDef*%
%ADD19RoundRect,0.250000X0.337500X0.475000X-0.337500X0.475000X-0.337500X-0.475000X0.337500X-0.475000X0*%
%TD*%
%TA.AperFunction,ComponentPad*%
%ADD20C,1.800000*%
%TD*%
%TA.AperFunction,ComponentPad*%
%ADD21R,1.700000X1.700000*%
%TD*%
%TA.AperFunction,ComponentPad*%
%ADD22C,1.700000*%
%TD*%
%TA.AperFunction,SMDPad,CuDef*%
%ADD23RoundRect,0.250001X0.462499X0.624999X-0.462499X0.624999X-0.462499X-0.624999X0.462499X-0.624999X0*%
%TD*%
%TA.AperFunction,SMDPad,CuDef*%
%ADD24R,1.750000X0.600000*%
%TD*%
%TA.AperFunction,ComponentPad*%
%ADD25R,2.000000X4.600000*%
%TD*%
%TA.AperFunction,ComponentPad*%
%ADD26O,2.000000X4.200000*%
%TD*%
%TA.AperFunction,ComponentPad*%
%ADD27O,4.200000X2.000000*%
%TD*%
%TA.AperFunction,SMDPad,CuDef*%
%ADD28R,3.000000X1.000000*%
%TD*%
%TA.AperFunction,SMDPad,CuDef*%
%ADD29RoundRect,0.250000X0.412500X1.100000X-0.412500X1.100000X-0.412500X-1.100000X0.412500X-1.100000X0*%
%TD*%
%TA.AperFunction,SMDPad,CuDef*%
%ADD30RoundRect,0.250000X-0.850000X-0.350000X0.850000X-0.350000X0.850000X0.350000X-0.850000X0.350000X0*%
%TD*%
%TA.AperFunction,SMDPad,CuDef*%
%ADD31RoundRect,0.249997X-2.950003X-2.650003X2.950003X-2.650003X2.950003X2.650003X-2.950003X2.650003X0*%
%TD*%
%TA.AperFunction,SMDPad,CuDef*%
%ADD32RoundRect,0.150000X0.512500X0.150000X-0.512500X0.150000X-0.512500X-0.150000X0.512500X-0.150000X0*%
%TD*%
%TA.AperFunction,SMDPad,CuDef*%
%ADD33R,1.500000X1.000000*%
%TD*%
%TA.AperFunction,SMDPad,CuDef*%
%ADD34RoundRect,0.375000X0.375000X-0.625000X0.375000X0.625000X-0.375000X0.625000X-0.375000X-0.625000X0*%
%TD*%
%TA.AperFunction,SMDPad,CuDef*%
%ADD35RoundRect,0.500000X1.400000X-0.500000X1.400000X0.500000X-1.400000X0.500000X-1.400000X-0.500000X0*%
%TD*%
%TA.AperFunction,SMDPad,CuDef*%
%ADD36RoundRect,0.190000X-0.435000X-0.190000X0.435000X-0.190000X0.435000X0.190000X-0.435000X0.190000X0*%
%TD*%
%TA.AperFunction,ComponentPad*%
%ADD37RoundRect,0.250000X0.650000X0.650000X-0.650000X0.650000X-0.650000X-0.650000X0.650000X-0.650000X0*%
%TD*%
%TA.AperFunction,SMDPad,CuDef*%
%ADD38RoundRect,0.062500X-0.337500X-0.062500X0.337500X-0.062500X0.337500X0.062500X-0.337500X0.062500X0*%
%TD*%
%TA.AperFunction,SMDPad,CuDef*%
%ADD39RoundRect,0.062500X-0.062500X-0.337500X0.062500X-0.337500X0.062500X0.337500X-0.062500X0.337500X0*%
%TD*%
%TA.AperFunction,HeatsinkPad*%
%ADD40R,3.700000X3.700000*%
%TD*%
%TA.AperFunction,SMDPad,CuDef*%
%ADD41R,1.000000X1.500000*%
%TD*%
%TA.AperFunction,SMDPad,CuDef*%
%ADD42RoundRect,0.062500X-0.365000X-0.062500X0.365000X-0.062500X0.365000X0.062500X-0.365000X0.062500X0*%
%TD*%
%TA.AperFunction,HeatsinkPad*%
%ADD43C,0.600000*%
%TD*%
%TA.AperFunction,HeatsinkPad*%
%ADD44R,1.640000X2.380000*%
%TD*%
%TA.AperFunction,SMDPad,CuDef*%
%ADD45RoundRect,0.147500X0.172500X-0.147500X0.172500X0.147500X-0.172500X0.147500X-0.172500X-0.147500X0*%
%TD*%
%TA.AperFunction,ComponentPad*%
%ADD46RoundRect,0.250000X-0.650000X0.650000X-0.650000X-0.650000X0.650000X-0.650000X0.650000X0.650000X0*%
%TD*%
%TA.AperFunction,SMDPad,CuDef*%
%ADD47RoundRect,0.250001X-0.624999X0.462499X-0.624999X-0.462499X0.624999X-0.462499X0.624999X0.462499X0*%
%TD*%
%TA.AperFunction,ComponentPad*%
%ADD48C,1.000000*%
%TD*%
%TA.AperFunction,SMDPad,CuDef*%
%ADD49RoundRect,0.250001X0.799999X-2.049999X0.799999X2.049999X-0.799999X2.049999X-0.799999X-2.049999X0*%
%TD*%
%TA.AperFunction,SMDPad,CuDef*%
%ADD50RoundRect,0.250001X-2.049999X-0.799999X2.049999X-0.799999X2.049999X0.799999X-2.049999X0.799999X0*%
%TD*%
%TA.AperFunction,ComponentPad*%
%ADD51RoundRect,0.250000X0.650000X-0.650000X0.650000X0.650000X-0.650000X0.650000X-0.650000X-0.650000X0*%
%TD*%
%TA.AperFunction,SMDPad,CuDef*%
%ADD52RoundRect,0.112500X-0.577500X0.112500X-0.577500X-0.112500X0.577500X-0.112500X0.577500X0.112500X0*%
%TD*%
%TA.AperFunction,SMDPad,CuDef*%
%ADD53RoundRect,0.250000X-0.400000X0.575000X-0.400000X-0.575000X0.400000X-0.575000X0.400000X0.575000X0*%
%TD*%
%TA.AperFunction,SMDPad,CuDef*%
%ADD54RoundRect,0.250000X-0.525000X0.462500X-0.525000X-0.462500X0.525000X-0.462500X0.525000X0.462500X0*%
%TD*%
%TA.AperFunction,SMDPad,CuDef*%
%ADD55RoundRect,0.250000X-0.700000X0.650000X-0.700000X-0.650000X0.700000X-0.650000X0.700000X0.650000X0*%
%TD*%
%TA.AperFunction,SMDPad,CuDef*%
%ADD56RoundRect,0.250000X-0.700000X0.250000X-0.700000X-0.250000X0.700000X-0.250000X0.700000X0.250000X0*%
%TD*%
%TA.AperFunction,ViaPad*%
%ADD57C,0.600000*%
%TD*%
%TA.AperFunction,Conductor*%
%ADD58C,0.300000*%
%TD*%
%TA.AperFunction,Conductor*%
%ADD59C,0.200000*%
%TD*%
G04 APERTURE END LIST*
D10*
D11*
X60722900Y-126235738D02*
X60722900Y-124235738D01*
X60722900Y-124235738D02*
X61199090Y-124235738D01*
X61199090Y-124235738D02*
X61484805Y-124330976D01*
X61484805Y-124330976D02*
X61675281Y-124521452D01*
X61675281Y-124521452D02*
X61770519Y-124711928D01*
X61770519Y-124711928D02*
X61865757Y-125092880D01*
X61865757Y-125092880D02*
X61865757Y-125378595D01*
X61865757Y-125378595D02*
X61770519Y-125759547D01*
X61770519Y-125759547D02*
X61675281Y-125950023D01*
X61675281Y-125950023D02*
X61484805Y-126140500D01*
X61484805Y-126140500D02*
X61199090Y-126235738D01*
X61199090Y-126235738D02*
X60722900Y-126235738D01*
X62722900Y-125188119D02*
X63389567Y-125188119D01*
X63675281Y-126235738D02*
X62722900Y-126235738D01*
X62722900Y-126235738D02*
X62722900Y-124235738D01*
X62722900Y-124235738D02*
X63675281Y-124235738D01*
X64437186Y-126140500D02*
X64722900Y-126235738D01*
X64722900Y-126235738D02*
X65199091Y-126235738D01*
X65199091Y-126235738D02*
X65389567Y-126140500D01*
X65389567Y-126140500D02*
X65484805Y-126045261D01*
X65484805Y-126045261D02*
X65580043Y-125854785D01*
X65580043Y-125854785D02*
X65580043Y-125664309D01*
X65580043Y-125664309D02*
X65484805Y-125473833D01*
X65484805Y-125473833D02*
X65389567Y-125378595D01*
X65389567Y-125378595D02*
X65199091Y-125283357D01*
X65199091Y-125283357D02*
X64818138Y-125188119D01*
X64818138Y-125188119D02*
X64627662Y-125092880D01*
X64627662Y-125092880D02*
X64532424Y-124997642D01*
X64532424Y-124997642D02*
X64437186Y-124807166D01*
X64437186Y-124807166D02*
X64437186Y-124616690D01*
X64437186Y-124616690D02*
X64532424Y-124426214D01*
X64532424Y-124426214D02*
X64627662Y-124330976D01*
X64627662Y-124330976D02*
X64818138Y-124235738D01*
X64818138Y-124235738D02*
X65294329Y-124235738D01*
X65294329Y-124235738D02*
X65580043Y-124330976D01*
X66437186Y-126235738D02*
X66437186Y-124235738D01*
X68437186Y-124330976D02*
X68246710Y-124235738D01*
X68246710Y-124235738D02*
X67960996Y-124235738D01*
X67960996Y-124235738D02*
X67675281Y-124330976D01*
X67675281Y-124330976D02*
X67484805Y-124521452D01*
X67484805Y-124521452D02*
X67389567Y-124711928D01*
X67389567Y-124711928D02*
X67294329Y-125092880D01*
X67294329Y-125092880D02*
X67294329Y-125378595D01*
X67294329Y-125378595D02*
X67389567Y-125759547D01*
X67389567Y-125759547D02*
X67484805Y-125950023D01*
X67484805Y-125950023D02*
X67675281Y-126140500D01*
X67675281Y-126140500D02*
X67960996Y-126235738D01*
X67960996Y-126235738D02*
X68151472Y-126235738D01*
X68151472Y-126235738D02*
X68437186Y-126140500D01*
X68437186Y-126140500D02*
X68532424Y-126045261D01*
X68532424Y-126045261D02*
X68532424Y-125378595D01*
X68532424Y-125378595D02*
X68151472Y-125378595D01*
X69389567Y-126235738D02*
X69389567Y-124235738D01*
X69389567Y-124235738D02*
X70532424Y-126235738D01*
X70532424Y-126235738D02*
X70532424Y-124235738D01*
X71484805Y-125188119D02*
X72151472Y-125188119D01*
X72437186Y-126235738D02*
X71484805Y-126235738D01*
X71484805Y-126235738D02*
X71484805Y-124235738D01*
X71484805Y-124235738D02*
X72437186Y-124235738D01*
X73294329Y-126235738D02*
X73294329Y-124235738D01*
X73294329Y-124235738D02*
X73770519Y-124235738D01*
X73770519Y-124235738D02*
X74056234Y-124330976D01*
X74056234Y-124330976D02*
X74246710Y-124521452D01*
X74246710Y-124521452D02*
X74341948Y-124711928D01*
X74341948Y-124711928D02*
X74437186Y-125092880D01*
X74437186Y-125092880D02*
X74437186Y-125378595D01*
X74437186Y-125378595D02*
X74341948Y-125759547D01*
X74341948Y-125759547D02*
X74246710Y-125950023D01*
X74246710Y-125950023D02*
X74056234Y-126140500D01*
X74056234Y-126140500D02*
X73770519Y-126235738D01*
X73770519Y-126235738D02*
X73294329Y-126235738D01*
X77484806Y-125188119D02*
X77770520Y-125283357D01*
X77770520Y-125283357D02*
X77865758Y-125378595D01*
X77865758Y-125378595D02*
X77960996Y-125569071D01*
X77960996Y-125569071D02*
X77960996Y-125854785D01*
X77960996Y-125854785D02*
X77865758Y-126045261D01*
X77865758Y-126045261D02*
X77770520Y-126140500D01*
X77770520Y-126140500D02*
X77580044Y-126235738D01*
X77580044Y-126235738D02*
X76818139Y-126235738D01*
X76818139Y-126235738D02*
X76818139Y-124235738D01*
X76818139Y-124235738D02*
X77484806Y-124235738D01*
X77484806Y-124235738D02*
X77675282Y-124330976D01*
X77675282Y-124330976D02*
X77770520Y-124426214D01*
X77770520Y-124426214D02*
X77865758Y-124616690D01*
X77865758Y-124616690D02*
X77865758Y-124807166D01*
X77865758Y-124807166D02*
X77770520Y-124997642D01*
X77770520Y-124997642D02*
X77675282Y-125092880D01*
X77675282Y-125092880D02*
X77484806Y-125188119D01*
X77484806Y-125188119D02*
X76818139Y-125188119D01*
X79199091Y-125283357D02*
X79199091Y-126235738D01*
X78532425Y-124235738D02*
X79199091Y-125283357D01*
X79199091Y-125283357D02*
X79865758Y-124235738D01*
X82056235Y-125188119D02*
X82722902Y-125188119D01*
X83008616Y-126235738D02*
X82056235Y-126235738D01*
X82056235Y-126235738D02*
X82056235Y-124235738D01*
X82056235Y-124235738D02*
X83008616Y-124235738D01*
X83865759Y-126235738D02*
X83865759Y-124235738D01*
X83865759Y-124235738D02*
X84532426Y-125664309D01*
X84532426Y-125664309D02*
X85199092Y-124235738D01*
X85199092Y-124235738D02*
X85199092Y-126235738D01*
X86151473Y-126235738D02*
X86151473Y-124235738D01*
X86151473Y-124235738D02*
X86818140Y-125664309D01*
X86818140Y-125664309D02*
X87484806Y-124235738D01*
X87484806Y-124235738D02*
X87484806Y-126235738D01*
X88341949Y-125664309D02*
X89294330Y-125664309D01*
X88151473Y-126235738D02*
X88818139Y-124235738D01*
X88818139Y-124235738D02*
X89484806Y-126235738D01*
X90151473Y-126235738D02*
X90151473Y-124235738D01*
X90151473Y-124235738D02*
X91294330Y-126235738D01*
X91294330Y-126235738D02*
X91294330Y-124235738D01*
X92246711Y-124235738D02*
X92246711Y-125854785D01*
X92246711Y-125854785D02*
X92341949Y-126045261D01*
X92341949Y-126045261D02*
X92437187Y-126140500D01*
X92437187Y-126140500D02*
X92627663Y-126235738D01*
X92627663Y-126235738D02*
X93008616Y-126235738D01*
X93008616Y-126235738D02*
X93199092Y-126140500D01*
X93199092Y-126140500D02*
X93294330Y-126045261D01*
X93294330Y-126045261D02*
X93389568Y-125854785D01*
X93389568Y-125854785D02*
X93389568Y-124235738D01*
X94341949Y-125188119D02*
X95008616Y-125188119D01*
X95294330Y-126235738D02*
X94341949Y-126235738D01*
X94341949Y-126235738D02*
X94341949Y-124235738D01*
X94341949Y-124235738D02*
X95294330Y-124235738D01*
X97103854Y-126235738D02*
X96151473Y-126235738D01*
X96151473Y-126235738D02*
X96151473Y-124235738D01*
D12*
%TO.P,R20,1*%
%TO.N,unconnected-(R20-Pad1)*%
X86162500Y-99810000D03*
%TO.P,R20,2*%
%TO.N,Net-(U3-PD2)*%
X86162500Y-92190000D03*
%TD*%
%TO.P,R3,1*%
%TO.N,+5V*%
X185462500Y-61490000D03*
%TO.P,R3,2*%
%TO.N,unconnected-(C8-Pad1)*%
X185462500Y-69110000D03*
%TD*%
D13*
%TO.P,U2,1,PG5_1*%
%TO.N,Net-(J10-Pin_5)*%
X172000000Y-94000000D03*
%TO.P,U2,2,PE0_2*%
%TO.N,Net-(J10-Pin_1)*%
X172000000Y-94500000D03*
%TO.P,U2,3,PE1_3*%
%TO.N,Net-(J10-Pin_2)*%
X172000000Y-95000000D03*
%TO.P,U2,4,PE2_4*%
%TO.N,unconnected-(U2-PE2-Pad4)*%
X172000000Y-95500000D03*
%TO.P,U2,5,PE3_5*%
%TO.N,Net-(J10-Pin_6)*%
X172000000Y-96000000D03*
%TO.P,U2,6,PE4_6*%
%TO.N,Net-(J10-Pin_3)*%
X172000000Y-96500000D03*
%TO.P,U2,7,PE5_7*%
%TO.N,Net-(J10-Pin_4)*%
X172000000Y-97000000D03*
%TO.P,U2,8,PE6_8*%
%TO.N,unconnected-(U2-PE6-Pad8)*%
X172000000Y-97500000D03*
%TO.P,U2,9,PE7_9*%
%TO.N,unconnected-(U2-PE7-Pad9)*%
X172000000Y-98000000D03*
%TO.P,U2,10,VCC_10*%
%TO.N,+5V*%
X172000000Y-98500000D03*
%TO.P,U2,11,GND_11*%
%TO.N,GNDD*%
X172000000Y-99000000D03*
%TO.P,U2,12,PH0_12*%
%TO.N,unconnected-(U2-PH0-Pad12)*%
X172000000Y-99500000D03*
%TO.P,U2,13,PH1_13*%
%TO.N,unconnected-(U2-PH1-Pad13)*%
X172000000Y-100000000D03*
%TO.P,U2,14,PH2_14*%
%TO.N,unconnected-(U2-PH2-Pad14)*%
X172000000Y-100500000D03*
%TO.P,U2,15,PH3_15*%
%TO.N,unconnected-(U2-PH3-Pad15)*%
X172000000Y-101000000D03*
%TO.P,U2,16,PH4_16*%
%TO.N,unconnected-(U2-PH4-Pad16)*%
X172000000Y-101500000D03*
%TO.P,U2,17,PH5_17*%
%TO.N,unconnected-(U2-PH5-Pad17)*%
X172000000Y-102000000D03*
%TO.P,U2,18,PH6_18*%
%TO.N,unconnected-(U2-PH6-Pad18)*%
X172000000Y-102500000D03*
%TO.P,U2,19,PB0_19*%
%TO.N,unconnected-(U2-PB0-Pad19)*%
X172000000Y-103000000D03*
%TO.P,U2,20,PB1_20*%
%TO.N,unconnected-(U2-PB1-Pad20)*%
X172000000Y-103500000D03*
%TO.P,U2,21,PB2_21*%
%TO.N,unconnected-(U2-PB2-Pad21)*%
X172000000Y-104000000D03*
%TO.P,U2,22,PB3_22*%
%TO.N,unconnected-(U2-PB3-Pad22)*%
X172000000Y-104500000D03*
%TO.P,U2,23,PB4_23*%
%TO.N,Net-(J4-Pin_8)*%
X172000000Y-105000000D03*
%TO.P,U2,24,PB5_24*%
%TO.N,Net-(J4-Pin_7)*%
X172000000Y-105500000D03*
%TO.P,U2,25,PB6_25*%
%TO.N,Net-(J4-Pin_6)*%
X172000000Y-106000000D03*
D14*
%TO.P,U2,26,PB7_26*%
%TO.N,Net-(J4-Pin_5)*%
X173662500Y-107662500D03*
%TO.P,U2,27,PH7_27*%
%TO.N,unconnected-(U2-PH7-Pad27)*%
X174162500Y-107662500D03*
%TO.P,U2,28,PG3_28*%
%TO.N,unconnected-(U2-PG3-Pad28)*%
X174662500Y-107662500D03*
%TO.P,U2,29,PG4_29*%
%TO.N,unconnected-(U2-PG4-Pad29)*%
X175162500Y-107662500D03*
%TO.P,U2,30,~{RESET}_30*%
%TO.N,unconnected-(U2-~{RESET}-Pad30)*%
X175662500Y-107662500D03*
%TO.P,U2,31,VCC_31*%
%TO.N,+5V*%
X176162500Y-107662500D03*
%TO.P,U2,32,GND_32*%
%TO.N,GNDD*%
X176662500Y-107662500D03*
%TO.P,U2,33,XTAL2_33*%
%TO.N,Net-(U2-XTAL2)*%
X177162500Y-107662500D03*
%TO.P,U2,34,XTAL1_34*%
%TO.N,Net-(U2-XTAL1)*%
X177662500Y-107662500D03*
%TO.P,U2,35,PL0_35*%
%TO.N,unconnected-(U2-PL0-Pad35)*%
X178162500Y-107662500D03*
%TO.P,U2,36,PL1_36*%
%TO.N,unconnected-(U2-PL1-Pad36)*%
X178662500Y-107662500D03*
%TO.P,U2,37,PL2_37*%
%TO.N,unconnected-(U2-PL2-Pad37)*%
X179162500Y-107662500D03*
%TO.P,U2,38,PL3_38*%
%TO.N,unconnected-(U2-PL3-Pad38)*%
X179662500Y-107662500D03*
%TO.P,U2,39,PL4_39*%
%TO.N,unconnected-(U2-PL4-Pad39)*%
X180162500Y-107662500D03*
%TO.P,U2,40,PL5_40*%
%TO.N,unconnected-(U2-PL5-Pad40)*%
X180662500Y-107662500D03*
%TO.P,U2,41,PL6_41*%
%TO.N,unconnected-(U2-PL6-Pad41)*%
X181162500Y-107662500D03*
%TO.P,U2,42,PL7_42*%
%TO.N,unconnected-(U2-PL7-Pad42)*%
X181662500Y-107662500D03*
%TO.P,U2,43,PD0_43*%
%TO.N,Net-(J9-Pin_1)*%
X182162500Y-107662500D03*
%TO.P,U2,44,PD1_44*%
%TO.N,Net-(J9-Pin_2)*%
X182662500Y-107662500D03*
%TO.P,U2,45,PD2_45*%
%TO.N,Net-(J9-Pin_3)*%
X183162500Y-107662500D03*
%TO.P,U2,46,PD3_46*%
%TO.N,Net-(J9-Pin_4)*%
X183662500Y-107662500D03*
%TO.P,U2,47,PD4_47*%
%TO.N,unconnected-(U2-PD4-Pad47)*%
X184162500Y-107662500D03*
%TO.P,U2,48,PD5_48*%
%TO.N,unconnected-(U2-PD5-Pad48)*%
X184662500Y-107662500D03*
%TO.P,U2,49,PD6_49*%
%TO.N,unconnected-(U2-PD6-Pad49)*%
X185162500Y-107662500D03*
%TO.P,U2,50,PD7_50*%
%TO.N,unconnected-(U2-PD7-Pad50)*%
X185662500Y-107662500D03*
D13*
%TO.P,U2,51,PG0_51*%
%TO.N,unconnected-(U2-PG0-Pad51)*%
X187325000Y-106000000D03*
%TO.P,U2,52,PG1_52*%
%TO.N,unconnected-(U2-PG1-Pad52)*%
X187325000Y-105500000D03*
%TO.P,U2,53,PC0_53*%
%TO.N,unconnected-(U2-PC0-Pad53)*%
X187325000Y-105000000D03*
%TO.P,U2,54,PC1_54*%
%TO.N,unconnected-(U2-PC1-Pad54)*%
X187325000Y-104500000D03*
%TO.P,U2,55,PC2_55*%
%TO.N,unconnected-(U2-PC2-Pad55)*%
X187325000Y-104000000D03*
%TO.P,U2,56,PC3_56*%
%TO.N,unconnected-(U2-PC3-Pad56)*%
X187325000Y-103500000D03*
%TO.P,U2,57,PC4_57*%
%TO.N,unconnected-(U2-PC4-Pad57)*%
X187325000Y-103000000D03*
%TO.P,U2,58,PC5_58*%
%TO.N,unconnected-(U2-PC5-Pad58)*%
X187325000Y-102500000D03*
%TO.P,U2,59,PC6_59*%
%TO.N,unconnected-(U2-PC6-Pad59)*%
X187325000Y-102000000D03*
%TO.P,U2,60,PC7_60*%
%TO.N,unconnected-(U2-PC7-Pad60)*%
X187325000Y-101500000D03*
%TO.P,U2,61,VCC_61*%
%TO.N,+5V*%
X187325000Y-101000000D03*
%TO.P,U2,62,GND_62*%
%TO.N,GNDD*%
X187325000Y-100500000D03*
%TO.P,U2,63,PJ0_63*%
%TO.N,unconnected-(U2-PJ0-Pad63)*%
X187325000Y-100000000D03*
%TO.P,U2,64,PJ1_64*%
%TO.N,unconnected-(U2-PJ1-Pad64)*%
X187325000Y-99500000D03*
%TO.P,U2,65,PJ2_65*%
%TO.N,unconnected-(U2-PJ2-Pad65)*%
X187325000Y-99000000D03*
%TO.P,U2,66,PJ3_66*%
%TO.N,unconnected-(U2-PJ3-Pad66)*%
X187325000Y-98500000D03*
%TO.P,U2,67,PJ4_67*%
%TO.N,unconnected-(U2-PJ4-Pad67)*%
X187325000Y-98000000D03*
%TO.P,U2,68,PJ5_68*%
%TO.N,unconnected-(U2-PJ5-Pad68)*%
X187325000Y-97500000D03*
%TO.P,U2,69,PJ6_69*%
%TO.N,unconnected-(U2-PJ6-Pad69)*%
X187325000Y-97000000D03*
%TO.P,U2,70,PG2_70*%
%TO.N,unconnected-(U2-PG2-Pad70)*%
X187325000Y-96500000D03*
%TO.P,U2,71,PA7_71*%
%TO.N,unconnected-(U2-PA7-Pad71)*%
X187325000Y-96000000D03*
%TO.P,U2,72,PA6_72*%
%TO.N,unconnected-(U2-PA6-Pad72)*%
X187325000Y-95500000D03*
%TO.P,U2,73,PA5_73*%
%TO.N,unconnected-(U2-PA5-Pad73)*%
X187325000Y-95000000D03*
%TO.P,U2,74,PA4_74*%
%TO.N,unconnected-(U2-PA4-Pad74)*%
X187325000Y-94500000D03*
%TO.P,U2,75,PA3_75*%
%TO.N,unconnected-(U2-PA3-Pad75)*%
X187325000Y-94000000D03*
D14*
%TO.P,U2,76,PA2_76*%
%TO.N,unconnected-(U2-PA2-Pad76)*%
X185662500Y-92337500D03*
%TO.P,U2,77,PA1_77*%
%TO.N,unconnected-(U2-PA1-Pad77)*%
X185162500Y-92337500D03*
%TO.P,U2,78,PA0_78*%
%TO.N,unconnected-(U2-PA0-Pad78)*%
X184662500Y-92337500D03*
%TO.P,U2,79,PJ7_79*%
%TO.N,unconnected-(U2-PJ7-Pad79)*%
X184162500Y-92337500D03*
%TO.P,U2,80,VCC_80*%
%TO.N,+5V*%
X183662500Y-92337500D03*
%TO.P,U2,81,GND_81*%
%TO.N,GNDD*%
X183162500Y-92337500D03*
%TO.P,U2,82,PK7_82*%
%TO.N,Net-(J8-Pin_8)*%
X182662500Y-92337500D03*
%TO.P,U2,83,PK6_83*%
%TO.N,Net-(J8-Pin_7)*%
X182162500Y-92337500D03*
%TO.P,U2,84,PK5_84*%
%TO.N,Net-(J8-Pin_6)*%
X181662500Y-92337500D03*
%TO.P,U2,85,PK4_85*%
%TO.N,Net-(J8-Pin_5)*%
X181162500Y-92337500D03*
%TO.P,U2,86,PK3_86*%
%TO.N,Net-(J8-Pin_4)*%
X180662500Y-92337500D03*
%TO.P,U2,87,PK2_87*%
%TO.N,Net-(J8-Pin_3)*%
X180162500Y-92337500D03*
%TO.P,U2,88,PK1_88*%
%TO.N,Net-(J8-Pin_2)*%
X179662500Y-92337500D03*
%TO.P,U2,89,PK0_89*%
%TO.N,Net-(J8-Pin_1)*%
X179162500Y-92337500D03*
%TO.P,U2,90,PF7_90*%
%TO.N,Net-(J11-Pin_8)*%
X178662500Y-92337500D03*
%TO.P,U2,91,PF6_91*%
%TO.N,Net-(J11-Pin_7)*%
X178162500Y-92337500D03*
%TO.P,U2,92,PF5_92*%
%TO.N,Net-(J11-Pin_6)*%
X177662500Y-92337500D03*
%TO.P,U2,93,PF4_93*%
%TO.N,Net-(J11-Pin_5)*%
X177162500Y-92337500D03*
%TO.P,U2,94,PF3_94*%
%TO.N,Net-(J11-Pin_4)*%
X176662500Y-92337500D03*
%TO.P,U2,95,PF2_95*%
%TO.N,Net-(J11-Pin_3)*%
X176162500Y-92337500D03*
%TO.P,U2,96,PF1_96*%
%TO.N,Net-(J11-Pin_2)*%
X175662500Y-92337500D03*
%TO.P,U2,97,PF0_97*%
%TO.N,Net-(J11-Pin_1)*%
X175162500Y-92337500D03*
%TO.P,U2,98,AREF_98*%
%TO.N,unconnected-(U2-AREF-Pad98)*%
X174662500Y-92337500D03*
%TO.P,U2,99,GND_99*%
%TO.N,GNDD*%
X174162500Y-92337500D03*
%TO.P,U2,100,AVCC_100*%
%TO.N,+5V*%
X173662500Y-92337500D03*
%TD*%
D12*
%TO.P,R17,1*%
%TO.N,Net-(J7-D-)*%
X64500000Y-108810000D03*
%TO.P,R17,2*%
%TO.N,Net-(U3-D-)*%
X64500000Y-101190000D03*
%TD*%
D15*
%TO.P,C16,1*%
%TO.N,unconnected-(C16-Pad1)*%
X145962500Y-93550000D03*
%TO.P,C16,2*%
%TO.N,GNDD*%
X149087500Y-93550000D03*
%TD*%
D16*
%TO.P,C7,1*%
%TO.N,+5V*%
X80662500Y-97125000D03*
%TO.P,C7,2*%
%TO.N,GNDD*%
X80662500Y-94000000D03*
%TD*%
D15*
%TO.P,C14,1*%
%TO.N,Net-(U3-~{HWB}{slash}PD7)*%
X112100000Y-112500000D03*
%TO.P,C14,2*%
%TO.N,unconnected-(C14-Pad2)*%
X115225000Y-112500000D03*
%TD*%
D17*
%TO.P,C10,1*%
%TO.N,GNDD*%
X76662500Y-72937500D03*
%TO.P,C10,2*%
%TO.N,Net-(U3-XTAL1)*%
X76662500Y-76062500D03*
%TD*%
D18*
%TO.P,Q1,1,G_1*%
%TO.N,Net-(Q1-G)*%
X145525000Y-76150000D03*
%TO.P,Q1,2,S_2*%
%TO.N,+5V*%
X145525000Y-78050000D03*
%TO.P,Q1,3,D_3*%
%TO.N,unconnected-(Q1-D-Pad3)*%
X147400000Y-77100000D03*
%TD*%
D12*
%TO.P,R14,1*%
%TO.N,Net-(U4B--)*%
X169162500Y-77500000D03*
%TO.P,R14,2*%
%TO.N,+3V*%
X176782500Y-77500000D03*
%TD*%
D19*
%TO.P,C2,1*%
%TO.N,Net-(D1-K)*%
X86000000Y-71300000D03*
%TO.P,C2,2*%
%TO.N,GNDD*%
X83925000Y-71300000D03*
%TD*%
D20*
%TO.P,RV1,1*%
%TO.N,Net-(J7-D-)*%
X93700000Y-109250000D03*
%TO.P,RV1,2*%
%TO.N,Net-(J7-GND)*%
X92300000Y-116750000D03*
%TD*%
D21*
%TO.P,J9,1,Pin_1_1*%
%TO.N,Net-(J9-Pin_1)*%
X188160000Y-118500000D03*
D22*
%TO.P,J9,2,Pin_2_2*%
%TO.N,Net-(J9-Pin_2)*%
X185620000Y-118500000D03*
%TO.P,J9,3,Pin_3_3*%
%TO.N,Net-(J9-Pin_3)*%
X183080000Y-118500000D03*
%TO.P,J9,4,Pin_4_4*%
%TO.N,Net-(J9-Pin_4)*%
X180540000Y-118500000D03*
%TO.P,J9,5,Pin_5_5*%
%TO.N,unconnected-(J9-Pin_5-Pad5)*%
X178000000Y-118500000D03*
%TO.P,J9,6,Pin_6_6*%
%TO.N,unconnected-(J9-Pin_6-Pad6)*%
X175460000Y-118500000D03*
%TO.P,J9,7,Pin_7_7*%
%TO.N,unconnected-(J9-Pin_7-Pad7)*%
X172920000Y-118500000D03*
%TO.P,J9,8,Pin_8_8*%
%TO.N,unconnected-(J9-Pin_8-Pad8)*%
X170380000Y-118500000D03*
%TD*%
D16*
%TO.P,C15,1*%
%TO.N,Net-(U4B-+)*%
X141662500Y-105062500D03*
%TO.P,C15,2*%
%TO.N,GNDD*%
X141662500Y-101937500D03*
%TD*%
D23*
%TO.P,D2,1,K_1*%
%TO.N,GNDD*%
X179725000Y-69300000D03*
%TO.P,D2,2,A_2*%
%TO.N,Net-(D2-A)*%
X176750000Y-69300000D03*
%TD*%
D12*
%TO.P,R15,1*%
%TO.N,unconnected-(R15-Pad1)*%
X130352500Y-89500000D03*
%TO.P,R15,2*%
%TO.N,unconnected-(R15-Pad2)*%
X137972500Y-89500000D03*
%TD*%
D21*
%TO.P,J10,1,Pin_1_1*%
%TO.N,Net-(J10-Pin_1)*%
X147760000Y-119000000D03*
D22*
%TO.P,J10,2,Pin_2_2*%
%TO.N,Net-(J10-Pin_2)*%
X150300000Y-119000000D03*
%TO.P,J10,3,Pin_3_3*%
%TO.N,Net-(J10-Pin_3)*%
X152840000Y-119000000D03*
%TO.P,J10,4,Pin_4_4*%
%TO.N,Net-(J10-Pin_4)*%
X155380000Y-119000000D03*
%TO.P,J10,5,Pin_5_5*%
%TO.N,Net-(J10-Pin_5)*%
X157920000Y-119000000D03*
%TO.P,J10,6,Pin_6_6*%
%TO.N,Net-(J10-Pin_6)*%
X160460000Y-119000000D03*
%TO.P,J10,7,Pin_7_7*%
%TO.N,unconnected-(J10-Pin_7-Pad7)*%
X163000000Y-119000000D03*
%TO.P,J10,8,Pin_8_8*%
%TO.N,unconnected-(J10-Pin_8-Pad8)*%
X165540000Y-119000000D03*
%TD*%
D12*
%TO.P,R21,1*%
%TO.N,Net-(D5-A)*%
X77662500Y-91000000D03*
%TO.P,R21,2*%
%TO.N,+5V*%
X70042500Y-91000000D03*
%TD*%
D17*
%TO.P,C5,1*%
%TO.N,+5V*%
X69662500Y-94000000D03*
%TO.P,C5,2*%
%TO.N,GNDD*%
X69662500Y-97125000D03*
%TD*%
D23*
%TO.P,D3,1,K_1*%
%TO.N,GNDD*%
X179675000Y-60800000D03*
%TO.P,D3,2,A_2*%
%TO.N,Net-(D3-A)*%
X176700000Y-60800000D03*
%TD*%
D20*
%TO.P,RV2,1*%
%TO.N,Net-(J7-D+)*%
X101700000Y-109250000D03*
%TO.P,RV2,2*%
%TO.N,Net-(J7-GND)*%
X100300000Y-116750000D03*
%TD*%
D24*
%TO.P,J12,1,Pin_1_1*%
%TO.N,Net-(J12-Pin_1)*%
X105412500Y-83000000D03*
%TO.P,J12,2,Pin_2_2*%
%TO.N,+5V*%
X103662500Y-82000000D03*
%TO.P,J12,3,Pin_3_3*%
%TO.N,Net-(J12-Pin_3)*%
X105412500Y-81000000D03*
%TO.P,J12,4,Pin_4_4*%
%TO.N,Net-(J12-Pin_4)*%
X103662500Y-80000000D03*
%TO.P,J12,5,Pin_5_5*%
%TO.N,Net-(D7-A)*%
X105412500Y-79000000D03*
%TO.P,J12,6,Pin_6_6*%
%TO.N,GNDD*%
X103662500Y-78000000D03*
%TD*%
D21*
%TO.P,J3,1,Pin_1_1*%
%TO.N,unconnected-(J3-Pin_1-Pad1)*%
X121300000Y-53500000D03*
D22*
%TO.P,J3,2,Pin_2_2*%
%TO.N,+5V*%
X123840000Y-53500000D03*
%TO.P,J3,3,Pin_3_3*%
%TO.N,Net-(J3-Pin_3)*%
X126380000Y-53500000D03*
%TO.P,J3,4,Pin_4_4*%
%TO.N,+5V*%
X128920000Y-53500000D03*
%TO.P,J3,5,Pin_5_5*%
X131460000Y-53500000D03*
%TO.P,J3,6,Pin_6_6*%
%TO.N,GNDD*%
X134000000Y-53500000D03*
%TO.P,J3,7,Pin_7_7*%
X136540000Y-53500000D03*
%TO.P,J3,8,Pin_8_8*%
%TO.N,unconnected-(J3-Pin_8-Pad8)*%
X139080000Y-53500000D03*
%TD*%
D25*
%TO.P,J1,1*%
%TO.N,GNDD*%
X68800000Y-70000000D03*
D26*
%TO.P,J1,2*%
X62500000Y-70000000D03*
D27*
%TO.P,J1,3*%
%TO.N,Net-(D1-A)*%
X65900000Y-74800000D03*
%TD*%
D24*
%TO.P,J5,1,Pin_1_1*%
%TO.N,unconnected-(J5-Pin_1-Pad1)*%
X190250000Y-86500000D03*
%TO.P,J5,2,Pin_2_2*%
%TO.N,+5V*%
X192000000Y-87500000D03*
%TO.P,J5,3,Pin_3_3*%
%TO.N,unconnected-(J5-Pin_3-Pad3)*%
X190250000Y-88500000D03*
%TO.P,J5,4,Pin_4_4*%
%TO.N,unconnected-(J5-Pin_4-Pad4)*%
X192000000Y-89500000D03*
%TO.P,J5,5,Pin_5_5*%
%TO.N,unconnected-(J5-Pin_5-Pad5)*%
X190250000Y-90500000D03*
%TO.P,J5,6,Pin_6_6*%
%TO.N,GNDD*%
X192000000Y-91500000D03*
%TD*%
D28*
%TO.P,J2,1,Pin_1_1*%
%TO.N,+5V*%
X195960000Y-118240000D03*
%TO.P,J2,2,Pin_2_2*%
X201000000Y-118240000D03*
%TO.P,J2,3,Pin_3_3*%
%TO.N,unconnected-(J2-Pin_3-Pad3)*%
X195960000Y-115700000D03*
%TO.P,J2,4,Pin_4_4*%
%TO.N,unconnected-(J2-Pin_4-Pad4)*%
X201000000Y-115700000D03*
%TO.P,J2,5,Pin_5_5*%
%TO.N,unconnected-(J2-Pin_5-Pad5)*%
X195960000Y-113160000D03*
%TO.P,J2,6,Pin_6_6*%
%TO.N,unconnected-(J2-Pin_6-Pad6)*%
X201000000Y-113160000D03*
%TO.P,J2,7,Pin_7_7*%
%TO.N,unconnected-(J2-Pin_7-Pad7)*%
X195960000Y-110620000D03*
%TO.P,J2,8,Pin_8_8*%
%TO.N,unconnected-(J2-Pin_8-Pad8)*%
X201000000Y-110620000D03*
%TO.P,J2,9,Pin_9_9*%
%TO.N,unconnected-(J2-Pin_9-Pad9)*%
X195960000Y-108080000D03*
%TO.P,J2,10,Pin_10_10*%
%TO.N,unconnected-(J2-Pin_10-Pad10)*%
X201000000Y-108080000D03*
%TO.P,J2,11,Pin_11_11*%
%TO.N,unconnected-(J2-Pin_11-Pad11)*%
X195960000Y-105540000D03*
%TO.P,J2,12,Pin_12_12*%
%TO.N,unconnected-(J2-Pin_12-Pad12)*%
X201000000Y-105540000D03*
%TO.P,J2,13,Pin_13_13*%
%TO.N,unconnected-(J2-Pin_13-Pad13)*%
X195960000Y-103000000D03*
%TO.P,J2,14,Pin_14_14*%
%TO.N,unconnected-(J2-Pin_14-Pad14)*%
X201000000Y-103000000D03*
%TO.P,J2,15,Pin_15_15*%
%TO.N,unconnected-(J2-Pin_15-Pad15)*%
X195960000Y-100460000D03*
%TO.P,J2,16,Pin_16_16*%
%TO.N,unconnected-(J2-Pin_16-Pad16)*%
X201000000Y-100460000D03*
%TO.P,J2,17,Pin_17_17*%
%TO.N,unconnected-(J2-Pin_17-Pad17)*%
X195960000Y-97920000D03*
%TO.P,J2,18,Pin_18_18*%
%TO.N,unconnected-(J2-Pin_18-Pad18)*%
X201000000Y-97920000D03*
%TO.P,J2,19,Pin_19_19*%
%TO.N,unconnected-(J2-Pin_19-Pad19)*%
X195960000Y-95380000D03*
%TO.P,J2,20,Pin_20_20*%
%TO.N,unconnected-(J2-Pin_20-Pad20)*%
X201000000Y-95380000D03*
%TO.P,J2,21,Pin_21_21*%
%TO.N,unconnected-(J2-Pin_21-Pad21)*%
X195960000Y-92840000D03*
%TO.P,J2,22,Pin_22_22*%
%TO.N,unconnected-(J2-Pin_22-Pad22)*%
X201000000Y-92840000D03*
%TO.P,J2,23,Pin_23_23*%
%TO.N,unconnected-(J2-Pin_23-Pad23)*%
X195960000Y-90300000D03*
%TO.P,J2,24,Pin_24_24*%
%TO.N,unconnected-(J2-Pin_24-Pad24)*%
X201000000Y-90300000D03*
%TO.P,J2,25,Pin_25_25*%
%TO.N,unconnected-(J2-Pin_25-Pad25)*%
X195960000Y-87760000D03*
%TO.P,J2,26,Pin_26_26*%
%TO.N,unconnected-(J2-Pin_26-Pad26)*%
X201000000Y-87760000D03*
%TO.P,J2,27,Pin_27_27*%
%TO.N,unconnected-(J2-Pin_27-Pad27)*%
X195960000Y-85220000D03*
%TO.P,J2,28,Pin_28_28*%
%TO.N,unconnected-(J2-Pin_28-Pad28)*%
X201000000Y-85220000D03*
%TO.P,J2,29,Pin_29_29*%
%TO.N,unconnected-(J2-Pin_29-Pad29)*%
X195960000Y-82680000D03*
%TO.P,J2,30,Pin_30_30*%
%TO.N,unconnected-(J2-Pin_30-Pad30)*%
X201000000Y-82680000D03*
%TO.P,J2,31,Pin_31_31*%
%TO.N,unconnected-(J2-Pin_31-Pad31)*%
X195960000Y-80140000D03*
%TO.P,J2,32,Pin_32_32*%
%TO.N,unconnected-(J2-Pin_32-Pad32)*%
X201000000Y-80140000D03*
%TO.P,J2,33,Pin_33_33*%
%TO.N,unconnected-(J2-Pin_33-Pad33)*%
X195960000Y-77600000D03*
%TO.P,J2,34,Pin_34_34*%
%TO.N,unconnected-(J2-Pin_34-Pad34)*%
X201000000Y-77600000D03*
%TO.P,J2,35,Pin_35_35*%
%TO.N,unconnected-(J2-Pin_35-Pad35)*%
X195960000Y-75060000D03*
%TO.P,J2,36,Pin_36_36*%
%TO.N,unconnected-(J2-Pin_36-Pad36)*%
X201000000Y-75060000D03*
%TO.P,J2,37*%
%TO.N,N/C*%
X195960000Y-72520000D03*
%TO.P,J2,38*%
X201000000Y-72520000D03*
%TO.P,J2,39*%
X195960000Y-69980000D03*
%TO.P,J2,40*%
X201000000Y-69980000D03*
%TO.P,J2,41*%
X195960000Y-67440000D03*
%TO.P,J2,42*%
X201000000Y-67440000D03*
%TO.P,J2,43*%
X195960000Y-64900000D03*
%TO.P,J2,44*%
X201000000Y-64900000D03*
%TO.P,J2,45*%
X195960000Y-62360000D03*
%TO.P,J2,46*%
X201000000Y-62360000D03*
%TO.P,J2,47*%
X195960000Y-59820000D03*
%TO.P,J2,48*%
X201000000Y-59820000D03*
%TO.P,J2,49*%
X195960000Y-57280000D03*
%TO.P,J2,50*%
X201000000Y-57280000D03*
%TD*%
D12*
%TO.P,R9,1*%
%TO.N,Net-(U4B-+)*%
X134662500Y-108810000D03*
%TO.P,R9,2*%
%TO.N,GNDD*%
X134662500Y-101190000D03*
%TD*%
D29*
%TO.P,C17,1*%
%TO.N,+5V*%
X77225000Y-80500000D03*
%TO.P,C17,2*%
%TO.N,GNDD*%
X74100000Y-80500000D03*
%TD*%
D12*
%TO.P,R8,1*%
%TO.N,unconnected-(R8-Pad1)*%
X129662500Y-101190000D03*
%TO.P,R8,2*%
%TO.N,Net-(U4B-+)*%
X129662500Y-108810000D03*
%TD*%
D30*
%TO.P,U6,1,GND_1*%
%TO.N,GNDD*%
X134837500Y-61690000D03*
%TO.P,U6,2,VO_2*%
%TO.N,+5V*%
X134837500Y-63970000D03*
D31*
X141137500Y-63970000D03*
D30*
%TO.P,U6,3,VI_3*%
%TO.N,Net-(D1-K)*%
X134837500Y-66250000D03*
%TD*%
D32*
%TO.P,U5,1,VIN_1*%
%TO.N,+5V*%
X148300000Y-86450000D03*
%TO.P,U5,2,GND_2*%
%TO.N,GNDD*%
X148300000Y-85500000D03*
%TO.P,U5,3,ON/~{OFF}_3*%
%TO.N,+5V*%
X148300000Y-84550000D03*
%TO.P,U5,4,BP_4*%
%TO.N,unconnected-(U5-BP-Pad4)*%
X146025000Y-84550000D03*
%TO.P,U5,5,VOUT_5*%
%TO.N,unconnected-(C16-Pad1)*%
X146025000Y-86450000D03*
%TD*%
D12*
%TO.P,R4,1*%
%TO.N,+5V*%
X191500000Y-106380000D03*
%TO.P,R4,2*%
%TO.N,unconnected-(R4-Pad2)*%
X191500000Y-114000000D03*
%TD*%
%TO.P,R18,1*%
%TO.N,Net-(J7-D+)*%
X60500000Y-109120000D03*
%TO.P,R18,2*%
%TO.N,Net-(U3-D+)*%
X60500000Y-101500000D03*
%TD*%
D20*
%TO.P,F1,1*%
%TO.N,Net-(J7-VBUS)*%
X70412500Y-110000000D03*
%TO.P,F1,2*%
%TO.N,unconnected-(C13-Pad1)*%
X77912500Y-113000000D03*
%TD*%
D33*
%TO.P,JP2,1,A_1*%
%TO.N,GNDD*%
X96312500Y-73800000D03*
%TO.P,JP2,2,B_2*%
X96312500Y-72500000D03*
%TD*%
D34*
%TO.P,U1,1,GND_1*%
%TO.N,GNDD*%
X119162500Y-68450000D03*
%TO.P,U1,2,VO_2*%
%TO.N,+5V*%
X121462500Y-68450000D03*
D35*
X121462500Y-62150000D03*
D34*
%TO.P,U1,3,VI_3*%
%TO.N,Net-(D1-K)*%
X123762500Y-68450000D03*
%TD*%
D36*
%TO.P,SW1,1,1_1*%
%TO.N,GNDD*%
X58087500Y-55865000D03*
%TO.P,SW1,2,2_2*%
X58087500Y-57135000D03*
%TO.P,SW1,3,K_3*%
%TO.N,Net-(J3-Pin_3)*%
X64237500Y-57135000D03*
%TO.P,SW1,4,A_4*%
X64237500Y-55865000D03*
%TD*%
D24*
%TO.P,J6,1,Pin_1_1*%
%TO.N,Net-(J6-Pin_1)*%
X101162500Y-91000000D03*
%TO.P,J6,2,Pin_2_2*%
%TO.N,Net-(J6-Pin_2)*%
X102912500Y-90000000D03*
%TO.P,J6,3,Pin_3_3*%
%TO.N,Net-(J6-Pin_3)*%
X101162500Y-89000000D03*
%TO.P,J6,4,Pin_4_4*%
%TO.N,Net-(J6-Pin_4)*%
X102912500Y-88000000D03*
%TD*%
D22*
%TO.P,Y1,1,1_1*%
%TO.N,Net-(U2-XTAL2)*%
X67662500Y-83500000D03*
%TO.P,Y1,2,2_2*%
%TO.N,GNDD*%
X67662500Y-81000000D03*
%TO.P,Y1,3,3_3*%
%TO.N,Net-(U2-XTAL1)*%
X67662500Y-78500000D03*
%TD*%
D16*
%TO.P,C6,1*%
%TO.N,+5V*%
X75162500Y-97125000D03*
%TO.P,C6,2*%
%TO.N,GNDD*%
X75162500Y-94000000D03*
%TD*%
D37*
%TO.P,D1,1,K_1*%
%TO.N,Net-(D1-K)*%
X90962500Y-66300000D03*
D20*
%TO.P,D1,2,A_2*%
%TO.N,Net-(D1-A)*%
X78262500Y-66300000D03*
%TD*%
D38*
%TO.P,U3,1,XTAL1_1*%
%TO.N,Net-(U3-XTAL1)*%
X89637500Y-80675000D03*
%TO.P,U3,2,PC0/XTAL2_2*%
%TO.N,Net-(U3-PC0{slash}XTAL2)*%
X89637500Y-81175000D03*
%TO.P,U3,3,GND_3*%
%TO.N,GNDD*%
X89637500Y-81675000D03*
%TO.P,U3,4,VCC_4*%
%TO.N,+5V*%
X89637500Y-82175000D03*
%TO.P,U3,5,PC2_5*%
%TO.N,unconnected-(U3-PC2-Pad5)*%
X89637500Y-82675000D03*
%TO.P,U3,6,PD0_6*%
%TO.N,unconnected-(U3-PD0-Pad6)*%
X89637500Y-83175000D03*
%TO.P,U3,7,PD1_7*%
%TO.N,unconnected-(U3-PD1-Pad7)*%
X89637500Y-83675000D03*
%TO.P,U3,8,PD2_8*%
%TO.N,Net-(U3-PD2)*%
X89637500Y-84175000D03*
D39*
%TO.P,U3,9,PD3_9*%
%TO.N,Net-(U3-PD3)*%
X90337500Y-84875000D03*
%TO.P,U3,10,PD4_10*%
%TO.N,Net-(D6-K)*%
X90837500Y-84875000D03*
%TO.P,U3,11,PD5_11*%
%TO.N,Net-(D5-K)*%
X91337500Y-84875000D03*
%TO.P,U3,12,PD6_12*%
%TO.N,unconnected-(U3-PD6-Pad12)*%
X91837500Y-84875000D03*
%TO.P,U3,13,~{HWB}/PD7_13*%
%TO.N,Net-(U3-~{HWB}{slash}PD7)*%
X92337500Y-84875000D03*
%TO.P,U3,14,PB0_14*%
%TO.N,unconnected-(U3-PB0-Pad14)*%
X92837500Y-84875000D03*
%TO.P,U3,15,PB1_15*%
%TO.N,Net-(J12-Pin_3)*%
X93337500Y-84875000D03*
%TO.P,U3,16,PB2_16*%
%TO.N,Net-(J12-Pin_4)*%
X93837500Y-84875000D03*
D38*
%TO.P,U3,17,PB3_17*%
%TO.N,Net-(J12-Pin_1)*%
X94537500Y-84175000D03*
%TO.P,U3,18,PB4_18*%
%TO.N,Net-(J6-Pin_1)*%
X94537500Y-83675000D03*
%TO.P,U3,19,PB5_19*%
%TO.N,Net-(J6-Pin_3)*%
X94537500Y-83175000D03*
%TO.P,U3,20,PB6_20*%
%TO.N,Net-(J6-Pin_2)*%
X94537500Y-82675000D03*
%TO.P,U3,21,PB7_21*%
%TO.N,Net-(J6-Pin_4)*%
X94537500Y-82175000D03*
%TO.P,U3,22,PC7_22*%
%TO.N,unconnected-(U3-PC7-Pad22)*%
X94537500Y-81675000D03*
%TO.P,U3,23,PC6_23*%
%TO.N,unconnected-(U3-PC6-Pad23)*%
X94537500Y-81175000D03*
%TO.P,U3,24,PC1/~{RESET}_24*%
%TO.N,Net-(D7-A)*%
X94537500Y-80675000D03*
D39*
%TO.P,U3,25,PC5_25*%
%TO.N,unconnected-(U3-PC5-Pad25)*%
X93837500Y-79975000D03*
%TO.P,U3,26,PC4_26*%
%TO.N,unconnected-(U3-PC4-Pad26)*%
X93337500Y-79975000D03*
%TO.P,U3,27,UCAP_27*%
%TO.N,Net-(U3-UCAP)*%
X92837500Y-79975000D03*
%TO.P,U3,28,UGND_28*%
%TO.N,GNDD*%
X92337500Y-79975000D03*
%TO.P,U3,29,D+_29*%
%TO.N,Net-(U3-D+)*%
X91837500Y-79975000D03*
%TO.P,U3,30,D-_30*%
%TO.N,Net-(U3-D-)*%
X91337500Y-79975000D03*
%TO.P,U3,31,UVCC_31*%
%TO.N,unconnected-(U3-UVCC-Pad31)*%
X90837500Y-79975000D03*
%TO.P,U3,32,AVCC_32*%
%TO.N,+5V*%
X90337500Y-79975000D03*
D40*
%TO.P,U3,33,GND_33*%
%TO.N,GNDD*%
X92087500Y-82425000D03*
%TD*%
D12*
%TO.P,R19,1*%
%TO.N,unconnected-(R19-Pad1)*%
X90162500Y-99810000D03*
%TO.P,R19,2*%
%TO.N,Net-(U3-PD3)*%
X90162500Y-92190000D03*
%TD*%
D21*
%TO.P,J11,1,Pin_1_1*%
%TO.N,Net-(J11-Pin_1)*%
X146300000Y-53000000D03*
D22*
%TO.P,J11,2,Pin_2_2*%
%TO.N,Net-(J11-Pin_2)*%
X148840000Y-53000000D03*
%TO.P,J11,3,Pin_3_3*%
%TO.N,Net-(J11-Pin_3)*%
X151380000Y-53000000D03*
%TO.P,J11,4,Pin_4_4*%
%TO.N,Net-(J11-Pin_4)*%
X153920000Y-53000000D03*
%TO.P,J11,5,Pin_5_5*%
%TO.N,Net-(J11-Pin_5)*%
X156460000Y-53000000D03*
%TO.P,J11,6,Pin_6_6*%
%TO.N,Net-(J11-Pin_6)*%
X159000000Y-53000000D03*
%TO.P,J11,7,Pin_7_7*%
%TO.N,Net-(J11-Pin_7)*%
X161540000Y-53000000D03*
%TO.P,J11,8,Pin_8_8*%
%TO.N,Net-(J11-Pin_8)*%
X164080000Y-53000000D03*
%TD*%
D17*
%TO.P,C9,1*%
%TO.N,GNDD*%
X80662500Y-72937500D03*
%TO.P,C9,2*%
%TO.N,Net-(U3-PC0{slash}XTAL2)*%
X80662500Y-76062500D03*
%TD*%
D41*
%TO.P,JP1,1,A_1*%
%TO.N,unconnected-(C14-Pad2)*%
X121862500Y-112500000D03*
%TO.P,JP1,2,B_2*%
X123162500Y-112500000D03*
%TD*%
D42*
%TO.P,U4,1*%
%TO.N,Net-(U4A--)*%
X164605000Y-64500000D03*
%TO.P,U4,2,-_2*%
X164605000Y-65000000D03*
%TO.P,U4,3,+_3*%
%TO.N,Net-(J4-Pin_5)*%
X164605000Y-65500000D03*
%TO.P,U4,4*%
%TO.N,N/C*%
X164605000Y-66000000D03*
%TO.P,U4,5,+_5*%
%TO.N,Net-(U4B-+)*%
X164605000Y-66500000D03*
%TO.P,U4,6,-_6*%
%TO.N,unconnected-(U4B---Pad6)*%
X167500000Y-66500000D03*
%TO.P,U4,7*%
%TO.N,Net-(Q1-G)*%
X167500000Y-66000000D03*
%TO.P,U4,8*%
%TO.N,N/C*%
X167500000Y-65500000D03*
%TO.P,U4,9*%
X167500000Y-65000000D03*
%TO.P,U4,10*%
X167500000Y-64500000D03*
D43*
%TO.P,U4,11*%
X165532500Y-64610000D03*
X165532500Y-65500000D03*
X165532500Y-66390000D03*
D44*
X166052500Y-65500000D03*
D43*
X166572500Y-64610000D03*
X166572500Y-65500000D03*
X166572500Y-66390000D03*
%TD*%
D12*
%TO.P,R1,1*%
%TO.N,Net-(U2-XTAL2)*%
X62162500Y-84620000D03*
%TO.P,R1,2*%
%TO.N,Net-(U2-XTAL1)*%
X62162500Y-77000000D03*
%TD*%
D45*
%TO.P,FB1,1*%
%TO.N,Net-(J7-GND)*%
X64235000Y-113970000D03*
%TO.P,FB1,2*%
%TO.N,GNDD*%
X64235000Y-113000000D03*
%TD*%
D29*
%TO.P,C8,1*%
%TO.N,unconnected-(C8-Pad1)*%
X183725000Y-78500000D03*
%TO.P,C8,2*%
%TO.N,GNDD*%
X180600000Y-78500000D03*
%TD*%
D12*
%TO.P,R16,1*%
%TO.N,unconnected-(R16-Pad1)*%
X130042500Y-93500000D03*
%TO.P,R16,2*%
%TO.N,unconnected-(R16-Pad2)*%
X137662500Y-93500000D03*
%TD*%
D29*
%TO.P,C13,1*%
%TO.N,unconnected-(C13-Pad1)*%
X75062500Y-117000000D03*
%TO.P,C13,2*%
%TO.N,GNDD*%
X71937500Y-117000000D03*
%TD*%
D46*
%TO.P,D4,1,K_1*%
%TO.N,+5V*%
X190000000Y-59800000D03*
D20*
%TO.P,D4,2,A_2*%
%TO.N,unconnected-(C8-Pad1)*%
X190000000Y-72500000D03*
%TD*%
D47*
%TO.P,D6,1,K_1*%
%TO.N,Net-(D6-K)*%
X101162500Y-100500000D03*
%TO.P,D6,2,A_2*%
%TO.N,Net-(D6-A)*%
X101162500Y-103475000D03*
%TD*%
D12*
%TO.P,R13,1*%
%TO.N,unconnected-(R13-Pad1)*%
X130852500Y-84000000D03*
%TO.P,R13,2*%
%TO.N,unconnected-(R13-Pad2)*%
X138472500Y-84000000D03*
%TD*%
D29*
%TO.P,C12,1*%
%TO.N,GNDD*%
X92287500Y-72500000D03*
%TO.P,C12,2*%
%TO.N,Net-(U3-UCAP)*%
X89162500Y-72500000D03*
%TD*%
D12*
%TO.P,R12,1*%
%TO.N,unconnected-(R12-Pad1)*%
X130852500Y-78000000D03*
%TO.P,R12,2*%
%TO.N,unconnected-(R12-Pad2)*%
X138472500Y-78000000D03*
%TD*%
%TO.P,R23,1*%
%TO.N,+5V*%
X113662500Y-84620000D03*
%TO.P,R23,2*%
%TO.N,Net-(D7-A)*%
X113662500Y-77000000D03*
%TD*%
D21*
%TO.P,J4,1,Pin_1_1*%
%TO.N,unconnected-(J4-Pin_1-Pad1)*%
X143040000Y-119000000D03*
D22*
%TO.P,J4,2,Pin_2_2*%
%TO.N,unconnected-(J4-Pin_2-Pad2)*%
X140500000Y-119000000D03*
%TO.P,J4,3,Pin_3_3*%
%TO.N,unconnected-(J4-Pin_3-Pad3)*%
X137960000Y-119000000D03*
%TO.P,J4,4,Pin_4_4*%
%TO.N,unconnected-(J4-Pin_4-Pad4)*%
X135420000Y-119000000D03*
%TO.P,J4,5,Pin_5_5*%
%TO.N,Net-(J4-Pin_5)*%
X132880000Y-119000000D03*
%TO.P,J4,6,Pin_6_6*%
%TO.N,Net-(J4-Pin_6)*%
X130340000Y-119000000D03*
%TO.P,J4,7,Pin_7_7*%
%TO.N,Net-(J4-Pin_7)*%
X127800000Y-119000000D03*
%TO.P,J4,8,Pin_8_8*%
%TO.N,Net-(J4-Pin_8)*%
X125260000Y-119000000D03*
%TD*%
D48*
%TO.P,Y2,1,1_1*%
%TO.N,Net-(U3-XTAL1)*%
X85662500Y-80230000D03*
%TO.P,Y2,2,2_2*%
%TO.N,Net-(U3-PC0{slash}XTAL2)*%
X85662500Y-82770000D03*
%TD*%
D12*
%TO.P,R5,1*%
%TO.N,+5V*%
X191500000Y-94500000D03*
%TO.P,R5,2*%
%TO.N,unconnected-(R5-Pad2)*%
X191500000Y-102120000D03*
%TD*%
D23*
%TO.P,D5,1,K_1*%
%TO.N,Net-(D5-K)*%
X77575000Y-86000000D03*
%TO.P,D5,2,A_2*%
%TO.N,Net-(D5-A)*%
X74600000Y-86000000D03*
%TD*%
D12*
%TO.P,R7,1*%
%TO.N,Net-(U3-PC0{slash}XTAL2)*%
X81162500Y-86310000D03*
%TO.P,R7,2*%
%TO.N,Net-(U3-XTAL1)*%
X81162500Y-78690000D03*
%TD*%
%TO.P,R11,1*%
%TO.N,unconnected-(R11-Pad1)*%
X130852500Y-73000000D03*
%TO.P,R11,2*%
%TO.N,unconnected-(R11-Pad2)*%
X138472500Y-73000000D03*
%TD*%
%TO.P,R22,1*%
%TO.N,Net-(D6-A)*%
X88162500Y-104000000D03*
%TO.P,R22,2*%
%TO.N,+5V*%
X80542500Y-104000000D03*
%TD*%
D21*
%TO.P,J8,1,Pin_1_1*%
%TO.N,Net-(J8-Pin_1)*%
X169960000Y-53000000D03*
D22*
%TO.P,J8,2,Pin_2_2*%
%TO.N,Net-(J8-Pin_2)*%
X172500000Y-53000000D03*
%TO.P,J8,3,Pin_3_3*%
%TO.N,Net-(J8-Pin_3)*%
X175040000Y-53000000D03*
%TO.P,J8,4,Pin_4_4*%
%TO.N,Net-(J8-Pin_4)*%
X177580000Y-53000000D03*
%TO.P,J8,5,Pin_5_5*%
%TO.N,Net-(J8-Pin_5)*%
X180120000Y-53000000D03*
%TO.P,J8,6,Pin_6_6*%
%TO.N,Net-(J8-Pin_6)*%
X182660000Y-53000000D03*
%TO.P,J8,7,Pin_7_7*%
%TO.N,Net-(J8-Pin_7)*%
X185200000Y-53000000D03*
%TO.P,J8,8,Pin_8_8*%
%TO.N,Net-(J8-Pin_8)*%
X187740000Y-53000000D03*
%TD*%
D16*
%TO.P,C11,1*%
%TO.N,+5V*%
X85662500Y-78062500D03*
%TO.P,C11,2*%
%TO.N,GNDD*%
X85662500Y-74937500D03*
%TD*%
D49*
%TO.P,C1,1*%
%TO.N,+5V*%
X117500000Y-99800000D03*
%TO.P,C1,2*%
%TO.N,GNDD*%
X117500000Y-91000000D03*
%TD*%
D17*
%TO.P,C4,1*%
%TO.N,GNDD*%
X69687500Y-102840000D03*
%TO.P,C4,2*%
%TO.N,unconnected-(C4-Pad2)*%
X69687500Y-105965000D03*
%TD*%
D50*
%TO.P,C3,1*%
%TO.N,Net-(D1-K)*%
X99562500Y-66300000D03*
%TO.P,C3,2*%
%TO.N,GNDD*%
X108362500Y-66300000D03*
%TD*%
D51*
%TO.P,D7,1,K_1*%
%TO.N,+5V*%
X122162500Y-86850000D03*
D20*
%TO.P,D7,2,A_2*%
%TO.N,Net-(D7-A)*%
X122162500Y-74150000D03*
%TD*%
D12*
%TO.P,R6,1*%
%TO.N,GNDD*%
X120282500Y-106000000D03*
%TO.P,R6,2*%
%TO.N,Net-(U3-~{HWB}{slash}PD7)*%
X112662500Y-106000000D03*
%TD*%
%TO.P,R10,1*%
%TO.N,+5V*%
X165152500Y-60800000D03*
%TO.P,R10,2*%
%TO.N,Net-(D3-A)*%
X172772500Y-60800000D03*
%TD*%
D52*
%TO.P,J7,1,VBUS_1*%
%TO.N,Net-(J7-VBUS)*%
X58960000Y-114200000D03*
%TO.P,J7,2,D-_2*%
%TO.N,Net-(J7-D-)*%
X58960000Y-114850000D03*
%TO.P,J7,3,D+_3*%
%TO.N,Net-(J7-D+)*%
X58960000Y-115500000D03*
%TO.P,J7,4,ID_4*%
%TO.N,GNDD*%
X58960000Y-116150000D03*
%TO.P,J7,5,GND_5*%
%TO.N,Net-(J7-GND)*%
X58960000Y-116800000D03*
D53*
%TO.P,J7,SH,Shield_SH*%
X56300000Y-112125000D03*
D54*
X58875000Y-113012500D03*
D55*
X56300000Y-114350000D03*
D56*
X56300000Y-117050000D03*
D54*
X58875000Y-117987500D03*
D53*
X56300000Y-118875000D03*
%TD*%
D12*
%TO.P,R2,1*%
%TO.N,Net-(U4A--)*%
X166842500Y-69300000D03*
%TO.P,R2,2*%
%TO.N,Net-(D2-A)*%
X174462500Y-69300000D03*
%TD*%
D57*
%TO.N,+5V*%
X88500000Y-82175000D03*
X82512500Y-76500010D03*
X95000000Y-75500000D03*
X149500000Y-90500000D03*
X93000000Y-75500000D03*
X155000000Y-63000000D03*
X163500000Y-102500000D03*
X152500000Y-95500000D03*
X159000000Y-61500000D03*
X72500000Y-95000000D03*
X72540870Y-97540870D03*
X144850000Y-64500000D03*
X178000000Y-99000000D03*
X183500000Y-58000000D03*
X130000000Y-64500000D03*
X89837500Y-78162500D03*
X97690870Y-83389892D03*
X71000000Y-87500000D03*
X74500000Y-84000000D03*
X79000000Y-79000000D03*
X101500000Y-83000000D03*
X157000000Y-62000000D03*
X88565687Y-79434313D03*
X165000000Y-59000000D03*
X100000000Y-85000000D03*
X125500000Y-65000000D03*
X189000000Y-57500000D03*
X173500000Y-96500000D03*
X175001889Y-106431158D03*
X186500000Y-59000000D03*
X150500000Y-87000000D03*
%TO.N,unconnected-(C8-Pad1)*%
X190000000Y-75500000D03*
X186000000Y-76000000D03*
%TO.N,Net-(J10-Pin_5)*%
X147000000Y-106000000D03*
X156500000Y-100000000D03*
%TO.N,Net-(J10-Pin_1)*%
X157500000Y-101000000D03*
X154500000Y-103500000D03*
%TO.N,Net-(J10-Pin_2)*%
X151000000Y-109500000D03*
X158500000Y-102000000D03*
%TO.N,Net-(J10-Pin_6)*%
X164000000Y-110000000D03*
X170000000Y-96500000D03*
%TO.N,Net-(J10-Pin_3)*%
X153500000Y-110000000D03*
X159500000Y-103500000D03*
%TO.N,Net-(J10-Pin_4)*%
X162500000Y-109500000D03*
X160000000Y-112000000D03*
X168500000Y-97500000D03*
X158000000Y-116000000D03*
%TO.N,GNDD*%
X173500000Y-103000000D03*
X149000000Y-91500000D03*
X149500000Y-86500000D03*
X118000000Y-96000000D03*
X187000000Y-87500000D03*
X108000000Y-77500000D03*
X115500000Y-66000000D03*
X127000000Y-62500000D03*
X183500000Y-84000000D03*
X175000000Y-105500000D03*
%TO.N,Net-(J4-Pin_8)*%
X118500000Y-119000000D03*
X169500000Y-105500000D03*
%TO.N,Net-(J4-Pin_7)*%
X170100000Y-106065687D03*
%TO.N,Net-(J4-Pin_6)*%
X171000000Y-106350000D03*
X114500000Y-121000000D03*
%TO.N,Net-(J4-Pin_5)*%
X149000000Y-77500000D03*
X162500000Y-64500000D03*
X160000000Y-65000000D03*
X154500000Y-99500000D03*
X151000000Y-75500000D03*
X158000000Y-65500000D03*
X151250000Y-100250000D03*
%TO.N,Net-(U2-XTAL2)*%
X168000000Y-107000000D03*
X63000000Y-86500000D03*
X66000000Y-85000000D03*
X72500000Y-83000000D03*
%TO.N,Net-(U2-XTAL1)*%
X64000000Y-92000000D03*
X71000000Y-99500000D03*
%TO.N,Net-(J9-Pin_3)*%
X180500000Y-106000000D03*
X181000000Y-110000000D03*
%TO.N,Net-(J8-Pin_5)*%
X182500000Y-69500000D03*
X182000000Y-88500000D03*
%TO.N,Net-(J8-Pin_4)*%
X180500000Y-87500000D03*
X182000000Y-71000000D03*
%TO.N,Net-(J11-Pin_8)*%
X162000000Y-66500000D03*
X178000000Y-86500000D03*
%TO.N,Net-(J11-Pin_7)*%
X163500000Y-69500000D03*
X158000000Y-57500000D03*
%TO.N,Net-(J11-Pin_6)*%
X159059618Y-68140379D03*
X171709620Y-86290380D03*
%TO.N,Net-(J11-Pin_5)*%
X159000000Y-69000000D03*
X170000000Y-85500000D03*
%TO.N,Net-(J11-Pin_4)*%
X156500000Y-72000000D03*
X169000000Y-85000000D03*
%TO.N,Net-(J11-Pin_3)*%
X158500000Y-71000000D03*
X174000000Y-90100000D03*
%TO.N,Net-(J11-Pin_1)*%
X172540870Y-90459130D03*
X159500000Y-80000000D03*
X151000000Y-77000000D03*
X146000000Y-66500000D03*
%TO.N,Net-(J7-D-)*%
X62400000Y-113500000D03*
X64500000Y-111000000D03*
%TO.N,Net-(U3-D-)*%
X65500000Y-87359557D03*
X91000000Y-79000000D03*
%TO.N,Net-(U3-XTAL1)*%
X88000000Y-80000000D03*
X83000000Y-81500000D03*
%TO.N,Net-(Q1-G)*%
X156500000Y-69000000D03*
X151000000Y-70000000D03*
X163500000Y-66500000D03*
X165500000Y-68000000D03*
X159000000Y-67000000D03*
X149000000Y-74000000D03*
%TO.N,Net-(D1-K)*%
X96500000Y-71000000D03*
X123500000Y-71500000D03*
%TO.N,Net-(J7-GND)*%
X61000000Y-111500000D03*
X61000000Y-113000000D03*
X63500000Y-115500000D03*
%TO.N,Net-(U4B-+)*%
X157000000Y-73500000D03*
X149000000Y-97500000D03*
%TO.N,Net-(J7-D+)*%
X96537500Y-112250000D03*
X60500000Y-115500000D03*
%TO.N,Net-(J12-Pin_1)*%
X103500000Y-84500000D03*
X94500000Y-86000000D03*
%TO.N,Net-(J12-Pin_3)*%
X96000000Y-87500000D03*
X102000000Y-81500000D03*
%TO.N,Net-(J12-Pin_4)*%
X100000000Y-82000000D03*
X94500000Y-87350000D03*
%TO.N,Net-(D7-A)*%
X116000000Y-72000000D03*
X117500000Y-77000000D03*
%TO.N,Net-(D1-A)*%
X71000000Y-74500000D03*
X73500000Y-71500000D03*
%TO.N,Net-(U3-D+)*%
X88500000Y-77000000D03*
X85500000Y-84500000D03*
X83500000Y-88500000D03*
X67500000Y-101500000D03*
%TO.N,Net-(J7-VBUS)*%
X62000000Y-112000000D03*
%TO.N,Net-(J6-Pin_4)*%
X97040870Y-83959130D03*
X97000000Y-82000000D03*
%TO.N,Net-(D5-K)*%
X91500000Y-88500000D03*
X89000000Y-88500000D03*
X87500000Y-89500000D03*
X84500000Y-89500000D03*
%TO.N,Net-(U3-UCAP)*%
X87000000Y-73500000D03*
X91500000Y-75500000D03*
%TD*%
%TO.N,Net-(U3-PD2)*%
D58*
X86162500Y-92190000D02*
X86162500Y-87650000D01*
X86162500Y-87650000D02*
X89637500Y-84175000D01*
%TO.N,+5V*%
X183742190Y-98257810D02*
X186484380Y-101000000D01*
X183662500Y-98178120D02*
X183742190Y-98257810D01*
X145525000Y-78050000D02*
X148300000Y-80825000D01*
D59*
X191500000Y-104405090D02*
X188797455Y-101702545D01*
D58*
X121462500Y-68450000D02*
X121462500Y-67850000D01*
X93000000Y-75500000D02*
X95000000Y-75500000D01*
D59*
X191500000Y-106380000D02*
X191500000Y-104405090D01*
D58*
X173662500Y-96337500D02*
X173662500Y-92337500D01*
X74500000Y-83225000D02*
X74500000Y-84000000D01*
X141667500Y-64500000D02*
X141137500Y-63970000D01*
X72540870Y-97540870D02*
X74746630Y-97540870D01*
D59*
X194000000Y-89500000D02*
X194000000Y-92000000D01*
D58*
X80542500Y-97457500D02*
X80542500Y-104000000D01*
X175001889Y-106431158D02*
X175771778Y-106431158D01*
X165000000Y-60647500D02*
X165152500Y-60800000D01*
X110500000Y-82000000D02*
X121462500Y-71037500D01*
X130530000Y-63970000D02*
X134837500Y-63970000D01*
X178821880Y-98178120D02*
X183662500Y-98178120D01*
X111042500Y-82000000D02*
X110500000Y-82000000D01*
X80662500Y-97125000D02*
X80662500Y-97337500D01*
X121462500Y-62150000D02*
X123840000Y-59772500D01*
X85662500Y-78062500D02*
X84100000Y-76500000D01*
X70042500Y-93620000D02*
X69662500Y-94000000D01*
X143950000Y-78050000D02*
X145525000Y-78050000D01*
X121462500Y-71037500D02*
X121462500Y-68450000D01*
X77225000Y-80500000D02*
X74500000Y-83225000D01*
X183500000Y-59527500D02*
X183500000Y-58000000D01*
X80662500Y-97337500D02*
X80542500Y-97457500D01*
X144850000Y-64500000D02*
X143500000Y-65850000D01*
D59*
X131460000Y-53500000D02*
X130310000Y-54650000D01*
D58*
X173500000Y-96500000D02*
X173662500Y-96337500D01*
X167500000Y-98500000D02*
X172000000Y-98500000D01*
X85725000Y-78000000D02*
X88362500Y-78000000D01*
X163500000Y-102500000D02*
X167500000Y-98500000D01*
X165152500Y-60800000D02*
X159700000Y-60800000D01*
X149650000Y-90650000D02*
X152500000Y-90650000D01*
X123840000Y-59772500D02*
X123840000Y-53500000D01*
X185462500Y-61490000D02*
X183500000Y-59527500D01*
D59*
X195960000Y-118240000D02*
X193500000Y-115780000D01*
D58*
X115892500Y-86850000D02*
X113662500Y-84620000D01*
X90337500Y-79975000D02*
X89106374Y-79975000D01*
D59*
X191500000Y-94500000D02*
X189500000Y-96500000D01*
D58*
X173500000Y-96500000D02*
X173500000Y-97840620D01*
D59*
X124990000Y-54650000D02*
X123840000Y-53500000D01*
D58*
X88500000Y-82175000D02*
X89637500Y-82175000D01*
X84100000Y-76500000D02*
X82512510Y-76500000D01*
X149050000Y-84550000D02*
X150500000Y-86000000D01*
X178000000Y-99000000D02*
X178821880Y-98178120D01*
X149500000Y-90500000D02*
X149650000Y-90650000D01*
X122162500Y-86850000D02*
X115892500Y-86850000D01*
D59*
X193500000Y-108380000D02*
X191500000Y-106380000D01*
D58*
X130000000Y-64500000D02*
X130530000Y-63970000D01*
D59*
X130310000Y-54650000D02*
X124990000Y-54650000D01*
D58*
X88362500Y-78000000D02*
X90337500Y-79975000D01*
X189000000Y-58800000D02*
X190000000Y-59800000D01*
X69662500Y-94000000D02*
X71500000Y-94000000D01*
X143500000Y-65850000D02*
X143500000Y-78500000D01*
X121462500Y-67850000D02*
X124312500Y-65000000D01*
D59*
X193500000Y-115780000D02*
X193500000Y-108380000D01*
D58*
X71500000Y-94000000D02*
X72500000Y-95000000D01*
D59*
X188797455Y-101702545D02*
X188094910Y-101000000D01*
D58*
X152500000Y-95500000D02*
X152500000Y-90650000D01*
X71000000Y-90042500D02*
X70042500Y-91000000D01*
X156000000Y-62000000D02*
X155000000Y-63000000D01*
X102500000Y-82000000D02*
X101500000Y-83000000D01*
X121462500Y-62150000D02*
X124312500Y-65000000D01*
X148300000Y-80825000D02*
X148300000Y-84550000D01*
X143500000Y-78500000D02*
X143950000Y-78050000D01*
X71000000Y-87500000D02*
X71000000Y-90042500D01*
X124312500Y-65000000D02*
X125500000Y-65000000D01*
X144850000Y-64500000D02*
X141667500Y-64500000D01*
X157000000Y-62000000D02*
X156000000Y-62000000D01*
X75162500Y-97125000D02*
X80662500Y-97125000D01*
D59*
X194000000Y-92000000D02*
X191500000Y-94500000D01*
D58*
X115892500Y-86850000D02*
X115892500Y-98192500D01*
X148300000Y-84550000D02*
X149050000Y-84550000D01*
X82512510Y-76500000D02*
X82512500Y-76500010D01*
X89106374Y-79975000D02*
X88565687Y-79434313D01*
X183662500Y-92337500D02*
X183662500Y-98178120D01*
X150500000Y-86000000D02*
X150500000Y-87000000D01*
X134837500Y-63970000D02*
X141137500Y-63970000D01*
X172840620Y-98500000D02*
X172000000Y-98500000D01*
X175771778Y-106431158D02*
X176162500Y-106821880D01*
X186500000Y-60452500D02*
X185462500Y-61490000D01*
X79000000Y-79000000D02*
X78725000Y-79000000D01*
X100000000Y-85000000D02*
X99300978Y-85000000D01*
D59*
X128920000Y-53500000D02*
X131460000Y-53500000D01*
D58*
X110500000Y-82000000D02*
X103662500Y-82000000D01*
X113662500Y-84620000D02*
X111042500Y-82000000D01*
X159700000Y-60800000D02*
X159000000Y-61500000D01*
X103662500Y-82000000D02*
X102500000Y-82000000D01*
X89837500Y-78162500D02*
X90337500Y-78662500D01*
X90337500Y-78662500D02*
X90337500Y-79975000D01*
X186484380Y-101000000D02*
X187325000Y-101000000D01*
X165000000Y-59000000D02*
X165000000Y-60647500D01*
D59*
X189500000Y-101000000D02*
X188797455Y-101702545D01*
D58*
X85662500Y-78062500D02*
X85725000Y-78000000D01*
X173500000Y-97840620D02*
X172840620Y-98500000D01*
X70042500Y-91000000D02*
X70042500Y-93620000D01*
X152500000Y-90650000D02*
X148300000Y-86450000D01*
D59*
X188094910Y-101000000D02*
X187325000Y-101000000D01*
D58*
X186500000Y-59000000D02*
X186500000Y-60452500D01*
X74746630Y-97540870D02*
X75162500Y-97125000D01*
D59*
X189500000Y-96500000D02*
X189500000Y-101000000D01*
X192000000Y-87500000D02*
X194000000Y-89500000D01*
D58*
X78725000Y-79000000D02*
X77225000Y-80500000D01*
X189000000Y-57500000D02*
X189000000Y-58800000D01*
X176162500Y-106821880D02*
X176162500Y-107662500D01*
D59*
X195960000Y-118240000D02*
X201000000Y-118240000D01*
D58*
X115892500Y-98192500D02*
X117500000Y-99800000D01*
X99300978Y-85000000D02*
X97690870Y-83389892D01*
%TO.N,unconnected-(C8-Pad1)*%
X183725000Y-78500000D02*
X186000000Y-76225000D01*
X186000000Y-76225000D02*
X186000000Y-76000000D01*
X185462500Y-69110000D02*
X187150000Y-70797500D01*
X190000000Y-75500000D02*
X190112500Y-75500000D01*
X187150000Y-70797500D02*
X187150000Y-74850000D01*
D59*
X190000000Y-72500000D02*
X190000000Y-75500000D01*
D58*
X187150000Y-74850000D02*
X186000000Y-76000000D01*
%TO.N,Net-(J10-Pin_5)*%
D59*
X172000000Y-94000000D02*
X162500000Y-94000000D01*
X147950000Y-121500000D02*
X157500000Y-121500000D01*
X162500000Y-94000000D02*
X156500000Y-100000000D01*
X157920000Y-120580000D02*
X157920000Y-119000000D01*
X146610000Y-120160000D02*
X147950000Y-121500000D01*
X147000000Y-106000000D02*
X146610000Y-106390000D01*
X157500000Y-121500000D02*
X157500000Y-121000000D01*
X146610000Y-106390000D02*
X146610000Y-120160000D01*
X157500000Y-121000000D02*
X157920000Y-120580000D01*
%TO.N,Net-(J10-Pin_1)*%
X147760000Y-110240000D02*
X154500000Y-103500000D01*
X164000000Y-94500000D02*
X172000000Y-94500000D01*
X157500000Y-101000000D02*
X164000000Y-94500000D01*
X147760000Y-119000000D02*
X147760000Y-110240000D01*
%TO.N,Net-(J10-Pin_2)*%
X150300000Y-110200000D02*
X150300000Y-119000000D01*
X151000000Y-109500000D02*
X150300000Y-110200000D01*
X165500000Y-95000000D02*
X158500000Y-102000000D01*
X172000000Y-95000000D02*
X165500000Y-95000000D01*
%TO.N,Net-(J10-Pin_6)*%
X170000000Y-96500000D02*
X170500000Y-96000000D01*
X170500000Y-96000000D02*
X172000000Y-96000000D01*
X160460000Y-113540000D02*
X164000000Y-110000000D01*
X160460000Y-119000000D02*
X160460000Y-113540000D01*
%TO.N,Net-(J10-Pin_3)*%
X153500000Y-111000000D02*
X152840000Y-111660000D01*
X172000000Y-96500000D02*
X170848529Y-96500000D01*
X170848529Y-96500000D02*
X170248529Y-97100000D01*
X169751471Y-97100000D02*
X169151471Y-96500000D01*
X152840000Y-111660000D02*
X152840000Y-119000000D01*
X169151471Y-96500000D02*
X166500000Y-96500000D01*
X170248529Y-97100000D02*
X169751471Y-97100000D01*
X153500000Y-110000000D02*
X153500000Y-111000000D01*
X166500000Y-96500000D02*
X159500000Y-103500000D01*
%TO.N,Net-(J10-Pin_4)*%
X155380000Y-119000000D02*
X158000000Y-116380000D01*
X170730090Y-97500000D02*
X171230090Y-97000000D01*
X158000000Y-116380000D02*
X158000000Y-116000000D01*
X171230090Y-97000000D02*
X172000000Y-97000000D01*
X168500000Y-97500000D02*
X170730090Y-97500000D01*
X160000000Y-112000000D02*
X162500000Y-109500000D01*
%TO.N,GNDD*%
D58*
X180600000Y-70600000D02*
X180600000Y-78500000D01*
X117500000Y-91000000D02*
X120282500Y-93782500D01*
X148962499Y-85500000D02*
X149500000Y-86037501D01*
X187325000Y-100500000D02*
X188165620Y-100500000D01*
X149500000Y-86037501D02*
X149500000Y-86500000D01*
X76662500Y-72937500D02*
X71737500Y-72937500D01*
D59*
X63615000Y-113620000D02*
X64235000Y-113000000D01*
D58*
X92362500Y-79742893D02*
X92362500Y-79257798D01*
X115500000Y-66000000D02*
X117950000Y-68450000D01*
X108000000Y-77500000D02*
X107500000Y-78000000D01*
X89850000Y-74937500D02*
X85662500Y-74937500D01*
X120282500Y-93782500D02*
X120282500Y-106000000D01*
X65550000Y-112950000D02*
X65500000Y-113000000D01*
X141662500Y-100975000D02*
X149087500Y-93550000D01*
X80662500Y-72937500D02*
X76662500Y-72937500D01*
X71737500Y-72937500D02*
X71737500Y-73237500D01*
X73437500Y-92275000D02*
X75162500Y-94000000D01*
X179725000Y-69300000D02*
X179725000Y-69725000D01*
X69662500Y-97125000D02*
X69662500Y-102815000D01*
X174162500Y-92337500D02*
X174162500Y-93178120D01*
D59*
X58960000Y-116150000D02*
X61415686Y-116150000D01*
D58*
X58087500Y-62412500D02*
X62500000Y-66825000D01*
X92337500Y-79975000D02*
X92337500Y-80460096D01*
X89956250Y-75043750D02*
X89850000Y-74937500D01*
X129852500Y-106000000D02*
X120282500Y-106000000D01*
X69687500Y-102840000D02*
X65550000Y-106977500D01*
X65550000Y-106977500D02*
X65550000Y-112950000D01*
X179675000Y-69250000D02*
X179725000Y-69300000D01*
X178484380Y-97500000D02*
X179000000Y-97500000D01*
X185500000Y-89000000D02*
X186000000Y-89000000D01*
X99462500Y-73800000D02*
X100862500Y-73800000D01*
X183500000Y-84000000D02*
X180600000Y-81100000D01*
X134837500Y-61690000D02*
X127810000Y-61690000D01*
X67662500Y-81000000D02*
X73600000Y-81000000D01*
X110512500Y-68450000D02*
X108362500Y-66300000D01*
X92337500Y-79767893D02*
X92362500Y-79742893D01*
X183162500Y-92337500D02*
X183162500Y-91337500D01*
X92337500Y-80460096D02*
X91122596Y-81675000D01*
X93587500Y-78725000D02*
X93612500Y-78700000D01*
X134662500Y-101190000D02*
X135410000Y-101937500D01*
D59*
X176394910Y-108700000D02*
X176662500Y-108432410D01*
D58*
X68800000Y-70000000D02*
X62500000Y-70000000D01*
X96312500Y-72500000D02*
X96312500Y-73800000D01*
X92362500Y-79257798D02*
X92895298Y-78725000D01*
X71737500Y-73237500D02*
X74100000Y-75600000D01*
X176500000Y-105500000D02*
X176662500Y-105662500D01*
X118000000Y-91500000D02*
X118000000Y-96000000D01*
X173500000Y-99452273D02*
X173500000Y-103000000D01*
X62500000Y-66825000D02*
X62500000Y-70000000D01*
X180600000Y-81100000D02*
X180600000Y-78500000D01*
X83925000Y-73200000D02*
X83925000Y-71300000D01*
X93612500Y-78700000D02*
X89956250Y-75043750D01*
X188165620Y-100500000D02*
X188500000Y-100165620D01*
X188500000Y-100165620D02*
X188500000Y-92000000D01*
X85662500Y-74937500D02*
X83925000Y-73200000D01*
X176662500Y-105662500D02*
X176662500Y-107662500D01*
X179675000Y-60800000D02*
X179675000Y-69250000D01*
X188500000Y-92000000D02*
X188500000Y-91500000D01*
X149000000Y-91500000D02*
X149000000Y-93462500D01*
X174162500Y-92337500D02*
X174162500Y-97885227D01*
X91122596Y-81675000D02*
X89637500Y-81675000D01*
D59*
X192000000Y-91500000D02*
X188500000Y-91500000D01*
X63615000Y-113950686D02*
X63615000Y-113620000D01*
D58*
X117950000Y-68450000D02*
X119162500Y-68450000D01*
D59*
X61415686Y-116150000D02*
X63615000Y-113950686D01*
D58*
X70437500Y-115500000D02*
X71937500Y-117000000D01*
X141662500Y-101937500D02*
X141662500Y-100975000D01*
X92337500Y-79975000D02*
X92337500Y-79767893D01*
X82300000Y-71300000D02*
X80662500Y-72937500D01*
X127810000Y-61690000D02*
X127000000Y-62500000D01*
X185500000Y-89000000D02*
X187000000Y-87500000D01*
D59*
X92287500Y-72500000D02*
X89956250Y-74831250D01*
D58*
X75162500Y-94000000D02*
X80662500Y-94000000D01*
X148300000Y-85500000D02*
X148962499Y-85500000D01*
X134662500Y-101190000D02*
X129852500Y-106000000D01*
X179725000Y-69725000D02*
X180600000Y-70600000D01*
X107500000Y-78000000D02*
X103662500Y-78000000D01*
X134837500Y-61690000D02*
X134000000Y-60852500D01*
D59*
X162129046Y-108700000D02*
X176394910Y-108700000D01*
D58*
X183162500Y-93337500D02*
X183162500Y-92337500D01*
X74100000Y-80500000D02*
X73437500Y-81162500D01*
X134000000Y-60852500D02*
X134000000Y-53500000D01*
X68000000Y-115500000D02*
X70437500Y-115500000D01*
X99462500Y-73800000D02*
X103662500Y-78000000D01*
X179000000Y-97500000D02*
X183162500Y-93337500D01*
X149000000Y-93462500D02*
X149087500Y-93550000D01*
X149087500Y-93550000D02*
X149087500Y-95658454D01*
X58087500Y-57135000D02*
X58087500Y-62412500D01*
X173047727Y-99000000D02*
X173500000Y-99452273D01*
X69662500Y-102815000D02*
X69687500Y-102840000D01*
X96312500Y-73800000D02*
X99462500Y-73800000D01*
X72037500Y-97125000D02*
X75162500Y-94000000D01*
X58087500Y-55865000D02*
X58087500Y-57135000D01*
X74100000Y-75600000D02*
X74100000Y-80500000D01*
X83925000Y-71300000D02*
X82300000Y-71300000D01*
X69662500Y-97125000D02*
X72037500Y-97125000D01*
X183162500Y-91337500D02*
X185500000Y-89000000D01*
X175000000Y-105500000D02*
X176500000Y-105500000D01*
X65500000Y-113000000D02*
X68000000Y-115500000D01*
D59*
X92287500Y-72500000D02*
X96312500Y-72500000D01*
X89956250Y-74831250D02*
X89956250Y-75043750D01*
D58*
X174162500Y-93178120D02*
X178484380Y-97500000D01*
X173047727Y-99000000D02*
X172000000Y-99000000D01*
X73600000Y-81000000D02*
X74100000Y-80500000D01*
X64235000Y-113000000D02*
X65500000Y-113000000D01*
X134000000Y-53500000D02*
X136540000Y-53500000D01*
X117500000Y-91000000D02*
X118000000Y-91500000D01*
X92895298Y-78725000D02*
X93587500Y-78725000D01*
X149087500Y-95658454D02*
X162129046Y-108700000D01*
X64235000Y-113000000D02*
X64000000Y-113000000D01*
D59*
X176662500Y-108432410D02*
X176662500Y-107662500D01*
D58*
X135410000Y-101937500D02*
X141662500Y-101937500D01*
X174162500Y-97885227D02*
X173047727Y-99000000D01*
X100862500Y-73800000D02*
X108362500Y-66300000D01*
X71737500Y-72937500D02*
X68800000Y-70000000D01*
X188500000Y-91500000D02*
X186000000Y-89000000D01*
X119162500Y-68450000D02*
X110512500Y-68450000D01*
X73437500Y-81162500D02*
X73437500Y-92275000D01*
%TO.N,Net-(J4-Pin_8)*%
D59*
X169500000Y-105500000D02*
X170000000Y-105000000D01*
X170000000Y-105000000D02*
X172000000Y-105000000D01*
X125260000Y-119000000D02*
X118500000Y-119000000D01*
%TO.N,Net-(J4-Pin_7)*%
X172000000Y-105500000D02*
X170665687Y-105500000D01*
X170665687Y-105500000D02*
X170100000Y-106065687D01*
%TO.N,Net-(J4-Pin_6)*%
X116500000Y-115000000D02*
X115000000Y-116500000D01*
X130340000Y-119000000D02*
X130340000Y-115340000D01*
X171350000Y-106000000D02*
X172000000Y-106000000D01*
X130340000Y-115340000D02*
X130000000Y-115000000D01*
X171000000Y-106350000D02*
X171350000Y-106000000D01*
X115000000Y-116500000D02*
X115000000Y-120500000D01*
X115000000Y-120500000D02*
X114500000Y-121000000D01*
X130000000Y-115000000D02*
X116500000Y-115000000D01*
%TO.N,Net-(J4-Pin_5)*%
D58*
X154500000Y-99500000D02*
X162662500Y-107662500D01*
X162662500Y-107662500D02*
X173662500Y-107662500D01*
X149000000Y-77500000D02*
X151000000Y-75500000D01*
X162500000Y-64500000D02*
X163500000Y-65500000D01*
D59*
X151000000Y-101380000D02*
X150500000Y-101380000D01*
D58*
X159500000Y-65500000D02*
X160000000Y-65000000D01*
D59*
X151250000Y-100250000D02*
X151000000Y-100500000D01*
X151000000Y-100500000D02*
X151000000Y-101380000D01*
D58*
X158000000Y-65500000D02*
X159500000Y-65500000D01*
D59*
X150500000Y-101380000D02*
X132880000Y-119000000D01*
D58*
X163500000Y-65500000D02*
X164605000Y-65500000D01*
%TO.N,Net-(U2-XTAL2)*%
X173409380Y-105006240D02*
X177500000Y-100915620D01*
X72000000Y-83500000D02*
X72500000Y-83000000D01*
X177500000Y-100915620D02*
X177500000Y-106484380D01*
X177162500Y-106821880D02*
X177162500Y-107662500D01*
X67662500Y-83500000D02*
X72000000Y-83500000D01*
X62162500Y-85662500D02*
X63000000Y-86500000D01*
X168000000Y-107000000D02*
X172984380Y-107000000D01*
X66162500Y-85000000D02*
X67662500Y-83500000D01*
X172984380Y-107000000D02*
X173409380Y-106575000D01*
X66000000Y-85000000D02*
X66162500Y-85000000D01*
X173409380Y-106575000D02*
X173409380Y-105006240D01*
X177500000Y-106484380D02*
X177162500Y-106821880D01*
X62162500Y-84620000D02*
X62162500Y-85662500D01*
%TO.N,Net-(U2-XTAL1)*%
X66162500Y-77000000D02*
X67662500Y-78500000D01*
X65662500Y-80500000D02*
X67662500Y-78500000D01*
X71000000Y-101784544D02*
X71000000Y-99500000D01*
X177662500Y-107662500D02*
X177662500Y-108503120D01*
X177662500Y-108503120D02*
X167500000Y-118665620D01*
X64000000Y-92000000D02*
X64000000Y-80500000D01*
X167500000Y-122000000D02*
X110500000Y-122000000D01*
X62162500Y-77000000D02*
X66162500Y-77000000D01*
X104500000Y-116000000D02*
X104500000Y-107000000D01*
X167500000Y-118665620D02*
X167500000Y-122000000D01*
X76215456Y-107000000D02*
X71000000Y-101784544D01*
X110500000Y-122000000D02*
X104500000Y-116000000D01*
X64000000Y-80500000D02*
X65662500Y-80500000D01*
X104500000Y-107000000D02*
X76215456Y-107000000D01*
%TO.N,Net-(J9-Pin_1)*%
X182162500Y-107662500D02*
X182162500Y-112502500D01*
X182162500Y-112502500D02*
X188160000Y-118500000D01*
%TO.N,Net-(J9-Pin_2)*%
D59*
X185620000Y-118500000D02*
X187120000Y-120000000D01*
X182662500Y-108662500D02*
X191000000Y-117000000D01*
X187120000Y-120000000D02*
X191000000Y-120000000D01*
X182662500Y-107662500D02*
X182662500Y-108662500D01*
X191000000Y-120000000D02*
X191000000Y-117000000D01*
%TO.N,Net-(J9-Pin_3)*%
X182269910Y-106000000D02*
X180500000Y-106000000D01*
X183162500Y-106892590D02*
X182269910Y-106000000D01*
X183162500Y-107662500D02*
X183162500Y-106892590D01*
X181000000Y-116420000D02*
X183080000Y-118500000D01*
X181000000Y-110000000D02*
X181000000Y-116420000D01*
%TO.N,Net-(J9-Pin_4)*%
X183662500Y-108432410D02*
X183662500Y-107662500D01*
X183930090Y-108700000D02*
X183662500Y-108432410D01*
X191500000Y-121000000D02*
X193500000Y-119000000D01*
X193500000Y-119000000D02*
X193500000Y-117500000D01*
X193500000Y-117500000D02*
X184700000Y-108700000D01*
X183040000Y-121000000D02*
X191500000Y-121000000D01*
X180540000Y-118500000D02*
X183040000Y-121000000D01*
X184700000Y-108700000D02*
X183930090Y-108700000D01*
%TO.N,Net-(J8-Pin_8)*%
D58*
X193500000Y-75500000D02*
X193500000Y-53292893D01*
X193207107Y-53000000D02*
X187740000Y-53000000D01*
X188000000Y-81000000D02*
X193500000Y-75500000D01*
X188000000Y-83914212D02*
X188000000Y-81000000D01*
X182662500Y-90251712D02*
X184500000Y-88414212D01*
X193500000Y-53292893D02*
X193207107Y-53000000D01*
X184500000Y-88414212D02*
X184500000Y-87414212D01*
X184500000Y-87414212D02*
X188000000Y-83914212D01*
X182662500Y-92337500D02*
X182662500Y-90251712D01*
%TO.N,Net-(J8-Pin_7)*%
X184000000Y-87207106D02*
X184000000Y-88207106D01*
X189094544Y-61050000D02*
X189550000Y-61050000D01*
X187500000Y-80000000D02*
X187500000Y-83707106D01*
X192500000Y-75000000D02*
X187500000Y-80000000D01*
X186702500Y-56000000D02*
X187207107Y-56000000D01*
X186702500Y-54502500D02*
X186702500Y-56000000D01*
X187500000Y-56292893D02*
X187500000Y-58373654D01*
X187500000Y-83707106D02*
X184000000Y-87207106D01*
X182162500Y-90044606D02*
X182162500Y-92337500D01*
X188750000Y-60250000D02*
X188750000Y-60705456D01*
X185200000Y-53000000D02*
X186702500Y-54502500D01*
X187207107Y-56000000D02*
X187500000Y-56292893D01*
X188750000Y-60705456D02*
X189094544Y-61050000D01*
X189550000Y-61050000D02*
X192500000Y-64000000D01*
X187650000Y-59150000D02*
X188750000Y-60250000D01*
X187500000Y-58373654D02*
X187650000Y-58523655D01*
X187650000Y-58523655D02*
X187650000Y-59150000D01*
X192500000Y-64000000D02*
X192500000Y-75000000D01*
X184000000Y-88207106D02*
X182162500Y-90044606D01*
%TO.N,Net-(J8-Pin_6)*%
X187000000Y-59419239D02*
X187150000Y-59269239D01*
X187000000Y-75707106D02*
X187650000Y-75057106D01*
X187000000Y-83500000D02*
X187000000Y-75707106D01*
X187150000Y-58730761D02*
X187000000Y-58580761D01*
X183500000Y-88000000D02*
X183500000Y-87000000D01*
X181662500Y-92337500D02*
X181662500Y-89837500D01*
X186160000Y-56500000D02*
X182660000Y-53000000D01*
X187000000Y-58580761D02*
X187000000Y-56500000D01*
X187650000Y-70590393D02*
X187000000Y-69940394D01*
X181662500Y-89837500D02*
X183500000Y-88000000D01*
X187000000Y-69940394D02*
X187000000Y-59419239D01*
X187150000Y-59269239D02*
X187150000Y-58730761D01*
X187000000Y-56500000D02*
X186160000Y-56500000D01*
X183500000Y-87000000D02*
X187000000Y-83500000D01*
X187650000Y-75057106D02*
X187650000Y-70590393D01*
%TO.N,Net-(J8-Pin_5)*%
X182500000Y-69500000D02*
X182500000Y-55380000D01*
X182000000Y-88500000D02*
X181162500Y-89337500D01*
X182500000Y-55380000D02*
X180120000Y-53000000D01*
X181162500Y-89337500D02*
X181162500Y-92337500D01*
%TO.N,Net-(J8-Pin_4)*%
X181500000Y-56030393D02*
X180207107Y-54737500D01*
X181500000Y-70500000D02*
X182000000Y-71000000D01*
X180662500Y-87662500D02*
X180662500Y-92337500D01*
X179317500Y-54737500D02*
X177580000Y-53000000D01*
X180500000Y-87500000D02*
X180662500Y-87662500D01*
X180207107Y-54737500D02*
X179317500Y-54737500D01*
X181500000Y-70500000D02*
X181500000Y-56030393D01*
%TO.N,Net-(J8-Pin_3)*%
X179000000Y-57000000D02*
X179000000Y-56960000D01*
X179817894Y-70525000D02*
X180000000Y-70707106D01*
X178957044Y-59575000D02*
X178612500Y-59919544D01*
X179932044Y-76800000D02*
X179587500Y-77144544D01*
X179587500Y-79855456D02*
X179932044Y-80200000D01*
X181000000Y-82207106D02*
X181000000Y-86080761D01*
X180100000Y-81307107D02*
X181000000Y-82207106D01*
X178662500Y-70180456D02*
X179007044Y-70525000D01*
X179850000Y-87769239D02*
X180162500Y-88081739D01*
X180000000Y-76800000D02*
X179932044Y-76800000D01*
X179007044Y-68075000D02*
X178662500Y-68419544D01*
X179587500Y-77144544D02*
X179587500Y-79855456D01*
X178612500Y-61680456D02*
X178957044Y-62025000D01*
X178612500Y-59919544D02*
X178612500Y-61680456D01*
X178957044Y-62025000D02*
X179175000Y-62025000D01*
X179175000Y-68075000D02*
X179007044Y-68075000D01*
X179000000Y-56960000D02*
X175040000Y-53000000D01*
X180100000Y-80200000D02*
X180100000Y-81307107D01*
X180000000Y-58000000D02*
X180000000Y-59575000D01*
X179007044Y-70525000D02*
X179817894Y-70525000D01*
X179175000Y-62025000D02*
X179175000Y-68075000D01*
X179850000Y-87230761D02*
X179850000Y-87769239D01*
X179932044Y-80200000D02*
X180100000Y-80200000D01*
X179000000Y-57000000D02*
X180000000Y-58000000D01*
X180162500Y-88081739D02*
X180162500Y-92337500D01*
X181000000Y-86080761D02*
X179850000Y-87230761D01*
X178662500Y-68419544D02*
X178662500Y-70180456D01*
X180000000Y-59575000D02*
X178957044Y-59575000D01*
X180000000Y-70707106D02*
X180000000Y-76800000D01*
%TO.N,Net-(J8-Pin_2)*%
X178162500Y-68212438D02*
X178162500Y-70387563D01*
X178412469Y-59412469D02*
X178412469Y-58912469D01*
X178412469Y-59412469D02*
X178112500Y-59712438D01*
X179087500Y-76937438D02*
X179087500Y-80062563D01*
X179662500Y-88288845D02*
X179662500Y-92337500D01*
X178675000Y-62450062D02*
X178675000Y-67699938D01*
X179350000Y-87023655D02*
X179350000Y-87976346D01*
X179500000Y-71025000D02*
X179500000Y-76524938D01*
X179500000Y-86873654D02*
X179350000Y-87023655D01*
X178112500Y-59712438D02*
X178112500Y-61887563D01*
X179350000Y-87976346D02*
X179662500Y-88288845D01*
X178162500Y-70387563D02*
X178799938Y-71025000D01*
X179500000Y-76524938D02*
X179087500Y-76937438D01*
X178412469Y-58912469D02*
X172500000Y-53000000D01*
X178799938Y-71025000D02*
X179500000Y-71025000D01*
X178112500Y-61887563D02*
X178675000Y-62450062D01*
X179087500Y-80062563D02*
X179500000Y-80475062D01*
X178675000Y-67699938D02*
X178162500Y-68212438D01*
X179500000Y-80475062D02*
X179500000Y-86873654D01*
%TO.N,Net-(J8-Pin_1)*%
X168000000Y-57000000D02*
X168000000Y-58000000D01*
X178850000Y-88183453D02*
X179162500Y-88495952D01*
X179000000Y-82500000D02*
X179000000Y-86666548D01*
X178849999Y-86816550D02*
X178850000Y-88183453D01*
X179162500Y-88495952D02*
X179162500Y-92337500D01*
X173412500Y-63412500D02*
X173412500Y-76912500D01*
X173412500Y-76912500D02*
X179000000Y-82500000D01*
X168000000Y-58000000D02*
X173412500Y-63412500D01*
X169960000Y-55040000D02*
X168000000Y-57000000D01*
X169960000Y-53000000D02*
X169960000Y-55040000D01*
X179000000Y-86666548D02*
X178849999Y-86816550D01*
%TO.N,Net-(J11-Pin_8)*%
X178150001Y-88614469D02*
X178662500Y-89126968D01*
X162000000Y-66000000D02*
X158350000Y-62350000D01*
X158350000Y-62350000D02*
X158350000Y-58730000D01*
X178000000Y-86500000D02*
X178150001Y-86650001D01*
X162000000Y-66000000D02*
X162000000Y-66500000D01*
X158350000Y-58730000D02*
X164080000Y-53000000D01*
X178150001Y-86650001D02*
X178150001Y-88614469D01*
X178662500Y-89126968D02*
X178662500Y-92337500D01*
%TO.N,Net-(J11-Pin_7)*%
X174442887Y-87942887D02*
X172500000Y-86000000D01*
X172500000Y-78500000D02*
X163500000Y-69500000D01*
X178162500Y-92337500D02*
X178162500Y-89334075D01*
X178162500Y-89334075D02*
X177650000Y-88821576D01*
X174800006Y-87942887D02*
X174442887Y-87942887D01*
X172500000Y-86000000D02*
X172500000Y-78500000D01*
X177650000Y-88609442D02*
X177040557Y-88000000D01*
X177040557Y-88000000D02*
X176828425Y-88000000D01*
X176828425Y-88000000D02*
X176771320Y-87942895D01*
X177650000Y-88821576D02*
X177650000Y-88609442D01*
X176771320Y-87942895D02*
X174800014Y-87942895D01*
X158000000Y-57500000D02*
X158000000Y-56540000D01*
X174800014Y-87942895D02*
X174800006Y-87942887D01*
X158000000Y-56540000D02*
X161540000Y-53000000D01*
%TO.N,Net-(J11-Pin_6)*%
X159059618Y-67650000D02*
X158730761Y-67650000D01*
X157730761Y-66150000D02*
X157350000Y-65769239D01*
X157350000Y-65350000D02*
X155459619Y-63459619D01*
X158730761Y-67650000D02*
X158350000Y-67269239D01*
X155269239Y-63650000D02*
X154730761Y-63650000D01*
X174592900Y-88442892D02*
X174800007Y-88442895D01*
X158150000Y-66150000D02*
X157730761Y-66150000D01*
X154350000Y-63269239D02*
X154350000Y-62730761D01*
X158350000Y-67269239D02*
X158350000Y-66730761D01*
X177662500Y-89541182D02*
X177662500Y-92337500D01*
X174585787Y-88450000D02*
X174592892Y-88442895D01*
X155459619Y-63459619D02*
X155269239Y-63650000D01*
X171709620Y-86290380D02*
X173869240Y-88450000D01*
X176564213Y-88442895D02*
X176621319Y-88500000D01*
X176833451Y-88500000D02*
X177150000Y-88816549D01*
X174592892Y-88442895D02*
X174592900Y-88442892D01*
X176621319Y-88500000D02*
X176833451Y-88500000D01*
X173869240Y-88450000D02*
X174585787Y-88450000D01*
X177150000Y-88816549D02*
X177150000Y-89028682D01*
X157350000Y-65769239D02*
X157350000Y-65350000D01*
X177150000Y-89028682D02*
X177662500Y-89541182D01*
X158350000Y-66730761D02*
X158540380Y-66540380D01*
D59*
X159000000Y-53000000D02*
X153000000Y-59000000D01*
D58*
X159059618Y-68140379D02*
X159059618Y-67650000D01*
X158540380Y-66540380D02*
X158150000Y-66150000D01*
D59*
X153000000Y-59000000D02*
X153000000Y-61000000D01*
D58*
X174800007Y-88442895D02*
X176564213Y-88442895D01*
X154730761Y-63650000D02*
X154350000Y-63269239D01*
X154540380Y-62540380D02*
X153000000Y-61000000D01*
X154350000Y-62730761D02*
X154540380Y-62540380D01*
%TO.N,Net-(J11-Pin_5)*%
X177162500Y-89748288D02*
X177162500Y-92337500D01*
X173486827Y-88986827D02*
X173523655Y-88950000D01*
X176626345Y-89000000D02*
X176650000Y-89023655D01*
X173523655Y-88950000D02*
X174476346Y-88950000D01*
X170000000Y-85500000D02*
X173486827Y-88986827D01*
X176650000Y-89235788D02*
X177162500Y-89748288D01*
X157150000Y-68730761D02*
X157150000Y-69000000D01*
X174476346Y-88950000D02*
X174500000Y-88973654D01*
X176414212Y-89000000D02*
X176626345Y-89000000D01*
X174769239Y-88973654D02*
X174799999Y-88942895D01*
X156769239Y-68350000D02*
X157150000Y-68730761D01*
D59*
X156460000Y-53000000D02*
X152000000Y-57460000D01*
D58*
X176650000Y-89023655D02*
X176650000Y-89235788D01*
X157150000Y-69000000D02*
X159000000Y-69000000D01*
D59*
X152000000Y-57460000D02*
X152000000Y-62500000D01*
D58*
X156230761Y-68350000D02*
X156769239Y-68350000D01*
X174500000Y-88973654D02*
X174769239Y-88973654D01*
X176357107Y-88942895D02*
X176414212Y-89000000D01*
X157040381Y-67540381D02*
X156230761Y-68350000D01*
X152000000Y-62500000D02*
X157040381Y-67540381D01*
X174799999Y-88942895D02*
X176357107Y-88942895D01*
%TO.N,Net-(J11-Pin_4)*%
X176662500Y-92337500D02*
X176662500Y-89955394D01*
X150500000Y-62500000D02*
X150500000Y-56420000D01*
X150500000Y-56420000D02*
X153920000Y-53000000D01*
X176662500Y-89955394D02*
X176150000Y-89442895D01*
X175007105Y-89442895D02*
X174850000Y-89600000D01*
X174419239Y-89600000D02*
X174269239Y-89450000D01*
X176150000Y-89442895D02*
X175007105Y-89442895D01*
X151500000Y-72500000D02*
X150000000Y-71000000D01*
X150000000Y-63000000D02*
X150500000Y-62500000D01*
X172809130Y-89309130D02*
X169000000Y-85500000D01*
X156000000Y-72500000D02*
X151500000Y-72500000D01*
X150000000Y-71000000D02*
X150000000Y-63000000D01*
X174269239Y-89450000D02*
X173730761Y-89450000D01*
X169000000Y-85500000D02*
X169000000Y-85000000D01*
X173730761Y-89450000D02*
X173444423Y-89736338D01*
X174850000Y-89600000D02*
X174419239Y-89600000D01*
X173444423Y-89736338D02*
X173017216Y-89309130D01*
X156500000Y-72000000D02*
X156000000Y-72500000D01*
X173017216Y-89309130D02*
X172809130Y-89309130D01*
%TO.N,Net-(J11-Pin_3)*%
X148500000Y-58500000D02*
X148500000Y-71000000D01*
X176100000Y-90100000D02*
X176162500Y-90162500D01*
X176162500Y-90162500D02*
X176162500Y-92337500D01*
X156000000Y-73500000D02*
X158500000Y-71000000D01*
X148500000Y-71000000D02*
X151000000Y-73500000D01*
D59*
X148500000Y-55880000D02*
X148500000Y-58500000D01*
D58*
X151000000Y-73500000D02*
X156000000Y-73500000D01*
X174000000Y-90100000D02*
X176100000Y-90100000D01*
D59*
X151380000Y-53000000D02*
X148500000Y-55880000D01*
%TO.N,Net-(J11-Pin_2)*%
D58*
X172810109Y-89809130D02*
X172309130Y-89809130D01*
X147000000Y-71000000D02*
X147000000Y-60500000D01*
X175650000Y-90942893D02*
X175315620Y-90942893D01*
X173190870Y-90402024D02*
X173190870Y-90189891D01*
D59*
X148840000Y-53000000D02*
X147000000Y-54840000D01*
D58*
X150150000Y-74150000D02*
X147000000Y-71000000D01*
X173538847Y-90750000D02*
X173190870Y-90402024D01*
X175662500Y-90955393D02*
X175650000Y-90942893D01*
X172309130Y-89809130D02*
X159812500Y-77312500D01*
X159812500Y-77312500D02*
X159812500Y-75694544D01*
X158150000Y-74150000D02*
X150150000Y-74150000D01*
X159812500Y-75694544D02*
X159467956Y-75350000D01*
D59*
X147000000Y-54840000D02*
X147000000Y-60500000D01*
D58*
X159350000Y-75350000D02*
X158150000Y-74150000D01*
X175662500Y-92337500D02*
X175662500Y-90955393D01*
X159467956Y-75350000D02*
X159350000Y-75350000D01*
X175122726Y-90750000D02*
X173538847Y-90750000D01*
X173190870Y-90189891D02*
X172810109Y-89809130D01*
X175315620Y-90942893D02*
X175122726Y-90750000D01*
%TO.N,Net-(J11-Pin_1)*%
X174409380Y-91250000D02*
X174415620Y-91250000D01*
X173122120Y-91122120D02*
X173329690Y-91329690D01*
X172540870Y-90459130D02*
X173122120Y-91040380D01*
X173409380Y-91250000D02*
X174409380Y-91250000D01*
X173329690Y-91329690D02*
X173409380Y-91250000D01*
X151000000Y-77000000D02*
X154000000Y-80000000D01*
X146000000Y-65500000D02*
X146300000Y-65200000D01*
X174915620Y-91250000D02*
X175162500Y-91496880D01*
X146000000Y-66500000D02*
X146000000Y-65500000D01*
X175162500Y-91496880D02*
X175162500Y-92337500D01*
X146300000Y-65200000D02*
X146300000Y-53000000D01*
X154000000Y-80000000D02*
X159500000Y-80000000D01*
X173122120Y-91040380D02*
X173122120Y-91122120D01*
X174415620Y-91250000D02*
X174915620Y-91250000D01*
%TO.N,Net-(J7-D-)*%
D59*
X58960000Y-114850000D02*
X61050000Y-114850000D01*
X64500000Y-108810000D02*
X64500000Y-111000000D01*
X61050000Y-114850000D02*
X62400000Y-113500000D01*
%TO.N,Net-(U3-D-)*%
D58*
X91000000Y-79000000D02*
X91337500Y-79337500D01*
D59*
X64500000Y-101190000D02*
X65500000Y-100190000D01*
D58*
X91337500Y-79337500D02*
X91337500Y-79975000D01*
D59*
X65500000Y-100190000D02*
X65500000Y-87359557D01*
%TO.N,unconnected-(C16-Pad1)*%
D58*
X146025000Y-93487500D02*
X145962500Y-93550000D01*
X146025000Y-86450000D02*
X146025000Y-93487500D01*
%TO.N,Net-(U3-~{HWB}{slash}PD7)*%
X92337500Y-87337500D02*
X111000000Y-106000000D01*
X111000000Y-106000000D02*
X112662500Y-106000000D01*
X92337500Y-84875000D02*
X92337500Y-87337500D01*
X112662500Y-111937500D02*
X112100000Y-112500000D01*
X112662500Y-106000000D02*
X112662500Y-111937500D01*
%TO.N,unconnected-(C14-Pad2)*%
X123162500Y-112500000D02*
X121862500Y-112500000D01*
X115225000Y-112500000D02*
X121862500Y-112500000D01*
%TO.N,Net-(U3-XTAL1)*%
X85662500Y-80230000D02*
X82702500Y-80230000D01*
X80690000Y-78690000D02*
X78062500Y-76062500D01*
X81162500Y-78690000D02*
X80690000Y-78690000D01*
X84500000Y-80230000D02*
X85662500Y-80230000D01*
X82702500Y-80230000D02*
X81162500Y-78690000D01*
X89637500Y-80675000D02*
X88675000Y-80675000D01*
X83000000Y-81500000D02*
X83230000Y-81500000D01*
X78062500Y-76062500D02*
X76662500Y-76062500D01*
X83230000Y-81500000D02*
X84500000Y-80230000D01*
X88675000Y-80675000D02*
X88000000Y-80000000D01*
%TO.N,Net-(Q1-G)*%
X145525000Y-76150000D02*
X146850000Y-76150000D01*
X162850000Y-67150000D02*
X163500000Y-66500000D01*
X159000000Y-67000000D02*
X159150000Y-67150000D01*
X159150000Y-67150000D02*
X162850000Y-67150000D01*
X169500000Y-66500000D02*
X169000000Y-66000000D01*
X155500000Y-70000000D02*
X156500000Y-69000000D01*
X151000000Y-70000000D02*
X155500000Y-70000000D01*
X169000000Y-66000000D02*
X167500000Y-66000000D01*
X146850000Y-76150000D02*
X149000000Y-74000000D01*
X165500000Y-68000000D02*
X166135000Y-67365000D01*
X166135000Y-67365000D02*
X168635000Y-67365000D01*
X168635000Y-67365000D02*
X169500000Y-66500000D01*
%TO.N,Net-(D1-K)*%
X90962500Y-66337500D02*
X86000000Y-71300000D01*
X90962500Y-66300000D02*
X93437500Y-66300000D01*
X126500000Y-70000000D02*
X130000000Y-70000000D01*
X96500000Y-69362500D02*
X96500000Y-71000000D01*
X133750000Y-66250000D02*
X134837500Y-66250000D01*
X124950000Y-68450000D02*
X126500000Y-70000000D01*
X123500000Y-71500000D02*
X123762500Y-71237500D01*
X90962500Y-66300000D02*
X90962500Y-66337500D01*
X93437500Y-66300000D02*
X96500000Y-69362500D01*
X130000000Y-70000000D02*
X133750000Y-66250000D01*
X123762500Y-71237500D02*
X123762500Y-68450000D01*
X123762500Y-68450000D02*
X124950000Y-68450000D01*
X99562500Y-66300000D02*
X96500000Y-69362500D01*
%TO.N,Net-(J7-GND)*%
D59*
X58960000Y-117902500D02*
X58875000Y-117987500D01*
X58960000Y-116800000D02*
X58960000Y-117902500D01*
X63500000Y-114705000D02*
X64235000Y-113970000D01*
D58*
X92300000Y-116750000D02*
X100300000Y-116750000D01*
D59*
X64235000Y-113970000D02*
X71265000Y-121000000D01*
X56300000Y-112125000D02*
X56300000Y-118875000D01*
X71265000Y-121000000D02*
X88050000Y-121000000D01*
X88050000Y-121000000D02*
X92300000Y-116750000D01*
X58875000Y-113012500D02*
X60987500Y-113012500D01*
X60987500Y-113012500D02*
X61000000Y-113000000D01*
X56300000Y-117050000D02*
X58710000Y-117050000D01*
X58710000Y-117050000D02*
X58960000Y-116800000D01*
X56300000Y-112125000D02*
X56925000Y-111500000D01*
X56925000Y-111500000D02*
X61000000Y-111500000D01*
X63500000Y-115500000D02*
X63500000Y-114705000D01*
%TO.N,Net-(U4B-+)*%
D58*
X149000000Y-97725000D02*
X149000000Y-97500000D01*
X134690000Y-108810000D02*
X138437500Y-105062500D01*
X160387500Y-70612500D02*
X161500000Y-70612500D01*
X157000000Y-73500000D02*
X157500000Y-73500000D01*
X141662500Y-105062500D02*
X149000000Y-97725000D01*
X134662500Y-108810000D02*
X134690000Y-108810000D01*
X157500000Y-73500000D02*
X160387500Y-70612500D01*
X161500000Y-69605000D02*
X164605000Y-66500000D01*
X138437500Y-105062500D02*
X141662500Y-105062500D01*
X161500000Y-70612500D02*
X161500000Y-69605000D01*
X129662500Y-108810000D02*
X134662500Y-108810000D01*
%TO.N,Net-(D2-A)*%
D59*
X176750000Y-69300000D02*
X174462500Y-69300000D01*
%TO.N,Net-(D5-A)*%
D58*
X74600000Y-87937500D02*
X77662500Y-91000000D01*
X74600000Y-86000000D02*
X74600000Y-87937500D01*
%TO.N,Net-(D3-A)*%
X172772500Y-60800000D02*
X176700000Y-60800000D01*
%TO.N,Net-(J7-D+)*%
D59*
X60500000Y-115500000D02*
X58960000Y-115500000D01*
X60500000Y-109120000D02*
X63000000Y-111620000D01*
X63000000Y-114000000D02*
X61500000Y-115500000D01*
X61500000Y-115500000D02*
X60500000Y-115500000D01*
D58*
X99537500Y-109250000D02*
X101700000Y-109250000D01*
X96537500Y-112250000D02*
X99537500Y-109250000D01*
D59*
X63000000Y-111620000D02*
X63000000Y-114000000D01*
%TO.N,Net-(J12-Pin_1)*%
D58*
X94500000Y-84212500D02*
X94537500Y-84175000D01*
X105412500Y-83000000D02*
X105412500Y-83087500D01*
X94500000Y-86000000D02*
X94500000Y-84212500D01*
X105412500Y-83000000D02*
X105000000Y-83000000D01*
X105000000Y-83000000D02*
X103500000Y-84500000D01*
%TO.N,Net-(J12-Pin_3)*%
X95500000Y-88000000D02*
X96000000Y-87500000D01*
X93707106Y-88000000D02*
X95500000Y-88000000D01*
X93337500Y-84875000D02*
X93337500Y-87630394D01*
X102500000Y-81000000D02*
X105412500Y-81000000D01*
X102000000Y-81500000D02*
X102500000Y-81000000D01*
X93337500Y-87630394D02*
X93707106Y-88000000D01*
%TO.N,Net-(J12-Pin_4)*%
X94500000Y-87350000D02*
X93837500Y-86687500D01*
X103662500Y-80000000D02*
X102000000Y-80000000D01*
X93837500Y-86687500D02*
X93837500Y-84875000D01*
X102000000Y-80000000D02*
X100000000Y-82000000D01*
%TO.N,Net-(D7-A)*%
X111500000Y-79000000D02*
X105412500Y-79000000D01*
X105412500Y-79000000D02*
X96212500Y-79000000D01*
X113500000Y-77000000D02*
X111500000Y-79000000D01*
X116000000Y-74662500D02*
X113662500Y-77000000D01*
X122162500Y-74150000D02*
X119312500Y-77000000D01*
X119312500Y-77000000D02*
X117500000Y-77000000D01*
X116000000Y-72000000D02*
X116000000Y-74662500D01*
X96212500Y-79000000D02*
X94537500Y-80675000D01*
X113662500Y-77000000D02*
X113500000Y-77000000D01*
%TO.N,Net-(J3-Pin_3)*%
D59*
X123880000Y-51000000D02*
X69102500Y-51000000D01*
X126380000Y-53500000D02*
X123880000Y-51000000D01*
D58*
X64237500Y-57135000D02*
X64237500Y-55865000D01*
D59*
X69102500Y-51000000D02*
X64237500Y-55865000D01*
%TO.N,Net-(D1-A)*%
D58*
X73500000Y-71500000D02*
X73500000Y-71062500D01*
X65900000Y-74800000D02*
X70700000Y-74800000D01*
X73500000Y-71062500D02*
X78262500Y-66300000D01*
X70700000Y-74800000D02*
X71000000Y-74500000D01*
%TO.N,Net-(U3-D+)*%
X90000000Y-76006740D02*
X90996630Y-77003370D01*
X67500000Y-102162500D02*
X67500000Y-101500000D01*
X67500000Y-102162500D02*
X67422500Y-102240000D01*
X90000000Y-75794606D02*
X90000000Y-76006740D01*
X88500000Y-77000000D02*
X89852697Y-75647303D01*
X67422500Y-102240000D02*
X61240000Y-102240000D01*
X90996630Y-77003370D02*
X91208764Y-77003370D01*
X89852697Y-75647303D02*
X90000000Y-75794606D01*
X91208764Y-77003370D02*
X91837500Y-77632106D01*
X91837500Y-77632106D02*
X91837500Y-79975000D01*
X83500000Y-88500000D02*
X85500000Y-86500000D01*
X85500000Y-86500000D02*
X85500000Y-84500000D01*
X61240000Y-102240000D02*
X60500000Y-101500000D01*
%TO.N,Net-(J7-VBUS)*%
D59*
X60700000Y-114200000D02*
X62000000Y-112900000D01*
X62000000Y-112900000D02*
X62000000Y-112000000D01*
X58960000Y-114200000D02*
X60700000Y-114200000D01*
%TO.N,unconnected-(C13-Pad1)*%
X75062500Y-117000000D02*
X77912500Y-114150000D01*
X77912500Y-114150000D02*
X77912500Y-113000000D01*
%TO.N,Net-(J6-Pin_1)*%
D58*
X95287500Y-85125000D02*
X95287500Y-83939904D01*
X95022596Y-83675000D02*
X94537500Y-83675000D01*
X95287500Y-83939904D02*
X95022596Y-83675000D01*
X101162500Y-91000000D02*
X95287500Y-85125000D01*
%TO.N,Net-(J6-Pin_2)*%
X104137500Y-88775000D02*
X102912500Y-90000000D01*
X104137500Y-87350000D02*
X99462500Y-82675000D01*
X99462500Y-82675000D02*
X94537500Y-82675000D01*
X104137500Y-88775000D02*
X104137500Y-87350000D01*
%TO.N,Net-(J6-Pin_3)*%
X95337500Y-83175000D02*
X94537500Y-83175000D01*
X101162500Y-89000000D02*
X95337500Y-83175000D01*
%TO.N,Net-(J6-Pin_4)*%
X97000000Y-82000000D02*
X96825000Y-82175000D01*
X101081740Y-88000000D02*
X97040870Y-83959130D01*
X96825000Y-82175000D02*
X94537500Y-82175000D01*
X102912500Y-88000000D02*
X101081740Y-88000000D01*
%TO.N,Net-(U3-PC0{slash}XTAL2)*%
X86512500Y-79877918D02*
X86512500Y-80960000D01*
X85662500Y-82770000D02*
X87257500Y-81175000D01*
X84702500Y-82770000D02*
X85662500Y-82770000D01*
X83980000Y-79380000D02*
X86014582Y-79380000D01*
X80662500Y-76062500D02*
X83980000Y-79380000D01*
X86014582Y-79380000D02*
X86512500Y-79877918D01*
X87257500Y-81175000D02*
X89637500Y-81175000D01*
X86512500Y-80960000D02*
X84702500Y-82770000D01*
X81162500Y-86310000D02*
X84702500Y-82770000D01*
%TO.N,Net-(U3-PD3)*%
X90162500Y-92190000D02*
X90162500Y-85050000D01*
X90162500Y-85050000D02*
X90337500Y-84875000D01*
%TO.N,Net-(D6-K)*%
X90837500Y-90175000D02*
X90837500Y-84875000D01*
X101162500Y-100500000D02*
X90837500Y-90175000D01*
%TO.N,Net-(D5-K)*%
X81075000Y-89500000D02*
X84500000Y-89500000D01*
X91500000Y-87500000D02*
X91337500Y-87337500D01*
X88000000Y-89500000D02*
X89000000Y-88500000D01*
X87500000Y-89500000D02*
X88000000Y-89500000D01*
X77575000Y-86000000D02*
X81075000Y-89500000D01*
X91500000Y-88500000D02*
X91500000Y-87500000D01*
X91337500Y-87337500D02*
X91337500Y-84875000D01*
%TO.N,Net-(U3-UCAP)*%
X92837500Y-79975000D02*
X92862500Y-79975000D01*
X93602404Y-79225000D02*
X94072596Y-79225000D01*
X88162500Y-73500000D02*
X89162500Y-72500000D01*
X87000000Y-73500000D02*
X88162500Y-73500000D01*
X93102404Y-79225000D02*
X93572596Y-79225000D01*
X95500000Y-78000000D02*
X94000000Y-78000000D01*
X92862500Y-79975000D02*
X92862500Y-79464904D01*
X94072596Y-79225000D02*
X94173798Y-79326202D01*
X94173798Y-79326202D02*
X95500000Y-78000000D01*
X94000000Y-78000000D02*
X91500000Y-75500000D01*
X93572596Y-79225000D02*
X93587500Y-79239904D01*
X93587500Y-79239904D02*
X93602404Y-79225000D01*
X92862500Y-79464904D02*
X93102404Y-79225000D01*
%TO.N,Net-(U4A--)*%
X164882500Y-63960000D02*
X164605000Y-64237500D01*
X164605000Y-64237500D02*
X164605000Y-64500000D01*
X169635000Y-67865000D02*
X170000000Y-67500000D01*
X170000000Y-67500000D02*
X170000000Y-64869681D01*
X168277500Y-67865000D02*
X169635000Y-67865000D01*
X164605000Y-64500000D02*
X164605000Y-65000000D01*
X166842500Y-69300000D02*
X168277500Y-67865000D01*
X169090319Y-63960000D02*
X164882500Y-63960000D01*
X170000000Y-64869681D02*
X169090319Y-63960000D01*
%TO.N,Net-(D6-A)*%
X100637500Y-104000000D02*
X101162500Y-103475000D01*
X88162500Y-104000000D02*
X100637500Y-104000000D01*
%TD*%
M02*
