%TF.GenerationSoftware,KiCad,Pcbnew,10.99.0-1021-gc24091a86e*%
%TF.CreationDate,2026-07-26T01:42:24+00:00*%
%TF.ProjectId,Arduino Mega,41726475-696e-46f2-904d-6567612e6b69,rev?*%
%TF.SameCoordinates,Original*%
%TF.FileFunction,Legend,Top*%
%TF.FilePolarity,Positive*%
%FSLAX46Y46*%
G04 Gerber Fmt 4.6, Leading zero omitted, Abs format (unit mm)*
G04 Created by KiCad (PCBNEW 10.99.0-1021-gc24091a86e) date 2026-07-26 01:42:24*
%MOMM*%
%LPD*%
G01*
G04 APERTURE LIST*
%ADD10C,0.150000*%
%ADD11C,0.120000*%
G04 APERTURE END LIST*
D10*
X84222319Y-97982857D02*
X83746128Y-98316190D01*
X84222319Y-98554285D02*
X83222319Y-98554285D01*
X83222319Y-98554285D02*
X83222319Y-98173333D01*
X83222319Y-98173333D02*
X83269938Y-98078095D01*
X83269938Y-98078095D02*
X83317557Y-98030476D01*
X83317557Y-98030476D02*
X83412795Y-97982857D01*
X83412795Y-97982857D02*
X83555652Y-97982857D01*
X83555652Y-97982857D02*
X83650890Y-98030476D01*
X83650890Y-98030476D02*
X83698509Y-98078095D01*
X83698509Y-98078095D02*
X83746128Y-98173333D01*
X83746128Y-98173333D02*
X83746128Y-98554285D01*
X83317557Y-97601904D02*
X83269938Y-97554285D01*
X83269938Y-97554285D02*
X83222319Y-97459047D01*
X83222319Y-97459047D02*
X83222319Y-97220952D01*
X83222319Y-97220952D02*
X83269938Y-97125714D01*
X83269938Y-97125714D02*
X83317557Y-97078095D01*
X83317557Y-97078095D02*
X83412795Y-97030476D01*
X83412795Y-97030476D02*
X83508033Y-97030476D01*
X83508033Y-97030476D02*
X83650890Y-97078095D01*
X83650890Y-97078095D02*
X84222319Y-97649523D01*
X84222319Y-97649523D02*
X84222319Y-97030476D01*
X83222319Y-96411428D02*
X83222319Y-96316190D01*
X83222319Y-96316190D02*
X83269938Y-96220952D01*
X83269938Y-96220952D02*
X83317557Y-96173333D01*
X83317557Y-96173333D02*
X83412795Y-96125714D01*
X83412795Y-96125714D02*
X83603271Y-96078095D01*
X83603271Y-96078095D02*
X83841366Y-96078095D01*
X83841366Y-96078095D02*
X84031842Y-96125714D01*
X84031842Y-96125714D02*
X84127080Y-96173333D01*
X84127080Y-96173333D02*
X84174700Y-96220952D01*
X84174700Y-96220952D02*
X84222319Y-96316190D01*
X84222319Y-96316190D02*
X84222319Y-96411428D01*
X84222319Y-96411428D02*
X84174700Y-96506666D01*
X84174700Y-96506666D02*
X84127080Y-96554285D01*
X84127080Y-96554285D02*
X84031842Y-96601904D01*
X84031842Y-96601904D02*
X83841366Y-96649523D01*
X83841366Y-96649523D02*
X83603271Y-96649523D01*
X83603271Y-96649523D02*
X83412795Y-96601904D01*
X83412795Y-96601904D02*
X83317557Y-96554285D01*
X83317557Y-96554285D02*
X83269938Y-96506666D01*
X83269938Y-96506666D02*
X83222319Y-96411428D01*
X187837319Y-65466666D02*
X187361128Y-65799999D01*
X187837319Y-66038094D02*
X186837319Y-66038094D01*
X186837319Y-66038094D02*
X186837319Y-65657142D01*
X186837319Y-65657142D02*
X186884938Y-65561904D01*
X186884938Y-65561904D02*
X186932557Y-65514285D01*
X186932557Y-65514285D02*
X187027795Y-65466666D01*
X187027795Y-65466666D02*
X187170652Y-65466666D01*
X187170652Y-65466666D02*
X187265890Y-65514285D01*
X187265890Y-65514285D02*
X187313509Y-65561904D01*
X187313509Y-65561904D02*
X187361128Y-65657142D01*
X187361128Y-65657142D02*
X187361128Y-66038094D01*
X186837319Y-65133332D02*
X186837319Y-64514285D01*
X186837319Y-64514285D02*
X187218271Y-64847618D01*
X187218271Y-64847618D02*
X187218271Y-64704761D01*
X187218271Y-64704761D02*
X187265890Y-64609523D01*
X187265890Y-64609523D02*
X187313509Y-64561904D01*
X187313509Y-64561904D02*
X187408747Y-64514285D01*
X187408747Y-64514285D02*
X187646842Y-64514285D01*
X187646842Y-64514285D02*
X187742080Y-64561904D01*
X187742080Y-64561904D02*
X187789700Y-64609523D01*
X187789700Y-64609523D02*
X187837319Y-64704761D01*
X187837319Y-64704761D02*
X187837319Y-64990475D01*
X187837319Y-64990475D02*
X187789700Y-65085713D01*
X187789700Y-65085713D02*
X187742080Y-65133332D01*
X178900595Y-90104819D02*
X178900595Y-90914342D01*
X178900595Y-90914342D02*
X178948214Y-91009580D01*
X178948214Y-91009580D02*
X178995833Y-91057200D01*
X178995833Y-91057200D02*
X179091071Y-91104819D01*
X179091071Y-91104819D02*
X179281547Y-91104819D01*
X179281547Y-91104819D02*
X179376785Y-91057200D01*
X179376785Y-91057200D02*
X179424404Y-91009580D01*
X179424404Y-91009580D02*
X179472023Y-90914342D01*
X179472023Y-90914342D02*
X179472023Y-90104819D01*
X179900595Y-90200057D02*
X179948214Y-90152438D01*
X179948214Y-90152438D02*
X180043452Y-90104819D01*
X180043452Y-90104819D02*
X180281547Y-90104819D01*
X180281547Y-90104819D02*
X180376785Y-90152438D01*
X180376785Y-90152438D02*
X180424404Y-90200057D01*
X180424404Y-90200057D02*
X180472023Y-90295295D01*
X180472023Y-90295295D02*
X180472023Y-90390533D01*
X180472023Y-90390533D02*
X180424404Y-90533390D01*
X180424404Y-90533390D02*
X179852976Y-91104819D01*
X179852976Y-91104819D02*
X180472023Y-91104819D01*
X63034819Y-105642857D02*
X62558628Y-105976190D01*
X63034819Y-106214285D02*
X62034819Y-106214285D01*
X62034819Y-106214285D02*
X62034819Y-105833333D01*
X62034819Y-105833333D02*
X62082438Y-105738095D01*
X62082438Y-105738095D02*
X62130057Y-105690476D01*
X62130057Y-105690476D02*
X62225295Y-105642857D01*
X62225295Y-105642857D02*
X62368152Y-105642857D01*
X62368152Y-105642857D02*
X62463390Y-105690476D01*
X62463390Y-105690476D02*
X62511009Y-105738095D01*
X62511009Y-105738095D02*
X62558628Y-105833333D01*
X62558628Y-105833333D02*
X62558628Y-106214285D01*
X63034819Y-104690476D02*
X63034819Y-105261904D01*
X63034819Y-104976190D02*
X62034819Y-104976190D01*
X62034819Y-104976190D02*
X62177676Y-105071428D01*
X62177676Y-105071428D02*
X62272914Y-105166666D01*
X62272914Y-105166666D02*
X62320533Y-105261904D01*
X62034819Y-104357142D02*
X62034819Y-103690476D01*
X62034819Y-103690476D02*
X63034819Y-104119047D01*
X146882142Y-91609580D02*
X146834523Y-91657200D01*
X146834523Y-91657200D02*
X146691666Y-91704819D01*
X146691666Y-91704819D02*
X146596428Y-91704819D01*
X146596428Y-91704819D02*
X146453571Y-91657200D01*
X146453571Y-91657200D02*
X146358333Y-91561961D01*
X146358333Y-91561961D02*
X146310714Y-91466723D01*
X146310714Y-91466723D02*
X146263095Y-91276247D01*
X146263095Y-91276247D02*
X146263095Y-91133390D01*
X146263095Y-91133390D02*
X146310714Y-90942914D01*
X146310714Y-90942914D02*
X146358333Y-90847676D01*
X146358333Y-90847676D02*
X146453571Y-90752438D01*
X146453571Y-90752438D02*
X146596428Y-90704819D01*
X146596428Y-90704819D02*
X146691666Y-90704819D01*
X146691666Y-90704819D02*
X146834523Y-90752438D01*
X146834523Y-90752438D02*
X146882142Y-90800057D01*
X147834523Y-91704819D02*
X147263095Y-91704819D01*
X147548809Y-91704819D02*
X147548809Y-90704819D01*
X147548809Y-90704819D02*
X147453571Y-90847676D01*
X147453571Y-90847676D02*
X147358333Y-90942914D01*
X147358333Y-90942914D02*
X147263095Y-90990533D01*
X148691666Y-90704819D02*
X148501190Y-90704819D01*
X148501190Y-90704819D02*
X148405952Y-90752438D01*
X148405952Y-90752438D02*
X148358333Y-90800057D01*
X148358333Y-90800057D02*
X148263095Y-90942914D01*
X148263095Y-90942914D02*
X148215476Y-91133390D01*
X148215476Y-91133390D02*
X148215476Y-91514342D01*
X148215476Y-91514342D02*
X148263095Y-91609580D01*
X148263095Y-91609580D02*
X148310714Y-91657200D01*
X148310714Y-91657200D02*
X148405952Y-91704819D01*
X148405952Y-91704819D02*
X148596428Y-91704819D01*
X148596428Y-91704819D02*
X148691666Y-91657200D01*
X148691666Y-91657200D02*
X148739285Y-91609580D01*
X148739285Y-91609580D02*
X148786904Y-91514342D01*
X148786904Y-91514342D02*
X148786904Y-91276247D01*
X148786904Y-91276247D02*
X148739285Y-91181009D01*
X148739285Y-91181009D02*
X148691666Y-91133390D01*
X148691666Y-91133390D02*
X148596428Y-91085771D01*
X148596428Y-91085771D02*
X148405952Y-91085771D01*
X148405952Y-91085771D02*
X148310714Y-91133390D01*
X148310714Y-91133390D02*
X148263095Y-91181009D01*
X148263095Y-91181009D02*
X148215476Y-91276247D01*
X78722080Y-95729166D02*
X78769700Y-95776785D01*
X78769700Y-95776785D02*
X78817319Y-95919642D01*
X78817319Y-95919642D02*
X78817319Y-96014880D01*
X78817319Y-96014880D02*
X78769700Y-96157737D01*
X78769700Y-96157737D02*
X78674461Y-96252975D01*
X78674461Y-96252975D02*
X78579223Y-96300594D01*
X78579223Y-96300594D02*
X78388747Y-96348213D01*
X78388747Y-96348213D02*
X78245890Y-96348213D01*
X78245890Y-96348213D02*
X78055414Y-96300594D01*
X78055414Y-96300594D02*
X77960176Y-96252975D01*
X77960176Y-96252975D02*
X77864938Y-96157737D01*
X77864938Y-96157737D02*
X77817319Y-96014880D01*
X77817319Y-96014880D02*
X77817319Y-95919642D01*
X77817319Y-95919642D02*
X77864938Y-95776785D01*
X77864938Y-95776785D02*
X77912557Y-95729166D01*
X77817319Y-95395832D02*
X77817319Y-94729166D01*
X77817319Y-94729166D02*
X78817319Y-95157737D01*
X113019642Y-110559580D02*
X112972023Y-110607200D01*
X112972023Y-110607200D02*
X112829166Y-110654819D01*
X112829166Y-110654819D02*
X112733928Y-110654819D01*
X112733928Y-110654819D02*
X112591071Y-110607200D01*
X112591071Y-110607200D02*
X112495833Y-110511961D01*
X112495833Y-110511961D02*
X112448214Y-110416723D01*
X112448214Y-110416723D02*
X112400595Y-110226247D01*
X112400595Y-110226247D02*
X112400595Y-110083390D01*
X112400595Y-110083390D02*
X112448214Y-109892914D01*
X112448214Y-109892914D02*
X112495833Y-109797676D01*
X112495833Y-109797676D02*
X112591071Y-109702438D01*
X112591071Y-109702438D02*
X112733928Y-109654819D01*
X112733928Y-109654819D02*
X112829166Y-109654819D01*
X112829166Y-109654819D02*
X112972023Y-109702438D01*
X112972023Y-109702438D02*
X113019642Y-109750057D01*
X113972023Y-110654819D02*
X113400595Y-110654819D01*
X113686309Y-110654819D02*
X113686309Y-109654819D01*
X113686309Y-109654819D02*
X113591071Y-109797676D01*
X113591071Y-109797676D02*
X113495833Y-109892914D01*
X113495833Y-109892914D02*
X113400595Y-109940533D01*
X114829166Y-109988152D02*
X114829166Y-110654819D01*
X114591071Y-109607200D02*
X114352976Y-110321485D01*
X114352976Y-110321485D02*
X114972023Y-110321485D01*
X76857142Y-71359580D02*
X76809523Y-71407200D01*
X76809523Y-71407200D02*
X76666666Y-71454819D01*
X76666666Y-71454819D02*
X76571428Y-71454819D01*
X76571428Y-71454819D02*
X76428571Y-71407200D01*
X76428571Y-71407200D02*
X76333333Y-71311961D01*
X76333333Y-71311961D02*
X76285714Y-71216723D01*
X76285714Y-71216723D02*
X76238095Y-71026247D01*
X76238095Y-71026247D02*
X76238095Y-70883390D01*
X76238095Y-70883390D02*
X76285714Y-70692914D01*
X76285714Y-70692914D02*
X76333333Y-70597676D01*
X76333333Y-70597676D02*
X76428571Y-70502438D01*
X76428571Y-70502438D02*
X76571428Y-70454819D01*
X76571428Y-70454819D02*
X76666666Y-70454819D01*
X76666666Y-70454819D02*
X76809523Y-70502438D01*
X76809523Y-70502438D02*
X76857142Y-70550057D01*
X77809523Y-71454819D02*
X77238095Y-71454819D01*
X77523809Y-71454819D02*
X77523809Y-70454819D01*
X77523809Y-70454819D02*
X77428571Y-70597676D01*
X77428571Y-70597676D02*
X77333333Y-70692914D01*
X77333333Y-70692914D02*
X77238095Y-70740533D01*
X78428571Y-70454819D02*
X78523809Y-70454819D01*
X78523809Y-70454819D02*
X78619047Y-70502438D01*
X78619047Y-70502438D02*
X78666666Y-70550057D01*
X78666666Y-70550057D02*
X78714285Y-70645295D01*
X78714285Y-70645295D02*
X78761904Y-70835771D01*
X78761904Y-70835771D02*
X78761904Y-71073866D01*
X78761904Y-71073866D02*
X78714285Y-71264342D01*
X78714285Y-71264342D02*
X78666666Y-71359580D01*
X78666666Y-71359580D02*
X78619047Y-71407200D01*
X78619047Y-71407200D02*
X78523809Y-71454819D01*
X78523809Y-71454819D02*
X78428571Y-71454819D01*
X78428571Y-71454819D02*
X78333333Y-71407200D01*
X78333333Y-71407200D02*
X78285714Y-71359580D01*
X78285714Y-71359580D02*
X78238095Y-71264342D01*
X78238095Y-71264342D02*
X78190476Y-71073866D01*
X78190476Y-71073866D02*
X78190476Y-70835771D01*
X78190476Y-70835771D02*
X78238095Y-70645295D01*
X78238095Y-70645295D02*
X78285714Y-70550057D01*
X78285714Y-70550057D02*
X78333333Y-70502438D01*
X78333333Y-70502438D02*
X78428571Y-70454819D01*
X146367261Y-75250057D02*
X146272023Y-75202438D01*
X146272023Y-75202438D02*
X146176785Y-75107200D01*
X146176785Y-75107200D02*
X146033928Y-74964342D01*
X146033928Y-74964342D02*
X145938690Y-74916723D01*
X145938690Y-74916723D02*
X145843452Y-74916723D01*
X145891071Y-75154819D02*
X145795833Y-75107200D01*
X145795833Y-75107200D02*
X145700595Y-75011961D01*
X145700595Y-75011961D02*
X145652976Y-74821485D01*
X145652976Y-74821485D02*
X145652976Y-74488152D01*
X145652976Y-74488152D02*
X145700595Y-74297676D01*
X145700595Y-74297676D02*
X145795833Y-74202438D01*
X145795833Y-74202438D02*
X145891071Y-74154819D01*
X145891071Y-74154819D02*
X146081547Y-74154819D01*
X146081547Y-74154819D02*
X146176785Y-74202438D01*
X146176785Y-74202438D02*
X146272023Y-74297676D01*
X146272023Y-74297676D02*
X146319642Y-74488152D01*
X146319642Y-74488152D02*
X146319642Y-74821485D01*
X146319642Y-74821485D02*
X146272023Y-75011961D01*
X146272023Y-75011961D02*
X146176785Y-75107200D01*
X146176785Y-75107200D02*
X146081547Y-75154819D01*
X146081547Y-75154819D02*
X145891071Y-75154819D01*
X147272023Y-75154819D02*
X146700595Y-75154819D01*
X146986309Y-75154819D02*
X146986309Y-74154819D01*
X146986309Y-74154819D02*
X146891071Y-74297676D01*
X146891071Y-74297676D02*
X146795833Y-74392914D01*
X146795833Y-74392914D02*
X146700595Y-74440533D01*
X172329642Y-76034819D02*
X171996309Y-75558628D01*
X171758214Y-76034819D02*
X171758214Y-75034819D01*
X171758214Y-75034819D02*
X172139166Y-75034819D01*
X172139166Y-75034819D02*
X172234404Y-75082438D01*
X172234404Y-75082438D02*
X172282023Y-75130057D01*
X172282023Y-75130057D02*
X172329642Y-75225295D01*
X172329642Y-75225295D02*
X172329642Y-75368152D01*
X172329642Y-75368152D02*
X172282023Y-75463390D01*
X172282023Y-75463390D02*
X172234404Y-75511009D01*
X172234404Y-75511009D02*
X172139166Y-75558628D01*
X172139166Y-75558628D02*
X171758214Y-75558628D01*
X173282023Y-76034819D02*
X172710595Y-76034819D01*
X172996309Y-76034819D02*
X172996309Y-75034819D01*
X172996309Y-75034819D02*
X172901071Y-75177676D01*
X172901071Y-75177676D02*
X172805833Y-75272914D01*
X172805833Y-75272914D02*
X172710595Y-75320533D01*
X174139166Y-75368152D02*
X174139166Y-76034819D01*
X173901071Y-74987200D02*
X173662976Y-75701485D01*
X173662976Y-75701485D02*
X174282023Y-75701485D01*
X84795833Y-73339580D02*
X84748214Y-73387200D01*
X84748214Y-73387200D02*
X84605357Y-73434819D01*
X84605357Y-73434819D02*
X84510119Y-73434819D01*
X84510119Y-73434819D02*
X84367262Y-73387200D01*
X84367262Y-73387200D02*
X84272024Y-73291961D01*
X84272024Y-73291961D02*
X84224405Y-73196723D01*
X84224405Y-73196723D02*
X84176786Y-73006247D01*
X84176786Y-73006247D02*
X84176786Y-72863390D01*
X84176786Y-72863390D02*
X84224405Y-72672914D01*
X84224405Y-72672914D02*
X84272024Y-72577676D01*
X84272024Y-72577676D02*
X84367262Y-72482438D01*
X84367262Y-72482438D02*
X84510119Y-72434819D01*
X84510119Y-72434819D02*
X84605357Y-72434819D01*
X84605357Y-72434819D02*
X84748214Y-72482438D01*
X84748214Y-72482438D02*
X84795833Y-72530057D01*
X85176786Y-72530057D02*
X85224405Y-72482438D01*
X85224405Y-72482438D02*
X85319643Y-72434819D01*
X85319643Y-72434819D02*
X85557738Y-72434819D01*
X85557738Y-72434819D02*
X85652976Y-72482438D01*
X85652976Y-72482438D02*
X85700595Y-72530057D01*
X85700595Y-72530057D02*
X85748214Y-72625295D01*
X85748214Y-72625295D02*
X85748214Y-72720533D01*
X85748214Y-72720533D02*
X85700595Y-72863390D01*
X85700595Y-72863390D02*
X85129167Y-73434819D01*
X85129167Y-73434819D02*
X85748214Y-73434819D01*
X90504819Y-113595238D02*
X90028628Y-113928571D01*
X90504819Y-114166666D02*
X89504819Y-114166666D01*
X89504819Y-114166666D02*
X89504819Y-113785714D01*
X89504819Y-113785714D02*
X89552438Y-113690476D01*
X89552438Y-113690476D02*
X89600057Y-113642857D01*
X89600057Y-113642857D02*
X89695295Y-113595238D01*
X89695295Y-113595238D02*
X89838152Y-113595238D01*
X89838152Y-113595238D02*
X89933390Y-113642857D01*
X89933390Y-113642857D02*
X89981009Y-113690476D01*
X89981009Y-113690476D02*
X90028628Y-113785714D01*
X90028628Y-113785714D02*
X90028628Y-114166666D01*
X89504819Y-113309523D02*
X90504819Y-112976190D01*
X90504819Y-112976190D02*
X89504819Y-112642857D01*
X90504819Y-111785714D02*
X90504819Y-112357142D01*
X90504819Y-112071428D02*
X89504819Y-112071428D01*
X89504819Y-112071428D02*
X89647676Y-112166666D01*
X89647676Y-112166666D02*
X89742914Y-112261904D01*
X89742914Y-112261904D02*
X89790533Y-112357142D01*
X190384819Y-118833333D02*
X191099104Y-118833333D01*
X191099104Y-118833333D02*
X191241961Y-118880952D01*
X191241961Y-118880952D02*
X191337200Y-118976190D01*
X191337200Y-118976190D02*
X191384819Y-119119047D01*
X191384819Y-119119047D02*
X191384819Y-119214285D01*
X191384819Y-118309523D02*
X191384819Y-118119047D01*
X191384819Y-118119047D02*
X191337200Y-118023809D01*
X191337200Y-118023809D02*
X191289580Y-117976190D01*
X191289580Y-117976190D02*
X191146723Y-117880952D01*
X191146723Y-117880952D02*
X190956247Y-117833333D01*
X190956247Y-117833333D02*
X190575295Y-117833333D01*
X190575295Y-117833333D02*
X190480057Y-117880952D01*
X190480057Y-117880952D02*
X190432438Y-117928571D01*
X190432438Y-117928571D02*
X190384819Y-118023809D01*
X190384819Y-118023809D02*
X190384819Y-118214285D01*
X190384819Y-118214285D02*
X190432438Y-118309523D01*
X190432438Y-118309523D02*
X190480057Y-118357142D01*
X190480057Y-118357142D02*
X190575295Y-118404761D01*
X190575295Y-118404761D02*
X190813390Y-118404761D01*
X190813390Y-118404761D02*
X190908628Y-118357142D01*
X190908628Y-118357142D02*
X190956247Y-118309523D01*
X190956247Y-118309523D02*
X191003866Y-118214285D01*
X191003866Y-118214285D02*
X191003866Y-118023809D01*
X191003866Y-118023809D02*
X190956247Y-117928571D01*
X190956247Y-117928571D02*
X190908628Y-117880952D01*
X190908628Y-117880952D02*
X190813390Y-117833333D01*
X144522080Y-102205357D02*
X144569700Y-102252976D01*
X144569700Y-102252976D02*
X144617319Y-102395833D01*
X144617319Y-102395833D02*
X144617319Y-102491071D01*
X144617319Y-102491071D02*
X144569700Y-102633928D01*
X144569700Y-102633928D02*
X144474461Y-102729166D01*
X144474461Y-102729166D02*
X144379223Y-102776785D01*
X144379223Y-102776785D02*
X144188747Y-102824404D01*
X144188747Y-102824404D02*
X144045890Y-102824404D01*
X144045890Y-102824404D02*
X143855414Y-102776785D01*
X143855414Y-102776785D02*
X143760176Y-102729166D01*
X143760176Y-102729166D02*
X143664938Y-102633928D01*
X143664938Y-102633928D02*
X143617319Y-102491071D01*
X143617319Y-102491071D02*
X143617319Y-102395833D01*
X143617319Y-102395833D02*
X143664938Y-102252976D01*
X143664938Y-102252976D02*
X143712557Y-102205357D01*
X144617319Y-101252976D02*
X144617319Y-101824404D01*
X144617319Y-101538690D02*
X143617319Y-101538690D01*
X143617319Y-101538690D02*
X143760176Y-101633928D01*
X143760176Y-101633928D02*
X143855414Y-101729166D01*
X143855414Y-101729166D02*
X143903033Y-101824404D01*
X143617319Y-100348214D02*
X143617319Y-100824404D01*
X143617319Y-100824404D02*
X144093509Y-100872023D01*
X144093509Y-100872023D02*
X144045890Y-100824404D01*
X144045890Y-100824404D02*
X143998271Y-100729166D01*
X143998271Y-100729166D02*
X143998271Y-100491071D01*
X143998271Y-100491071D02*
X144045890Y-100395833D01*
X144045890Y-100395833D02*
X144093509Y-100348214D01*
X144093509Y-100348214D02*
X144188747Y-100300595D01*
X144188747Y-100300595D02*
X144426842Y-100300595D01*
X144426842Y-100300595D02*
X144522080Y-100348214D01*
X144522080Y-100348214D02*
X144569700Y-100395833D01*
X144569700Y-100395833D02*
X144617319Y-100491071D01*
X144617319Y-100491071D02*
X144617319Y-100729166D01*
X144617319Y-100729166D02*
X144569700Y-100824404D01*
X144569700Y-100824404D02*
X144522080Y-100872023D01*
X177499405Y-71584819D02*
X177499405Y-70584819D01*
X177499405Y-70584819D02*
X177737500Y-70584819D01*
X177737500Y-70584819D02*
X177880357Y-70632438D01*
X177880357Y-70632438D02*
X177975595Y-70727676D01*
X177975595Y-70727676D02*
X178023214Y-70822914D01*
X178023214Y-70822914D02*
X178070833Y-71013390D01*
X178070833Y-71013390D02*
X178070833Y-71156247D01*
X178070833Y-71156247D02*
X178023214Y-71346723D01*
X178023214Y-71346723D02*
X177975595Y-71441961D01*
X177975595Y-71441961D02*
X177880357Y-71537200D01*
X177880357Y-71537200D02*
X177737500Y-71584819D01*
X177737500Y-71584819D02*
X177499405Y-71584819D01*
X178451786Y-70680057D02*
X178499405Y-70632438D01*
X178499405Y-70632438D02*
X178594643Y-70584819D01*
X178594643Y-70584819D02*
X178832738Y-70584819D01*
X178832738Y-70584819D02*
X178927976Y-70632438D01*
X178927976Y-70632438D02*
X178975595Y-70680057D01*
X178975595Y-70680057D02*
X179023214Y-70775295D01*
X179023214Y-70775295D02*
X179023214Y-70870533D01*
X179023214Y-70870533D02*
X178975595Y-71013390D01*
X178975595Y-71013390D02*
X178404167Y-71584819D01*
X178404167Y-71584819D02*
X179023214Y-71584819D01*
X133519642Y-88034819D02*
X133186309Y-87558628D01*
X132948214Y-88034819D02*
X132948214Y-87034819D01*
X132948214Y-87034819D02*
X133329166Y-87034819D01*
X133329166Y-87034819D02*
X133424404Y-87082438D01*
X133424404Y-87082438D02*
X133472023Y-87130057D01*
X133472023Y-87130057D02*
X133519642Y-87225295D01*
X133519642Y-87225295D02*
X133519642Y-87368152D01*
X133519642Y-87368152D02*
X133472023Y-87463390D01*
X133472023Y-87463390D02*
X133424404Y-87511009D01*
X133424404Y-87511009D02*
X133329166Y-87558628D01*
X133329166Y-87558628D02*
X132948214Y-87558628D01*
X134472023Y-88034819D02*
X133900595Y-88034819D01*
X134186309Y-88034819D02*
X134186309Y-87034819D01*
X134186309Y-87034819D02*
X134091071Y-87177676D01*
X134091071Y-87177676D02*
X133995833Y-87272914D01*
X133995833Y-87272914D02*
X133900595Y-87320533D01*
X135376785Y-87034819D02*
X134900595Y-87034819D01*
X134900595Y-87034819D02*
X134852976Y-87511009D01*
X134852976Y-87511009D02*
X134900595Y-87463390D01*
X134900595Y-87463390D02*
X134995833Y-87415771D01*
X134995833Y-87415771D02*
X135233928Y-87415771D01*
X135233928Y-87415771D02*
X135329166Y-87463390D01*
X135329166Y-87463390D02*
X135376785Y-87511009D01*
X135376785Y-87511009D02*
X135424404Y-87606247D01*
X135424404Y-87606247D02*
X135424404Y-87844342D01*
X135424404Y-87844342D02*
X135376785Y-87939580D01*
X135376785Y-87939580D02*
X135329166Y-87987200D01*
X135329166Y-87987200D02*
X135233928Y-88034819D01*
X135233928Y-88034819D02*
X134995833Y-88034819D01*
X134995833Y-88034819D02*
X134900595Y-87987200D01*
X134900595Y-87987200D02*
X134852976Y-87939580D01*
X144954819Y-119809523D02*
X145669104Y-119809523D01*
X145669104Y-119809523D02*
X145811961Y-119857142D01*
X145811961Y-119857142D02*
X145907200Y-119952380D01*
X145907200Y-119952380D02*
X145954819Y-120095237D01*
X145954819Y-120095237D02*
X145954819Y-120190475D01*
X145954819Y-118809523D02*
X145954819Y-119380951D01*
X145954819Y-119095237D02*
X144954819Y-119095237D01*
X144954819Y-119095237D02*
X145097676Y-119190475D01*
X145097676Y-119190475D02*
X145192914Y-119285713D01*
X145192914Y-119285713D02*
X145240533Y-119380951D01*
X144954819Y-118190475D02*
X144954819Y-118095237D01*
X144954819Y-118095237D02*
X145002438Y-117999999D01*
X145002438Y-117999999D02*
X145050057Y-117952380D01*
X145050057Y-117952380D02*
X145145295Y-117904761D01*
X145145295Y-117904761D02*
X145335771Y-117857142D01*
X145335771Y-117857142D02*
X145573866Y-117857142D01*
X145573866Y-117857142D02*
X145764342Y-117904761D01*
X145764342Y-117904761D02*
X145859580Y-117952380D01*
X145859580Y-117952380D02*
X145907200Y-117999999D01*
X145907200Y-117999999D02*
X145954819Y-118095237D01*
X145954819Y-118095237D02*
X145954819Y-118190475D01*
X145954819Y-118190475D02*
X145907200Y-118285713D01*
X145907200Y-118285713D02*
X145859580Y-118333332D01*
X145859580Y-118333332D02*
X145764342Y-118380951D01*
X145764342Y-118380951D02*
X145573866Y-118428570D01*
X145573866Y-118428570D02*
X145335771Y-118428570D01*
X145335771Y-118428570D02*
X145145295Y-118380951D01*
X145145295Y-118380951D02*
X145050057Y-118333332D01*
X145050057Y-118333332D02*
X145002438Y-118285713D01*
X145002438Y-118285713D02*
X144954819Y-118190475D01*
X77857142Y-89454819D02*
X77523809Y-88978628D01*
X77285714Y-89454819D02*
X77285714Y-88454819D01*
X77285714Y-88454819D02*
X77666666Y-88454819D01*
X77666666Y-88454819D02*
X77761904Y-88502438D01*
X77761904Y-88502438D02*
X77809523Y-88550057D01*
X77809523Y-88550057D02*
X77857142Y-88645295D01*
X77857142Y-88645295D02*
X77857142Y-88788152D01*
X77857142Y-88788152D02*
X77809523Y-88883390D01*
X77809523Y-88883390D02*
X77761904Y-88931009D01*
X77761904Y-88931009D02*
X77666666Y-88978628D01*
X77666666Y-88978628D02*
X77285714Y-88978628D01*
X78238095Y-88550057D02*
X78285714Y-88502438D01*
X78285714Y-88502438D02*
X78380952Y-88454819D01*
X78380952Y-88454819D02*
X78619047Y-88454819D01*
X78619047Y-88454819D02*
X78714285Y-88502438D01*
X78714285Y-88502438D02*
X78761904Y-88550057D01*
X78761904Y-88550057D02*
X78809523Y-88645295D01*
X78809523Y-88645295D02*
X78809523Y-88740533D01*
X78809523Y-88740533D02*
X78761904Y-88883390D01*
X78761904Y-88883390D02*
X78190476Y-89454819D01*
X78190476Y-89454819D02*
X78809523Y-89454819D01*
X79761904Y-89454819D02*
X79190476Y-89454819D01*
X79476190Y-89454819D02*
X79476190Y-88454819D01*
X79476190Y-88454819D02*
X79380952Y-88597676D01*
X79380952Y-88597676D02*
X79285714Y-88692914D01*
X79285714Y-88692914D02*
X79190476Y-88740533D01*
X72322080Y-95729166D02*
X72369700Y-95776785D01*
X72369700Y-95776785D02*
X72417319Y-95919642D01*
X72417319Y-95919642D02*
X72417319Y-96014880D01*
X72417319Y-96014880D02*
X72369700Y-96157737D01*
X72369700Y-96157737D02*
X72274461Y-96252975D01*
X72274461Y-96252975D02*
X72179223Y-96300594D01*
X72179223Y-96300594D02*
X71988747Y-96348213D01*
X71988747Y-96348213D02*
X71845890Y-96348213D01*
X71845890Y-96348213D02*
X71655414Y-96300594D01*
X71655414Y-96300594D02*
X71560176Y-96252975D01*
X71560176Y-96252975D02*
X71464938Y-96157737D01*
X71464938Y-96157737D02*
X71417319Y-96014880D01*
X71417319Y-96014880D02*
X71417319Y-95919642D01*
X71417319Y-95919642D02*
X71464938Y-95776785D01*
X71464938Y-95776785D02*
X71512557Y-95729166D01*
X71417319Y-94824404D02*
X71417319Y-95300594D01*
X71417319Y-95300594D02*
X71893509Y-95348213D01*
X71893509Y-95348213D02*
X71845890Y-95300594D01*
X71845890Y-95300594D02*
X71798271Y-95205356D01*
X71798271Y-95205356D02*
X71798271Y-94967261D01*
X71798271Y-94967261D02*
X71845890Y-94872023D01*
X71845890Y-94872023D02*
X71893509Y-94824404D01*
X71893509Y-94824404D02*
X71988747Y-94776785D01*
X71988747Y-94776785D02*
X72226842Y-94776785D01*
X72226842Y-94776785D02*
X72322080Y-94824404D01*
X72322080Y-94824404D02*
X72369700Y-94872023D01*
X72369700Y-94872023D02*
X72417319Y-94967261D01*
X72417319Y-94967261D02*
X72417319Y-95205356D01*
X72417319Y-95205356D02*
X72369700Y-95300594D01*
X72369700Y-95300594D02*
X72322080Y-95348213D01*
X177449405Y-63084819D02*
X177449405Y-62084819D01*
X177449405Y-62084819D02*
X177687500Y-62084819D01*
X177687500Y-62084819D02*
X177830357Y-62132438D01*
X177830357Y-62132438D02*
X177925595Y-62227676D01*
X177925595Y-62227676D02*
X177973214Y-62322914D01*
X177973214Y-62322914D02*
X178020833Y-62513390D01*
X178020833Y-62513390D02*
X178020833Y-62656247D01*
X178020833Y-62656247D02*
X177973214Y-62846723D01*
X177973214Y-62846723D02*
X177925595Y-62941961D01*
X177925595Y-62941961D02*
X177830357Y-63037200D01*
X177830357Y-63037200D02*
X177687500Y-63084819D01*
X177687500Y-63084819D02*
X177449405Y-63084819D01*
X178354167Y-62084819D02*
X178973214Y-62084819D01*
X178973214Y-62084819D02*
X178639881Y-62465771D01*
X178639881Y-62465771D02*
X178782738Y-62465771D01*
X178782738Y-62465771D02*
X178877976Y-62513390D01*
X178877976Y-62513390D02*
X178925595Y-62561009D01*
X178925595Y-62561009D02*
X178973214Y-62656247D01*
X178973214Y-62656247D02*
X178973214Y-62894342D01*
X178973214Y-62894342D02*
X178925595Y-62989580D01*
X178925595Y-62989580D02*
X178877976Y-63037200D01*
X178877976Y-63037200D02*
X178782738Y-63084819D01*
X178782738Y-63084819D02*
X178497024Y-63084819D01*
X178497024Y-63084819D02*
X178401786Y-63037200D01*
X178401786Y-63037200D02*
X178354167Y-62989580D01*
X98504819Y-113595238D02*
X98028628Y-113928571D01*
X98504819Y-114166666D02*
X97504819Y-114166666D01*
X97504819Y-114166666D02*
X97504819Y-113785714D01*
X97504819Y-113785714D02*
X97552438Y-113690476D01*
X97552438Y-113690476D02*
X97600057Y-113642857D01*
X97600057Y-113642857D02*
X97695295Y-113595238D01*
X97695295Y-113595238D02*
X97838152Y-113595238D01*
X97838152Y-113595238D02*
X97933390Y-113642857D01*
X97933390Y-113642857D02*
X97981009Y-113690476D01*
X97981009Y-113690476D02*
X98028628Y-113785714D01*
X98028628Y-113785714D02*
X98028628Y-114166666D01*
X97504819Y-113309523D02*
X98504819Y-112976190D01*
X98504819Y-112976190D02*
X97504819Y-112642857D01*
X97600057Y-112357142D02*
X97552438Y-112309523D01*
X97552438Y-112309523D02*
X97504819Y-112214285D01*
X97504819Y-112214285D02*
X97504819Y-111976190D01*
X97504819Y-111976190D02*
X97552438Y-111880952D01*
X97552438Y-111880952D02*
X97600057Y-111833333D01*
X97600057Y-111833333D02*
X97695295Y-111785714D01*
X97695295Y-111785714D02*
X97790533Y-111785714D01*
X97790533Y-111785714D02*
X97933390Y-111833333D01*
X97933390Y-111833333D02*
X98504819Y-112404761D01*
X98504819Y-112404761D02*
X98504819Y-111785714D01*
X103727976Y-84064819D02*
X103727976Y-84779104D01*
X103727976Y-84779104D02*
X103680357Y-84921961D01*
X103680357Y-84921961D02*
X103585119Y-85017200D01*
X103585119Y-85017200D02*
X103442262Y-85064819D01*
X103442262Y-85064819D02*
X103347024Y-85064819D01*
X104727976Y-85064819D02*
X104156548Y-85064819D01*
X104442262Y-85064819D02*
X104442262Y-84064819D01*
X104442262Y-84064819D02*
X104347024Y-84207676D01*
X104347024Y-84207676D02*
X104251786Y-84302914D01*
X104251786Y-84302914D02*
X104156548Y-84350533D01*
X105108929Y-84160057D02*
X105156548Y-84112438D01*
X105156548Y-84112438D02*
X105251786Y-84064819D01*
X105251786Y-84064819D02*
X105489881Y-84064819D01*
X105489881Y-84064819D02*
X105585119Y-84112438D01*
X105585119Y-84112438D02*
X105632738Y-84160057D01*
X105632738Y-84160057D02*
X105680357Y-84255295D01*
X105680357Y-84255295D02*
X105680357Y-84350533D01*
X105680357Y-84350533D02*
X105632738Y-84493390D01*
X105632738Y-84493390D02*
X105061310Y-85064819D01*
X105061310Y-85064819D02*
X105680357Y-85064819D01*
X117984819Y-53833333D02*
X118699104Y-53833333D01*
X118699104Y-53833333D02*
X118841961Y-53880952D01*
X118841961Y-53880952D02*
X118937200Y-53976190D01*
X118937200Y-53976190D02*
X118984819Y-54119047D01*
X118984819Y-54119047D02*
X118984819Y-54214285D01*
X117984819Y-53452380D02*
X117984819Y-52833333D01*
X117984819Y-52833333D02*
X118365771Y-53166666D01*
X118365771Y-53166666D02*
X118365771Y-53023809D01*
X118365771Y-53023809D02*
X118413390Y-52928571D01*
X118413390Y-52928571D02*
X118461009Y-52880952D01*
X118461009Y-52880952D02*
X118556247Y-52833333D01*
X118556247Y-52833333D02*
X118794342Y-52833333D01*
X118794342Y-52833333D02*
X118889580Y-52880952D01*
X118889580Y-52880952D02*
X118937200Y-52928571D01*
X118937200Y-52928571D02*
X118984819Y-53023809D01*
X118984819Y-53023809D02*
X118984819Y-53309523D01*
X118984819Y-53309523D02*
X118937200Y-53404761D01*
X118937200Y-53404761D02*
X118889580Y-53452380D01*
X70754819Y-70333333D02*
X71469104Y-70333333D01*
X71469104Y-70333333D02*
X71611961Y-70380952D01*
X71611961Y-70380952D02*
X71707200Y-70476190D01*
X71707200Y-70476190D02*
X71754819Y-70619047D01*
X71754819Y-70619047D02*
X71754819Y-70714285D01*
X71754819Y-69333333D02*
X71754819Y-69904761D01*
X71754819Y-69619047D02*
X70754819Y-69619047D01*
X70754819Y-69619047D02*
X70897676Y-69714285D01*
X70897676Y-69714285D02*
X70992914Y-69809523D01*
X70992914Y-69809523D02*
X71040533Y-69904761D01*
X190329166Y-84154819D02*
X190329166Y-84869104D01*
X190329166Y-84869104D02*
X190281547Y-85011961D01*
X190281547Y-85011961D02*
X190186309Y-85107200D01*
X190186309Y-85107200D02*
X190043452Y-85154819D01*
X190043452Y-85154819D02*
X189948214Y-85154819D01*
X191281547Y-84154819D02*
X190805357Y-84154819D01*
X190805357Y-84154819D02*
X190757738Y-84631009D01*
X190757738Y-84631009D02*
X190805357Y-84583390D01*
X190805357Y-84583390D02*
X190900595Y-84535771D01*
X190900595Y-84535771D02*
X191138690Y-84535771D01*
X191138690Y-84535771D02*
X191233928Y-84583390D01*
X191233928Y-84583390D02*
X191281547Y-84631009D01*
X191281547Y-84631009D02*
X191329166Y-84726247D01*
X191329166Y-84726247D02*
X191329166Y-84964342D01*
X191329166Y-84964342D02*
X191281547Y-85059580D01*
X191281547Y-85059580D02*
X191233928Y-85107200D01*
X191233928Y-85107200D02*
X191138690Y-85154819D01*
X191138690Y-85154819D02*
X190900595Y-85154819D01*
X190900595Y-85154819D02*
X190805357Y-85107200D01*
X190805357Y-85107200D02*
X190757738Y-85059580D01*
X198146666Y-120464819D02*
X198146666Y-121179104D01*
X198146666Y-121179104D02*
X198099047Y-121321961D01*
X198099047Y-121321961D02*
X198003809Y-121417200D01*
X198003809Y-121417200D02*
X197860952Y-121464819D01*
X197860952Y-121464819D02*
X197765714Y-121464819D01*
X198575238Y-120560057D02*
X198622857Y-120512438D01*
X198622857Y-120512438D02*
X198718095Y-120464819D01*
X198718095Y-120464819D02*
X198956190Y-120464819D01*
X198956190Y-120464819D02*
X199051428Y-120512438D01*
X199051428Y-120512438D02*
X199099047Y-120560057D01*
X199099047Y-120560057D02*
X199146666Y-120655295D01*
X199146666Y-120655295D02*
X199146666Y-120750533D01*
X199146666Y-120750533D02*
X199099047Y-120893390D01*
X199099047Y-120893390D02*
X198527619Y-121464819D01*
X198527619Y-121464819D02*
X199146666Y-121464819D01*
X133197319Y-105166666D02*
X132721128Y-105499999D01*
X133197319Y-105738094D02*
X132197319Y-105738094D01*
X132197319Y-105738094D02*
X132197319Y-105357142D01*
X132197319Y-105357142D02*
X132244938Y-105261904D01*
X132244938Y-105261904D02*
X132292557Y-105214285D01*
X132292557Y-105214285D02*
X132387795Y-105166666D01*
X132387795Y-105166666D02*
X132530652Y-105166666D01*
X132530652Y-105166666D02*
X132625890Y-105214285D01*
X132625890Y-105214285D02*
X132673509Y-105261904D01*
X132673509Y-105261904D02*
X132721128Y-105357142D01*
X132721128Y-105357142D02*
X132721128Y-105738094D01*
X133197319Y-104690475D02*
X133197319Y-104499999D01*
X133197319Y-104499999D02*
X133149700Y-104404761D01*
X133149700Y-104404761D02*
X133102080Y-104357142D01*
X133102080Y-104357142D02*
X132959223Y-104261904D01*
X132959223Y-104261904D02*
X132768747Y-104214285D01*
X132768747Y-104214285D02*
X132387795Y-104214285D01*
X132387795Y-104214285D02*
X132292557Y-104261904D01*
X132292557Y-104261904D02*
X132244938Y-104309523D01*
X132244938Y-104309523D02*
X132197319Y-104404761D01*
X132197319Y-104404761D02*
X132197319Y-104595237D01*
X132197319Y-104595237D02*
X132244938Y-104690475D01*
X132244938Y-104690475D02*
X132292557Y-104738094D01*
X132292557Y-104738094D02*
X132387795Y-104785713D01*
X132387795Y-104785713D02*
X132625890Y-104785713D01*
X132625890Y-104785713D02*
X132721128Y-104738094D01*
X132721128Y-104738094D02*
X132768747Y-104690475D01*
X132768747Y-104690475D02*
X132816366Y-104595237D01*
X132816366Y-104595237D02*
X132816366Y-104404761D01*
X132816366Y-104404761D02*
X132768747Y-104309523D01*
X132768747Y-104309523D02*
X132721128Y-104261904D01*
X132721128Y-104261904D02*
X132625890Y-104214285D01*
X75019642Y-83159580D02*
X74972023Y-83207200D01*
X74972023Y-83207200D02*
X74829166Y-83254819D01*
X74829166Y-83254819D02*
X74733928Y-83254819D01*
X74733928Y-83254819D02*
X74591071Y-83207200D01*
X74591071Y-83207200D02*
X74495833Y-83111961D01*
X74495833Y-83111961D02*
X74448214Y-83016723D01*
X74448214Y-83016723D02*
X74400595Y-82826247D01*
X74400595Y-82826247D02*
X74400595Y-82683390D01*
X74400595Y-82683390D02*
X74448214Y-82492914D01*
X74448214Y-82492914D02*
X74495833Y-82397676D01*
X74495833Y-82397676D02*
X74591071Y-82302438D01*
X74591071Y-82302438D02*
X74733928Y-82254819D01*
X74733928Y-82254819D02*
X74829166Y-82254819D01*
X74829166Y-82254819D02*
X74972023Y-82302438D01*
X74972023Y-82302438D02*
X75019642Y-82350057D01*
X75972023Y-83254819D02*
X75400595Y-83254819D01*
X75686309Y-83254819D02*
X75686309Y-82254819D01*
X75686309Y-82254819D02*
X75591071Y-82397676D01*
X75591071Y-82397676D02*
X75495833Y-82492914D01*
X75495833Y-82492914D02*
X75400595Y-82540533D01*
X76305357Y-82254819D02*
X76972023Y-82254819D01*
X76972023Y-82254819D02*
X76543452Y-83254819D01*
X132037319Y-105166666D02*
X131561128Y-105499999D01*
X132037319Y-105738094D02*
X131037319Y-105738094D01*
X131037319Y-105738094D02*
X131037319Y-105357142D01*
X131037319Y-105357142D02*
X131084938Y-105261904D01*
X131084938Y-105261904D02*
X131132557Y-105214285D01*
X131132557Y-105214285D02*
X131227795Y-105166666D01*
X131227795Y-105166666D02*
X131370652Y-105166666D01*
X131370652Y-105166666D02*
X131465890Y-105214285D01*
X131465890Y-105214285D02*
X131513509Y-105261904D01*
X131513509Y-105261904D02*
X131561128Y-105357142D01*
X131561128Y-105357142D02*
X131561128Y-105738094D01*
X131465890Y-104595237D02*
X131418271Y-104690475D01*
X131418271Y-104690475D02*
X131370652Y-104738094D01*
X131370652Y-104738094D02*
X131275414Y-104785713D01*
X131275414Y-104785713D02*
X131227795Y-104785713D01*
X131227795Y-104785713D02*
X131132557Y-104738094D01*
X131132557Y-104738094D02*
X131084938Y-104690475D01*
X131084938Y-104690475D02*
X131037319Y-104595237D01*
X131037319Y-104595237D02*
X131037319Y-104404761D01*
X131037319Y-104404761D02*
X131084938Y-104309523D01*
X131084938Y-104309523D02*
X131132557Y-104261904D01*
X131132557Y-104261904D02*
X131227795Y-104214285D01*
X131227795Y-104214285D02*
X131275414Y-104214285D01*
X131275414Y-104214285D02*
X131370652Y-104261904D01*
X131370652Y-104261904D02*
X131418271Y-104309523D01*
X131418271Y-104309523D02*
X131465890Y-104404761D01*
X131465890Y-104404761D02*
X131465890Y-104595237D01*
X131465890Y-104595237D02*
X131513509Y-104690475D01*
X131513509Y-104690475D02*
X131561128Y-104738094D01*
X131561128Y-104738094D02*
X131656366Y-104785713D01*
X131656366Y-104785713D02*
X131846842Y-104785713D01*
X131846842Y-104785713D02*
X131942080Y-104738094D01*
X131942080Y-104738094D02*
X131989700Y-104690475D01*
X131989700Y-104690475D02*
X132037319Y-104595237D01*
X132037319Y-104595237D02*
X132037319Y-104404761D01*
X132037319Y-104404761D02*
X131989700Y-104309523D01*
X131989700Y-104309523D02*
X131942080Y-104261904D01*
X131942080Y-104261904D02*
X131846842Y-104214285D01*
X131846842Y-104214285D02*
X131656366Y-104214285D01*
X131656366Y-104214285D02*
X131561128Y-104261904D01*
X131561128Y-104261904D02*
X131513509Y-104309523D01*
X131513509Y-104309523D02*
X131465890Y-104404761D01*
X139115595Y-58924819D02*
X139115595Y-59734342D01*
X139115595Y-59734342D02*
X139163214Y-59829580D01*
X139163214Y-59829580D02*
X139210833Y-59877200D01*
X139210833Y-59877200D02*
X139306071Y-59924819D01*
X139306071Y-59924819D02*
X139496547Y-59924819D01*
X139496547Y-59924819D02*
X139591785Y-59877200D01*
X139591785Y-59877200D02*
X139639404Y-59829580D01*
X139639404Y-59829580D02*
X139687023Y-59734342D01*
X139687023Y-59734342D02*
X139687023Y-58924819D01*
X140591785Y-58924819D02*
X140401309Y-58924819D01*
X140401309Y-58924819D02*
X140306071Y-58972438D01*
X140306071Y-58972438D02*
X140258452Y-59020057D01*
X140258452Y-59020057D02*
X140163214Y-59162914D01*
X140163214Y-59162914D02*
X140115595Y-59353390D01*
X140115595Y-59353390D02*
X140115595Y-59734342D01*
X140115595Y-59734342D02*
X140163214Y-59829580D01*
X140163214Y-59829580D02*
X140210833Y-59877200D01*
X140210833Y-59877200D02*
X140306071Y-59924819D01*
X140306071Y-59924819D02*
X140496547Y-59924819D01*
X140496547Y-59924819D02*
X140591785Y-59877200D01*
X140591785Y-59877200D02*
X140639404Y-59829580D01*
X140639404Y-59829580D02*
X140687023Y-59734342D01*
X140687023Y-59734342D02*
X140687023Y-59496247D01*
X140687023Y-59496247D02*
X140639404Y-59401009D01*
X140639404Y-59401009D02*
X140591785Y-59353390D01*
X140591785Y-59353390D02*
X140496547Y-59305771D01*
X140496547Y-59305771D02*
X140306071Y-59305771D01*
X140306071Y-59305771D02*
X140210833Y-59353390D01*
X140210833Y-59353390D02*
X140163214Y-59401009D01*
X140163214Y-59401009D02*
X140115595Y-59496247D01*
X146400595Y-87354819D02*
X146400595Y-88164342D01*
X146400595Y-88164342D02*
X146448214Y-88259580D01*
X146448214Y-88259580D02*
X146495833Y-88307200D01*
X146495833Y-88307200D02*
X146591071Y-88354819D01*
X146591071Y-88354819D02*
X146781547Y-88354819D01*
X146781547Y-88354819D02*
X146876785Y-88307200D01*
X146876785Y-88307200D02*
X146924404Y-88259580D01*
X146924404Y-88259580D02*
X146972023Y-88164342D01*
X146972023Y-88164342D02*
X146972023Y-87354819D01*
X147924404Y-87354819D02*
X147448214Y-87354819D01*
X147448214Y-87354819D02*
X147400595Y-87831009D01*
X147400595Y-87831009D02*
X147448214Y-87783390D01*
X147448214Y-87783390D02*
X147543452Y-87735771D01*
X147543452Y-87735771D02*
X147781547Y-87735771D01*
X147781547Y-87735771D02*
X147876785Y-87783390D01*
X147876785Y-87783390D02*
X147924404Y-87831009D01*
X147924404Y-87831009D02*
X147972023Y-87926247D01*
X147972023Y-87926247D02*
X147972023Y-88164342D01*
X147972023Y-88164342D02*
X147924404Y-88259580D01*
X147924404Y-88259580D02*
X147876785Y-88307200D01*
X147876785Y-88307200D02*
X147781547Y-88354819D01*
X147781547Y-88354819D02*
X147543452Y-88354819D01*
X147543452Y-88354819D02*
X147448214Y-88307200D01*
X147448214Y-88307200D02*
X147400595Y-88259580D01*
X193874819Y-110356666D02*
X193398628Y-110689999D01*
X193874819Y-110928094D02*
X192874819Y-110928094D01*
X192874819Y-110928094D02*
X192874819Y-110547142D01*
X192874819Y-110547142D02*
X192922438Y-110451904D01*
X192922438Y-110451904D02*
X192970057Y-110404285D01*
X192970057Y-110404285D02*
X193065295Y-110356666D01*
X193065295Y-110356666D02*
X193208152Y-110356666D01*
X193208152Y-110356666D02*
X193303390Y-110404285D01*
X193303390Y-110404285D02*
X193351009Y-110451904D01*
X193351009Y-110451904D02*
X193398628Y-110547142D01*
X193398628Y-110547142D02*
X193398628Y-110928094D01*
X193208152Y-109499523D02*
X193874819Y-109499523D01*
X192827200Y-109737618D02*
X193541485Y-109975713D01*
X193541485Y-109975713D02*
X193541485Y-109356666D01*
X59034819Y-105952857D02*
X58558628Y-106286190D01*
X59034819Y-106524285D02*
X58034819Y-106524285D01*
X58034819Y-106524285D02*
X58034819Y-106143333D01*
X58034819Y-106143333D02*
X58082438Y-106048095D01*
X58082438Y-106048095D02*
X58130057Y-106000476D01*
X58130057Y-106000476D02*
X58225295Y-105952857D01*
X58225295Y-105952857D02*
X58368152Y-105952857D01*
X58368152Y-105952857D02*
X58463390Y-106000476D01*
X58463390Y-106000476D02*
X58511009Y-106048095D01*
X58511009Y-106048095D02*
X58558628Y-106143333D01*
X58558628Y-106143333D02*
X58558628Y-106524285D01*
X59034819Y-105000476D02*
X59034819Y-105571904D01*
X59034819Y-105286190D02*
X58034819Y-105286190D01*
X58034819Y-105286190D02*
X58177676Y-105381428D01*
X58177676Y-105381428D02*
X58272914Y-105476666D01*
X58272914Y-105476666D02*
X58320533Y-105571904D01*
X58463390Y-104429047D02*
X58415771Y-104524285D01*
X58415771Y-104524285D02*
X58368152Y-104571904D01*
X58368152Y-104571904D02*
X58272914Y-104619523D01*
X58272914Y-104619523D02*
X58225295Y-104619523D01*
X58225295Y-104619523D02*
X58130057Y-104571904D01*
X58130057Y-104571904D02*
X58082438Y-104524285D01*
X58082438Y-104524285D02*
X58034819Y-104429047D01*
X58034819Y-104429047D02*
X58034819Y-104238571D01*
X58034819Y-104238571D02*
X58082438Y-104143333D01*
X58082438Y-104143333D02*
X58130057Y-104095714D01*
X58130057Y-104095714D02*
X58225295Y-104048095D01*
X58225295Y-104048095D02*
X58272914Y-104048095D01*
X58272914Y-104048095D02*
X58368152Y-104095714D01*
X58368152Y-104095714D02*
X58415771Y-104143333D01*
X58415771Y-104143333D02*
X58463390Y-104238571D01*
X58463390Y-104238571D02*
X58463390Y-104429047D01*
X58463390Y-104429047D02*
X58511009Y-104524285D01*
X58511009Y-104524285D02*
X58558628Y-104571904D01*
X58558628Y-104571904D02*
X58653866Y-104619523D01*
X58653866Y-104619523D02*
X58844342Y-104619523D01*
X58844342Y-104619523D02*
X58939580Y-104571904D01*
X58939580Y-104571904D02*
X58987200Y-104524285D01*
X58987200Y-104524285D02*
X59034819Y-104429047D01*
X59034819Y-104429047D02*
X59034819Y-104238571D01*
X59034819Y-104238571D02*
X58987200Y-104143333D01*
X58987200Y-104143333D02*
X58939580Y-104095714D01*
X58939580Y-104095714D02*
X58844342Y-104048095D01*
X58844342Y-104048095D02*
X58653866Y-104048095D01*
X58653866Y-104048095D02*
X58558628Y-104095714D01*
X58558628Y-104095714D02*
X58511009Y-104143333D01*
X58511009Y-104143333D02*
X58463390Y-104238571D01*
X70166666Y-112431009D02*
X69833333Y-112431009D01*
X69833333Y-112954819D02*
X69833333Y-111954819D01*
X69833333Y-111954819D02*
X70309523Y-111954819D01*
X71214285Y-112954819D02*
X70642857Y-112954819D01*
X70928571Y-112954819D02*
X70928571Y-111954819D01*
X70928571Y-111954819D02*
X70833333Y-112097676D01*
X70833333Y-112097676D02*
X70738095Y-112192914D01*
X70738095Y-112192914D02*
X70642857Y-112240533D01*
X93967319Y-73983333D02*
X94681604Y-73983333D01*
X94681604Y-73983333D02*
X94824461Y-74030952D01*
X94824461Y-74030952D02*
X94919700Y-74126190D01*
X94919700Y-74126190D02*
X94967319Y-74269047D01*
X94967319Y-74269047D02*
X94967319Y-74364285D01*
X94967319Y-73507142D02*
X93967319Y-73507142D01*
X93967319Y-73507142D02*
X93967319Y-73126190D01*
X93967319Y-73126190D02*
X94014938Y-73030952D01*
X94014938Y-73030952D02*
X94062557Y-72983333D01*
X94062557Y-72983333D02*
X94157795Y-72935714D01*
X94157795Y-72935714D02*
X94300652Y-72935714D01*
X94300652Y-72935714D02*
X94395890Y-72983333D01*
X94395890Y-72983333D02*
X94443509Y-73030952D01*
X94443509Y-73030952D02*
X94491128Y-73126190D01*
X94491128Y-73126190D02*
X94491128Y-73507142D01*
X94062557Y-72554761D02*
X94014938Y-72507142D01*
X94014938Y-72507142D02*
X93967319Y-72411904D01*
X93967319Y-72411904D02*
X93967319Y-72173809D01*
X93967319Y-72173809D02*
X94014938Y-72078571D01*
X94014938Y-72078571D02*
X94062557Y-72030952D01*
X94062557Y-72030952D02*
X94157795Y-71983333D01*
X94157795Y-71983333D02*
X94253033Y-71983333D01*
X94253033Y-71983333D02*
X94395890Y-72030952D01*
X94395890Y-72030952D02*
X94967319Y-72602380D01*
X94967319Y-72602380D02*
X94967319Y-71983333D01*
X116417319Y-66061904D02*
X117226842Y-66061904D01*
X117226842Y-66061904D02*
X117322080Y-66014285D01*
X117322080Y-66014285D02*
X117369700Y-65966666D01*
X117369700Y-65966666D02*
X117417319Y-65871428D01*
X117417319Y-65871428D02*
X117417319Y-65680952D01*
X117417319Y-65680952D02*
X117369700Y-65585714D01*
X117369700Y-65585714D02*
X117322080Y-65538095D01*
X117322080Y-65538095D02*
X117226842Y-65490476D01*
X117226842Y-65490476D02*
X116417319Y-65490476D01*
X117417319Y-64490476D02*
X117417319Y-65061904D01*
X117417319Y-64776190D02*
X116417319Y-64776190D01*
X116417319Y-64776190D02*
X116560176Y-64871428D01*
X116560176Y-64871428D02*
X116655414Y-64966666D01*
X116655414Y-64966666D02*
X116703033Y-65061904D01*
X59829167Y-53942200D02*
X59972024Y-53989819D01*
X59972024Y-53989819D02*
X60210119Y-53989819D01*
X60210119Y-53989819D02*
X60305357Y-53942200D01*
X60305357Y-53942200D02*
X60352976Y-53894580D01*
X60352976Y-53894580D02*
X60400595Y-53799342D01*
X60400595Y-53799342D02*
X60400595Y-53704104D01*
X60400595Y-53704104D02*
X60352976Y-53608866D01*
X60352976Y-53608866D02*
X60305357Y-53561247D01*
X60305357Y-53561247D02*
X60210119Y-53513628D01*
X60210119Y-53513628D02*
X60019643Y-53466009D01*
X60019643Y-53466009D02*
X59924405Y-53418390D01*
X59924405Y-53418390D02*
X59876786Y-53370771D01*
X59876786Y-53370771D02*
X59829167Y-53275533D01*
X59829167Y-53275533D02*
X59829167Y-53180295D01*
X59829167Y-53180295D02*
X59876786Y-53085057D01*
X59876786Y-53085057D02*
X59924405Y-53037438D01*
X59924405Y-53037438D02*
X60019643Y-52989819D01*
X60019643Y-52989819D02*
X60257738Y-52989819D01*
X60257738Y-52989819D02*
X60400595Y-53037438D01*
X60733929Y-52989819D02*
X60972024Y-53989819D01*
X60972024Y-53989819D02*
X61162500Y-53275533D01*
X61162500Y-53275533D02*
X61352976Y-53989819D01*
X61352976Y-53989819D02*
X61591072Y-52989819D01*
X62495833Y-53989819D02*
X61924405Y-53989819D01*
X62210119Y-53989819D02*
X62210119Y-52989819D01*
X62210119Y-52989819D02*
X62114881Y-53132676D01*
X62114881Y-53132676D02*
X62019643Y-53227914D01*
X62019643Y-53227914D02*
X61924405Y-53275533D01*
X103666666Y-90454819D02*
X103666666Y-91169104D01*
X103666666Y-91169104D02*
X103619047Y-91311961D01*
X103619047Y-91311961D02*
X103523809Y-91407200D01*
X103523809Y-91407200D02*
X103380952Y-91454819D01*
X103380952Y-91454819D02*
X103285714Y-91454819D01*
X104571428Y-90454819D02*
X104380952Y-90454819D01*
X104380952Y-90454819D02*
X104285714Y-90502438D01*
X104285714Y-90502438D02*
X104238095Y-90550057D01*
X104238095Y-90550057D02*
X104142857Y-90692914D01*
X104142857Y-90692914D02*
X104095238Y-90883390D01*
X104095238Y-90883390D02*
X104095238Y-91264342D01*
X104095238Y-91264342D02*
X104142857Y-91359580D01*
X104142857Y-91359580D02*
X104190476Y-91407200D01*
X104190476Y-91407200D02*
X104285714Y-91454819D01*
X104285714Y-91454819D02*
X104476190Y-91454819D01*
X104476190Y-91454819D02*
X104571428Y-91407200D01*
X104571428Y-91407200D02*
X104619047Y-91359580D01*
X104619047Y-91359580D02*
X104666666Y-91264342D01*
X104666666Y-91264342D02*
X104666666Y-91026247D01*
X104666666Y-91026247D02*
X104619047Y-90931009D01*
X104619047Y-90931009D02*
X104571428Y-90883390D01*
X104571428Y-90883390D02*
X104476190Y-90835771D01*
X104476190Y-90835771D02*
X104285714Y-90835771D01*
X104285714Y-90835771D02*
X104190476Y-90883390D01*
X104190476Y-90883390D02*
X104142857Y-90931009D01*
X104142857Y-90931009D02*
X104095238Y-91026247D01*
X64941128Y-81476190D02*
X65417319Y-81476190D01*
X64417319Y-81809523D02*
X64941128Y-81476190D01*
X64941128Y-81476190D02*
X64417319Y-81142857D01*
X65417319Y-80285714D02*
X65417319Y-80857142D01*
X65417319Y-80571428D02*
X64417319Y-80571428D01*
X64417319Y-80571428D02*
X64560176Y-80666666D01*
X64560176Y-80666666D02*
X64655414Y-80761904D01*
X64655414Y-80761904D02*
X64703033Y-80857142D01*
X75859580Y-99666666D02*
X75907200Y-99714285D01*
X75907200Y-99714285D02*
X75954819Y-99857142D01*
X75954819Y-99857142D02*
X75954819Y-99952380D01*
X75954819Y-99952380D02*
X75907200Y-100095237D01*
X75907200Y-100095237D02*
X75811961Y-100190475D01*
X75811961Y-100190475D02*
X75716723Y-100238094D01*
X75716723Y-100238094D02*
X75526247Y-100285713D01*
X75526247Y-100285713D02*
X75383390Y-100285713D01*
X75383390Y-100285713D02*
X75192914Y-100238094D01*
X75192914Y-100238094D02*
X75097676Y-100190475D01*
X75097676Y-100190475D02*
X75002438Y-100095237D01*
X75002438Y-100095237D02*
X74954819Y-99952380D01*
X74954819Y-99952380D02*
X74954819Y-99857142D01*
X74954819Y-99857142D02*
X75002438Y-99714285D01*
X75002438Y-99714285D02*
X75050057Y-99666666D01*
X74954819Y-98809523D02*
X74954819Y-98999999D01*
X74954819Y-98999999D02*
X75002438Y-99095237D01*
X75002438Y-99095237D02*
X75050057Y-99142856D01*
X75050057Y-99142856D02*
X75192914Y-99238094D01*
X75192914Y-99238094D02*
X75383390Y-99285713D01*
X75383390Y-99285713D02*
X75764342Y-99285713D01*
X75764342Y-99285713D02*
X75859580Y-99238094D01*
X75859580Y-99238094D02*
X75907200Y-99190475D01*
X75907200Y-99190475D02*
X75954819Y-99095237D01*
X75954819Y-99095237D02*
X75954819Y-98904761D01*
X75954819Y-98904761D02*
X75907200Y-98809523D01*
X75907200Y-98809523D02*
X75859580Y-98761904D01*
X75859580Y-98761904D02*
X75764342Y-98714285D01*
X75764342Y-98714285D02*
X75526247Y-98714285D01*
X75526247Y-98714285D02*
X75431009Y-98761904D01*
X75431009Y-98761904D02*
X75383390Y-98809523D01*
X75383390Y-98809523D02*
X75335771Y-98904761D01*
X75335771Y-98904761D02*
X75335771Y-99095237D01*
X75335771Y-99095237D02*
X75383390Y-99190475D01*
X75383390Y-99190475D02*
X75431009Y-99238094D01*
X75431009Y-99238094D02*
X75526247Y-99285713D01*
X83874405Y-69224819D02*
X83874405Y-68224819D01*
X83874405Y-68224819D02*
X84112500Y-68224819D01*
X84112500Y-68224819D02*
X84255357Y-68272438D01*
X84255357Y-68272438D02*
X84350595Y-68367676D01*
X84350595Y-68367676D02*
X84398214Y-68462914D01*
X84398214Y-68462914D02*
X84445833Y-68653390D01*
X84445833Y-68653390D02*
X84445833Y-68796247D01*
X84445833Y-68796247D02*
X84398214Y-68986723D01*
X84398214Y-68986723D02*
X84350595Y-69081961D01*
X84350595Y-69081961D02*
X84255357Y-69177200D01*
X84255357Y-69177200D02*
X84112500Y-69224819D01*
X84112500Y-69224819D02*
X83874405Y-69224819D01*
X85398214Y-69224819D02*
X84826786Y-69224819D01*
X85112500Y-69224819D02*
X85112500Y-68224819D01*
X85112500Y-68224819D02*
X85017262Y-68367676D01*
X85017262Y-68367676D02*
X84922024Y-68462914D01*
X84922024Y-68462914D02*
X84826786Y-68510533D01*
X90700595Y-68654819D02*
X90700595Y-67654819D01*
X91272023Y-68654819D02*
X90843452Y-68083390D01*
X91272023Y-67654819D02*
X90700595Y-68226247D01*
X91325595Y-78079819D02*
X91325595Y-78889342D01*
X91325595Y-78889342D02*
X91373214Y-78984580D01*
X91373214Y-78984580D02*
X91420833Y-79032200D01*
X91420833Y-79032200D02*
X91516071Y-79079819D01*
X91516071Y-79079819D02*
X91706547Y-79079819D01*
X91706547Y-79079819D02*
X91801785Y-79032200D01*
X91801785Y-79032200D02*
X91849404Y-78984580D01*
X91849404Y-78984580D02*
X91897023Y-78889342D01*
X91897023Y-78889342D02*
X91897023Y-78079819D01*
X92277976Y-78079819D02*
X92897023Y-78079819D01*
X92897023Y-78079819D02*
X92563690Y-78460771D01*
X92563690Y-78460771D02*
X92706547Y-78460771D01*
X92706547Y-78460771D02*
X92801785Y-78508390D01*
X92801785Y-78508390D02*
X92849404Y-78556009D01*
X92849404Y-78556009D02*
X92897023Y-78651247D01*
X92897023Y-78651247D02*
X92897023Y-78889342D01*
X92897023Y-78889342D02*
X92849404Y-78984580D01*
X92849404Y-78984580D02*
X92801785Y-79032200D01*
X92801785Y-79032200D02*
X92706547Y-79079819D01*
X92706547Y-79079819D02*
X92420833Y-79079819D01*
X92420833Y-79079819D02*
X92325595Y-79032200D01*
X92325595Y-79032200D02*
X92277976Y-78984580D01*
X88222319Y-97982857D02*
X87746128Y-98316190D01*
X88222319Y-98554285D02*
X87222319Y-98554285D01*
X87222319Y-98554285D02*
X87222319Y-98173333D01*
X87222319Y-98173333D02*
X87269938Y-98078095D01*
X87269938Y-98078095D02*
X87317557Y-98030476D01*
X87317557Y-98030476D02*
X87412795Y-97982857D01*
X87412795Y-97982857D02*
X87555652Y-97982857D01*
X87555652Y-97982857D02*
X87650890Y-98030476D01*
X87650890Y-98030476D02*
X87698509Y-98078095D01*
X87698509Y-98078095D02*
X87746128Y-98173333D01*
X87746128Y-98173333D02*
X87746128Y-98554285D01*
X88222319Y-97030476D02*
X88222319Y-97601904D01*
X88222319Y-97316190D02*
X87222319Y-97316190D01*
X87222319Y-97316190D02*
X87365176Y-97411428D01*
X87365176Y-97411428D02*
X87460414Y-97506666D01*
X87460414Y-97506666D02*
X87508033Y-97601904D01*
X88222319Y-96554285D02*
X88222319Y-96363809D01*
X88222319Y-96363809D02*
X88174700Y-96268571D01*
X88174700Y-96268571D02*
X88127080Y-96220952D01*
X88127080Y-96220952D02*
X87984223Y-96125714D01*
X87984223Y-96125714D02*
X87793747Y-96078095D01*
X87793747Y-96078095D02*
X87412795Y-96078095D01*
X87412795Y-96078095D02*
X87317557Y-96125714D01*
X87317557Y-96125714D02*
X87269938Y-96173333D01*
X87269938Y-96173333D02*
X87222319Y-96268571D01*
X87222319Y-96268571D02*
X87222319Y-96459047D01*
X87222319Y-96459047D02*
X87269938Y-96554285D01*
X87269938Y-96554285D02*
X87317557Y-96601904D01*
X87317557Y-96601904D02*
X87412795Y-96649523D01*
X87412795Y-96649523D02*
X87650890Y-96649523D01*
X87650890Y-96649523D02*
X87746128Y-96601904D01*
X87746128Y-96601904D02*
X87793747Y-96554285D01*
X87793747Y-96554285D02*
X87841366Y-96459047D01*
X87841366Y-96459047D02*
X87841366Y-96268571D01*
X87841366Y-96268571D02*
X87793747Y-96173333D01*
X87793747Y-96173333D02*
X87746128Y-96125714D01*
X87746128Y-96125714D02*
X87650890Y-96078095D01*
X142984819Y-53809523D02*
X143699104Y-53809523D01*
X143699104Y-53809523D02*
X143841961Y-53857142D01*
X143841961Y-53857142D02*
X143937200Y-53952380D01*
X143937200Y-53952380D02*
X143984819Y-54095237D01*
X143984819Y-54095237D02*
X143984819Y-54190475D01*
X143984819Y-52809523D02*
X143984819Y-53380951D01*
X143984819Y-53095237D02*
X142984819Y-53095237D01*
X142984819Y-53095237D02*
X143127676Y-53190475D01*
X143127676Y-53190475D02*
X143222914Y-53285713D01*
X143222914Y-53285713D02*
X143270533Y-53380951D01*
X143984819Y-51857142D02*
X143984819Y-52428570D01*
X143984819Y-52142856D02*
X142984819Y-52142856D01*
X142984819Y-52142856D02*
X143127676Y-52238094D01*
X143127676Y-52238094D02*
X143222914Y-52333332D01*
X143222914Y-52333332D02*
X143270533Y-52428570D01*
X83322080Y-74666666D02*
X83369700Y-74714285D01*
X83369700Y-74714285D02*
X83417319Y-74857142D01*
X83417319Y-74857142D02*
X83417319Y-74952380D01*
X83417319Y-74952380D02*
X83369700Y-75095237D01*
X83369700Y-75095237D02*
X83274461Y-75190475D01*
X83274461Y-75190475D02*
X83179223Y-75238094D01*
X83179223Y-75238094D02*
X82988747Y-75285713D01*
X82988747Y-75285713D02*
X82845890Y-75285713D01*
X82845890Y-75285713D02*
X82655414Y-75238094D01*
X82655414Y-75238094D02*
X82560176Y-75190475D01*
X82560176Y-75190475D02*
X82464938Y-75095237D01*
X82464938Y-75095237D02*
X82417319Y-74952380D01*
X82417319Y-74952380D02*
X82417319Y-74857142D01*
X82417319Y-74857142D02*
X82464938Y-74714285D01*
X82464938Y-74714285D02*
X82512557Y-74666666D01*
X83417319Y-74190475D02*
X83417319Y-73999999D01*
X83417319Y-73999999D02*
X83369700Y-73904761D01*
X83369700Y-73904761D02*
X83322080Y-73857142D01*
X83322080Y-73857142D02*
X83179223Y-73761904D01*
X83179223Y-73761904D02*
X82988747Y-73714285D01*
X82988747Y-73714285D02*
X82607795Y-73714285D01*
X82607795Y-73714285D02*
X82512557Y-73761904D01*
X82512557Y-73761904D02*
X82464938Y-73809523D01*
X82464938Y-73809523D02*
X82417319Y-73904761D01*
X82417319Y-73904761D02*
X82417319Y-74095237D01*
X82417319Y-74095237D02*
X82464938Y-74190475D01*
X82464938Y-74190475D02*
X82512557Y-74238094D01*
X82512557Y-74238094D02*
X82607795Y-74285713D01*
X82607795Y-74285713D02*
X82845890Y-74285713D01*
X82845890Y-74285713D02*
X82941128Y-74238094D01*
X82941128Y-74238094D02*
X82988747Y-74190475D01*
X82988747Y-74190475D02*
X83036366Y-74095237D01*
X83036366Y-74095237D02*
X83036366Y-73904761D01*
X83036366Y-73904761D02*
X82988747Y-73809523D01*
X82988747Y-73809523D02*
X82941128Y-73761904D01*
X82941128Y-73761904D02*
X82845890Y-73714285D01*
X121679166Y-110154819D02*
X121679166Y-110869104D01*
X121679166Y-110869104D02*
X121631547Y-111011961D01*
X121631547Y-111011961D02*
X121536309Y-111107200D01*
X121536309Y-111107200D02*
X121393452Y-111154819D01*
X121393452Y-111154819D02*
X121298214Y-111154819D01*
X122155357Y-111154819D02*
X122155357Y-110154819D01*
X122155357Y-110154819D02*
X122536309Y-110154819D01*
X122536309Y-110154819D02*
X122631547Y-110202438D01*
X122631547Y-110202438D02*
X122679166Y-110250057D01*
X122679166Y-110250057D02*
X122726785Y-110345295D01*
X122726785Y-110345295D02*
X122726785Y-110488152D01*
X122726785Y-110488152D02*
X122679166Y-110583390D01*
X122679166Y-110583390D02*
X122631547Y-110631009D01*
X122631547Y-110631009D02*
X122536309Y-110678628D01*
X122536309Y-110678628D02*
X122155357Y-110678628D01*
X123679166Y-111154819D02*
X123107738Y-111154819D01*
X123393452Y-111154819D02*
X123393452Y-110154819D01*
X123393452Y-110154819D02*
X123298214Y-110297676D01*
X123298214Y-110297676D02*
X123202976Y-110392914D01*
X123202976Y-110392914D02*
X123107738Y-110440533D01*
X165290595Y-62504819D02*
X165290595Y-63314342D01*
X165290595Y-63314342D02*
X165338214Y-63409580D01*
X165338214Y-63409580D02*
X165385833Y-63457200D01*
X165385833Y-63457200D02*
X165481071Y-63504819D01*
X165481071Y-63504819D02*
X165671547Y-63504819D01*
X165671547Y-63504819D02*
X165766785Y-63457200D01*
X165766785Y-63457200D02*
X165814404Y-63409580D01*
X165814404Y-63409580D02*
X165862023Y-63314342D01*
X165862023Y-63314342D02*
X165862023Y-62504819D01*
X166766785Y-62838152D02*
X166766785Y-63504819D01*
X166528690Y-62457200D02*
X166290595Y-63171485D01*
X166290595Y-63171485D02*
X166909642Y-63171485D01*
X60697319Y-80976666D02*
X60221128Y-81309999D01*
X60697319Y-81548094D02*
X59697319Y-81548094D01*
X59697319Y-81548094D02*
X59697319Y-81167142D01*
X59697319Y-81167142D02*
X59744938Y-81071904D01*
X59744938Y-81071904D02*
X59792557Y-81024285D01*
X59792557Y-81024285D02*
X59887795Y-80976666D01*
X59887795Y-80976666D02*
X60030652Y-80976666D01*
X60030652Y-80976666D02*
X60125890Y-81024285D01*
X60125890Y-81024285D02*
X60173509Y-81071904D01*
X60173509Y-81071904D02*
X60221128Y-81167142D01*
X60221128Y-81167142D02*
X60221128Y-81548094D01*
X60697319Y-80024285D02*
X60697319Y-80595713D01*
X60697319Y-80309999D02*
X59697319Y-80309999D01*
X59697319Y-80309999D02*
X59840176Y-80405237D01*
X59840176Y-80405237D02*
X59935414Y-80500475D01*
X59935414Y-80500475D02*
X59983033Y-80595713D01*
X62996009Y-114318333D02*
X62996009Y-114651666D01*
X63519819Y-114651666D02*
X62519819Y-114651666D01*
X62519819Y-114651666D02*
X62519819Y-114175476D01*
X62996009Y-113461190D02*
X63043628Y-113318333D01*
X63043628Y-113318333D02*
X63091247Y-113270714D01*
X63091247Y-113270714D02*
X63186485Y-113223095D01*
X63186485Y-113223095D02*
X63329342Y-113223095D01*
X63329342Y-113223095D02*
X63424580Y-113270714D01*
X63424580Y-113270714D02*
X63472200Y-113318333D01*
X63472200Y-113318333D02*
X63519819Y-113413571D01*
X63519819Y-113413571D02*
X63519819Y-113794523D01*
X63519819Y-113794523D02*
X62519819Y-113794523D01*
X62519819Y-113794523D02*
X62519819Y-113461190D01*
X62519819Y-113461190D02*
X62567438Y-113365952D01*
X62567438Y-113365952D02*
X62615057Y-113318333D01*
X62615057Y-113318333D02*
X62710295Y-113270714D01*
X62710295Y-113270714D02*
X62805533Y-113270714D01*
X62805533Y-113270714D02*
X62900771Y-113318333D01*
X62900771Y-113318333D02*
X62948390Y-113365952D01*
X62948390Y-113365952D02*
X62996009Y-113461190D01*
X62996009Y-113461190D02*
X62996009Y-113794523D01*
X63519819Y-112270714D02*
X63519819Y-112842142D01*
X63519819Y-112556428D02*
X62519819Y-112556428D01*
X62519819Y-112556428D02*
X62662676Y-112651666D01*
X62662676Y-112651666D02*
X62757914Y-112746904D01*
X62757914Y-112746904D02*
X62805533Y-112842142D01*
X181995833Y-81159580D02*
X181948214Y-81207200D01*
X181948214Y-81207200D02*
X181805357Y-81254819D01*
X181805357Y-81254819D02*
X181710119Y-81254819D01*
X181710119Y-81254819D02*
X181567262Y-81207200D01*
X181567262Y-81207200D02*
X181472024Y-81111961D01*
X181472024Y-81111961D02*
X181424405Y-81016723D01*
X181424405Y-81016723D02*
X181376786Y-80826247D01*
X181376786Y-80826247D02*
X181376786Y-80683390D01*
X181376786Y-80683390D02*
X181424405Y-80492914D01*
X181424405Y-80492914D02*
X181472024Y-80397676D01*
X181472024Y-80397676D02*
X181567262Y-80302438D01*
X181567262Y-80302438D02*
X181710119Y-80254819D01*
X181710119Y-80254819D02*
X181805357Y-80254819D01*
X181805357Y-80254819D02*
X181948214Y-80302438D01*
X181948214Y-80302438D02*
X181995833Y-80350057D01*
X182567262Y-80683390D02*
X182472024Y-80635771D01*
X182472024Y-80635771D02*
X182424405Y-80588152D01*
X182424405Y-80588152D02*
X182376786Y-80492914D01*
X182376786Y-80492914D02*
X182376786Y-80445295D01*
X182376786Y-80445295D02*
X182424405Y-80350057D01*
X182424405Y-80350057D02*
X182472024Y-80302438D01*
X182472024Y-80302438D02*
X182567262Y-80254819D01*
X182567262Y-80254819D02*
X182757738Y-80254819D01*
X182757738Y-80254819D02*
X182852976Y-80302438D01*
X182852976Y-80302438D02*
X182900595Y-80350057D01*
X182900595Y-80350057D02*
X182948214Y-80445295D01*
X182948214Y-80445295D02*
X182948214Y-80492914D01*
X182948214Y-80492914D02*
X182900595Y-80588152D01*
X182900595Y-80588152D02*
X182852976Y-80635771D01*
X182852976Y-80635771D02*
X182757738Y-80683390D01*
X182757738Y-80683390D02*
X182567262Y-80683390D01*
X182567262Y-80683390D02*
X182472024Y-80731009D01*
X182472024Y-80731009D02*
X182424405Y-80778628D01*
X182424405Y-80778628D02*
X182376786Y-80873866D01*
X182376786Y-80873866D02*
X182376786Y-81064342D01*
X182376786Y-81064342D02*
X182424405Y-81159580D01*
X182424405Y-81159580D02*
X182472024Y-81207200D01*
X182472024Y-81207200D02*
X182567262Y-81254819D01*
X182567262Y-81254819D02*
X182757738Y-81254819D01*
X182757738Y-81254819D02*
X182852976Y-81207200D01*
X182852976Y-81207200D02*
X182900595Y-81159580D01*
X182900595Y-81159580D02*
X182948214Y-81064342D01*
X182948214Y-81064342D02*
X182948214Y-80873866D01*
X182948214Y-80873866D02*
X182900595Y-80778628D01*
X182900595Y-80778628D02*
X182852976Y-80731009D01*
X182852976Y-80731009D02*
X182757738Y-80683390D01*
X133209642Y-92034819D02*
X132876309Y-91558628D01*
X132638214Y-92034819D02*
X132638214Y-91034819D01*
X132638214Y-91034819D02*
X133019166Y-91034819D01*
X133019166Y-91034819D02*
X133114404Y-91082438D01*
X133114404Y-91082438D02*
X133162023Y-91130057D01*
X133162023Y-91130057D02*
X133209642Y-91225295D01*
X133209642Y-91225295D02*
X133209642Y-91368152D01*
X133209642Y-91368152D02*
X133162023Y-91463390D01*
X133162023Y-91463390D02*
X133114404Y-91511009D01*
X133114404Y-91511009D02*
X133019166Y-91558628D01*
X133019166Y-91558628D02*
X132638214Y-91558628D01*
X134162023Y-92034819D02*
X133590595Y-92034819D01*
X133876309Y-92034819D02*
X133876309Y-91034819D01*
X133876309Y-91034819D02*
X133781071Y-91177676D01*
X133781071Y-91177676D02*
X133685833Y-91272914D01*
X133685833Y-91272914D02*
X133590595Y-91320533D01*
X135019166Y-91034819D02*
X134828690Y-91034819D01*
X134828690Y-91034819D02*
X134733452Y-91082438D01*
X134733452Y-91082438D02*
X134685833Y-91130057D01*
X134685833Y-91130057D02*
X134590595Y-91272914D01*
X134590595Y-91272914D02*
X134542976Y-91463390D01*
X134542976Y-91463390D02*
X134542976Y-91844342D01*
X134542976Y-91844342D02*
X134590595Y-91939580D01*
X134590595Y-91939580D02*
X134638214Y-91987200D01*
X134638214Y-91987200D02*
X134733452Y-92034819D01*
X134733452Y-92034819D02*
X134923928Y-92034819D01*
X134923928Y-92034819D02*
X135019166Y-91987200D01*
X135019166Y-91987200D02*
X135066785Y-91939580D01*
X135066785Y-91939580D02*
X135114404Y-91844342D01*
X135114404Y-91844342D02*
X135114404Y-91606247D01*
X135114404Y-91606247D02*
X135066785Y-91511009D01*
X135066785Y-91511009D02*
X135019166Y-91463390D01*
X135019166Y-91463390D02*
X134923928Y-91415771D01*
X134923928Y-91415771D02*
X134733452Y-91415771D01*
X134733452Y-91415771D02*
X134638214Y-91463390D01*
X134638214Y-91463390D02*
X134590595Y-91511009D01*
X134590595Y-91511009D02*
X134542976Y-91606247D01*
X72857142Y-119659580D02*
X72809523Y-119707200D01*
X72809523Y-119707200D02*
X72666666Y-119754819D01*
X72666666Y-119754819D02*
X72571428Y-119754819D01*
X72571428Y-119754819D02*
X72428571Y-119707200D01*
X72428571Y-119707200D02*
X72333333Y-119611961D01*
X72333333Y-119611961D02*
X72285714Y-119516723D01*
X72285714Y-119516723D02*
X72238095Y-119326247D01*
X72238095Y-119326247D02*
X72238095Y-119183390D01*
X72238095Y-119183390D02*
X72285714Y-118992914D01*
X72285714Y-118992914D02*
X72333333Y-118897676D01*
X72333333Y-118897676D02*
X72428571Y-118802438D01*
X72428571Y-118802438D02*
X72571428Y-118754819D01*
X72571428Y-118754819D02*
X72666666Y-118754819D01*
X72666666Y-118754819D02*
X72809523Y-118802438D01*
X72809523Y-118802438D02*
X72857142Y-118850057D01*
X73809523Y-119754819D02*
X73238095Y-119754819D01*
X73523809Y-119754819D02*
X73523809Y-118754819D01*
X73523809Y-118754819D02*
X73428571Y-118897676D01*
X73428571Y-118897676D02*
X73333333Y-118992914D01*
X73333333Y-118992914D02*
X73238095Y-119040533D01*
X74142857Y-118754819D02*
X74761904Y-118754819D01*
X74761904Y-118754819D02*
X74428571Y-119135771D01*
X74428571Y-119135771D02*
X74571428Y-119135771D01*
X74571428Y-119135771D02*
X74666666Y-119183390D01*
X74666666Y-119183390D02*
X74714285Y-119231009D01*
X74714285Y-119231009D02*
X74761904Y-119326247D01*
X74761904Y-119326247D02*
X74761904Y-119564342D01*
X74761904Y-119564342D02*
X74714285Y-119659580D01*
X74714285Y-119659580D02*
X74666666Y-119707200D01*
X74666666Y-119707200D02*
X74571428Y-119754819D01*
X74571428Y-119754819D02*
X74285714Y-119754819D01*
X74285714Y-119754819D02*
X74190476Y-119707200D01*
X74190476Y-119707200D02*
X74142857Y-119659580D01*
X192924819Y-66888094D02*
X191924819Y-66888094D01*
X191924819Y-66888094D02*
X191924819Y-66649999D01*
X191924819Y-66649999D02*
X191972438Y-66507142D01*
X191972438Y-66507142D02*
X192067676Y-66411904D01*
X192067676Y-66411904D02*
X192162914Y-66364285D01*
X192162914Y-66364285D02*
X192353390Y-66316666D01*
X192353390Y-66316666D02*
X192496247Y-66316666D01*
X192496247Y-66316666D02*
X192686723Y-66364285D01*
X192686723Y-66364285D02*
X192781961Y-66411904D01*
X192781961Y-66411904D02*
X192877200Y-66507142D01*
X192877200Y-66507142D02*
X192924819Y-66649999D01*
X192924819Y-66649999D02*
X192924819Y-66888094D01*
X192258152Y-65459523D02*
X192924819Y-65459523D01*
X191877200Y-65697618D02*
X192591485Y-65935713D01*
X192591485Y-65935713D02*
X192591485Y-65316666D01*
X192354819Y-60061904D02*
X191354819Y-60061904D01*
X192354819Y-59490476D02*
X191783390Y-59919047D01*
X191354819Y-59490476D02*
X191926247Y-60061904D01*
X103447319Y-102725594D02*
X102447319Y-102725594D01*
X102447319Y-102725594D02*
X102447319Y-102487499D01*
X102447319Y-102487499D02*
X102494938Y-102344642D01*
X102494938Y-102344642D02*
X102590176Y-102249404D01*
X102590176Y-102249404D02*
X102685414Y-102201785D01*
X102685414Y-102201785D02*
X102875890Y-102154166D01*
X102875890Y-102154166D02*
X103018747Y-102154166D01*
X103018747Y-102154166D02*
X103209223Y-102201785D01*
X103209223Y-102201785D02*
X103304461Y-102249404D01*
X103304461Y-102249404D02*
X103399700Y-102344642D01*
X103399700Y-102344642D02*
X103447319Y-102487499D01*
X103447319Y-102487499D02*
X103447319Y-102725594D01*
X102447319Y-101297023D02*
X102447319Y-101487499D01*
X102447319Y-101487499D02*
X102494938Y-101582737D01*
X102494938Y-101582737D02*
X102542557Y-101630356D01*
X102542557Y-101630356D02*
X102685414Y-101725594D01*
X102685414Y-101725594D02*
X102875890Y-101773213D01*
X102875890Y-101773213D02*
X103256842Y-101773213D01*
X103256842Y-101773213D02*
X103352080Y-101725594D01*
X103352080Y-101725594D02*
X103399700Y-101677975D01*
X103399700Y-101677975D02*
X103447319Y-101582737D01*
X103447319Y-101582737D02*
X103447319Y-101392261D01*
X103447319Y-101392261D02*
X103399700Y-101297023D01*
X103399700Y-101297023D02*
X103352080Y-101249404D01*
X103352080Y-101249404D02*
X103256842Y-101201785D01*
X103256842Y-101201785D02*
X103018747Y-101201785D01*
X103018747Y-101201785D02*
X102923509Y-101249404D01*
X102923509Y-101249404D02*
X102875890Y-101297023D01*
X102875890Y-101297023D02*
X102828271Y-101392261D01*
X102828271Y-101392261D02*
X102828271Y-101582737D01*
X102828271Y-101582737D02*
X102875890Y-101677975D01*
X102875890Y-101677975D02*
X102923509Y-101725594D01*
X102923509Y-101725594D02*
X103018747Y-101773213D01*
X134019642Y-82534819D02*
X133686309Y-82058628D01*
X133448214Y-82534819D02*
X133448214Y-81534819D01*
X133448214Y-81534819D02*
X133829166Y-81534819D01*
X133829166Y-81534819D02*
X133924404Y-81582438D01*
X133924404Y-81582438D02*
X133972023Y-81630057D01*
X133972023Y-81630057D02*
X134019642Y-81725295D01*
X134019642Y-81725295D02*
X134019642Y-81868152D01*
X134019642Y-81868152D02*
X133972023Y-81963390D01*
X133972023Y-81963390D02*
X133924404Y-82011009D01*
X133924404Y-82011009D02*
X133829166Y-82058628D01*
X133829166Y-82058628D02*
X133448214Y-82058628D01*
X134972023Y-82534819D02*
X134400595Y-82534819D01*
X134686309Y-82534819D02*
X134686309Y-81534819D01*
X134686309Y-81534819D02*
X134591071Y-81677676D01*
X134591071Y-81677676D02*
X134495833Y-81772914D01*
X134495833Y-81772914D02*
X134400595Y-81820533D01*
X135305357Y-81534819D02*
X135924404Y-81534819D01*
X135924404Y-81534819D02*
X135591071Y-81915771D01*
X135591071Y-81915771D02*
X135733928Y-81915771D01*
X135733928Y-81915771D02*
X135829166Y-81963390D01*
X135829166Y-81963390D02*
X135876785Y-82011009D01*
X135876785Y-82011009D02*
X135924404Y-82106247D01*
X135924404Y-82106247D02*
X135924404Y-82344342D01*
X135924404Y-82344342D02*
X135876785Y-82439580D01*
X135876785Y-82439580D02*
X135829166Y-82487200D01*
X135829166Y-82487200D02*
X135733928Y-82534819D01*
X135733928Y-82534819D02*
X135448214Y-82534819D01*
X135448214Y-82534819D02*
X135352976Y-82487200D01*
X135352976Y-82487200D02*
X135305357Y-82439580D01*
X90082142Y-75159580D02*
X90034523Y-75207200D01*
X90034523Y-75207200D02*
X89891666Y-75254819D01*
X89891666Y-75254819D02*
X89796428Y-75254819D01*
X89796428Y-75254819D02*
X89653571Y-75207200D01*
X89653571Y-75207200D02*
X89558333Y-75111961D01*
X89558333Y-75111961D02*
X89510714Y-75016723D01*
X89510714Y-75016723D02*
X89463095Y-74826247D01*
X89463095Y-74826247D02*
X89463095Y-74683390D01*
X89463095Y-74683390D02*
X89510714Y-74492914D01*
X89510714Y-74492914D02*
X89558333Y-74397676D01*
X89558333Y-74397676D02*
X89653571Y-74302438D01*
X89653571Y-74302438D02*
X89796428Y-74254819D01*
X89796428Y-74254819D02*
X89891666Y-74254819D01*
X89891666Y-74254819D02*
X90034523Y-74302438D01*
X90034523Y-74302438D02*
X90082142Y-74350057D01*
X91034523Y-75254819D02*
X90463095Y-75254819D01*
X90748809Y-75254819D02*
X90748809Y-74254819D01*
X90748809Y-74254819D02*
X90653571Y-74397676D01*
X90653571Y-74397676D02*
X90558333Y-74492914D01*
X90558333Y-74492914D02*
X90463095Y-74540533D01*
X91415476Y-74350057D02*
X91463095Y-74302438D01*
X91463095Y-74302438D02*
X91558333Y-74254819D01*
X91558333Y-74254819D02*
X91796428Y-74254819D01*
X91796428Y-74254819D02*
X91891666Y-74302438D01*
X91891666Y-74302438D02*
X91939285Y-74350057D01*
X91939285Y-74350057D02*
X91986904Y-74445295D01*
X91986904Y-74445295D02*
X91986904Y-74540533D01*
X91986904Y-74540533D02*
X91939285Y-74683390D01*
X91939285Y-74683390D02*
X91367857Y-75254819D01*
X91367857Y-75254819D02*
X91986904Y-75254819D01*
X134019642Y-76534819D02*
X133686309Y-76058628D01*
X133448214Y-76534819D02*
X133448214Y-75534819D01*
X133448214Y-75534819D02*
X133829166Y-75534819D01*
X133829166Y-75534819D02*
X133924404Y-75582438D01*
X133924404Y-75582438D02*
X133972023Y-75630057D01*
X133972023Y-75630057D02*
X134019642Y-75725295D01*
X134019642Y-75725295D02*
X134019642Y-75868152D01*
X134019642Y-75868152D02*
X133972023Y-75963390D01*
X133972023Y-75963390D02*
X133924404Y-76011009D01*
X133924404Y-76011009D02*
X133829166Y-76058628D01*
X133829166Y-76058628D02*
X133448214Y-76058628D01*
X134972023Y-76534819D02*
X134400595Y-76534819D01*
X134686309Y-76534819D02*
X134686309Y-75534819D01*
X134686309Y-75534819D02*
X134591071Y-75677676D01*
X134591071Y-75677676D02*
X134495833Y-75772914D01*
X134495833Y-75772914D02*
X134400595Y-75820533D01*
X135352976Y-75630057D02*
X135400595Y-75582438D01*
X135400595Y-75582438D02*
X135495833Y-75534819D01*
X135495833Y-75534819D02*
X135733928Y-75534819D01*
X135733928Y-75534819D02*
X135829166Y-75582438D01*
X135829166Y-75582438D02*
X135876785Y-75630057D01*
X135876785Y-75630057D02*
X135924404Y-75725295D01*
X135924404Y-75725295D02*
X135924404Y-75820533D01*
X135924404Y-75820533D02*
X135876785Y-75963390D01*
X135876785Y-75963390D02*
X135305357Y-76534819D01*
X135305357Y-76534819D02*
X135924404Y-76534819D01*
X112197319Y-81452857D02*
X111721128Y-81786190D01*
X112197319Y-82024285D02*
X111197319Y-82024285D01*
X111197319Y-82024285D02*
X111197319Y-81643333D01*
X111197319Y-81643333D02*
X111244938Y-81548095D01*
X111244938Y-81548095D02*
X111292557Y-81500476D01*
X111292557Y-81500476D02*
X111387795Y-81452857D01*
X111387795Y-81452857D02*
X111530652Y-81452857D01*
X111530652Y-81452857D02*
X111625890Y-81500476D01*
X111625890Y-81500476D02*
X111673509Y-81548095D01*
X111673509Y-81548095D02*
X111721128Y-81643333D01*
X111721128Y-81643333D02*
X111721128Y-82024285D01*
X111292557Y-81071904D02*
X111244938Y-81024285D01*
X111244938Y-81024285D02*
X111197319Y-80929047D01*
X111197319Y-80929047D02*
X111197319Y-80690952D01*
X111197319Y-80690952D02*
X111244938Y-80595714D01*
X111244938Y-80595714D02*
X111292557Y-80548095D01*
X111292557Y-80548095D02*
X111387795Y-80500476D01*
X111387795Y-80500476D02*
X111483033Y-80500476D01*
X111483033Y-80500476D02*
X111625890Y-80548095D01*
X111625890Y-80548095D02*
X112197319Y-81119523D01*
X112197319Y-81119523D02*
X112197319Y-80500476D01*
X111197319Y-80167142D02*
X111197319Y-79548095D01*
X111197319Y-79548095D02*
X111578271Y-79881428D01*
X111578271Y-79881428D02*
X111578271Y-79738571D01*
X111578271Y-79738571D02*
X111625890Y-79643333D01*
X111625890Y-79643333D02*
X111673509Y-79595714D01*
X111673509Y-79595714D02*
X111768747Y-79548095D01*
X111768747Y-79548095D02*
X112006842Y-79548095D01*
X112006842Y-79548095D02*
X112102080Y-79595714D01*
X112102080Y-79595714D02*
X112149700Y-79643333D01*
X112149700Y-79643333D02*
X112197319Y-79738571D01*
X112197319Y-79738571D02*
X112197319Y-80024285D01*
X112197319Y-80024285D02*
X112149700Y-80119523D01*
X112149700Y-80119523D02*
X112102080Y-80167142D01*
X144954819Y-121333333D02*
X145669104Y-121333333D01*
X145669104Y-121333333D02*
X145811961Y-121380952D01*
X145811961Y-121380952D02*
X145907200Y-121476190D01*
X145907200Y-121476190D02*
X145954819Y-121619047D01*
X145954819Y-121619047D02*
X145954819Y-121714285D01*
X145288152Y-120428571D02*
X145954819Y-120428571D01*
X144907200Y-120666666D02*
X145621485Y-120904761D01*
X145621485Y-120904761D02*
X145621485Y-120285714D01*
X87978628Y-83976190D02*
X88454819Y-83976190D01*
X87454819Y-84309523D02*
X87978628Y-83976190D01*
X87978628Y-83976190D02*
X87454819Y-83642857D01*
X87550057Y-83357142D02*
X87502438Y-83309523D01*
X87502438Y-83309523D02*
X87454819Y-83214285D01*
X87454819Y-83214285D02*
X87454819Y-82976190D01*
X87454819Y-82976190D02*
X87502438Y-82880952D01*
X87502438Y-82880952D02*
X87550057Y-82833333D01*
X87550057Y-82833333D02*
X87645295Y-82785714D01*
X87645295Y-82785714D02*
X87740533Y-82785714D01*
X87740533Y-82785714D02*
X87883390Y-82833333D01*
X87883390Y-82833333D02*
X88454819Y-83404761D01*
X88454819Y-83404761D02*
X88454819Y-82785714D01*
X193874819Y-98476666D02*
X193398628Y-98809999D01*
X193874819Y-99048094D02*
X192874819Y-99048094D01*
X192874819Y-99048094D02*
X192874819Y-98667142D01*
X192874819Y-98667142D02*
X192922438Y-98571904D01*
X192922438Y-98571904D02*
X192970057Y-98524285D01*
X192970057Y-98524285D02*
X193065295Y-98476666D01*
X193065295Y-98476666D02*
X193208152Y-98476666D01*
X193208152Y-98476666D02*
X193303390Y-98524285D01*
X193303390Y-98524285D02*
X193351009Y-98571904D01*
X193351009Y-98571904D02*
X193398628Y-98667142D01*
X193398628Y-98667142D02*
X193398628Y-99048094D01*
X192874819Y-97571904D02*
X192874819Y-98048094D01*
X192874819Y-98048094D02*
X193351009Y-98095713D01*
X193351009Y-98095713D02*
X193303390Y-98048094D01*
X193303390Y-98048094D02*
X193255771Y-97952856D01*
X193255771Y-97952856D02*
X193255771Y-97714761D01*
X193255771Y-97714761D02*
X193303390Y-97619523D01*
X193303390Y-97619523D02*
X193351009Y-97571904D01*
X193351009Y-97571904D02*
X193446247Y-97524285D01*
X193446247Y-97524285D02*
X193684342Y-97524285D01*
X193684342Y-97524285D02*
X193779580Y-97571904D01*
X193779580Y-97571904D02*
X193827200Y-97619523D01*
X193827200Y-97619523D02*
X193874819Y-97714761D01*
X193874819Y-97714761D02*
X193874819Y-97952856D01*
X193874819Y-97952856D02*
X193827200Y-98048094D01*
X193827200Y-98048094D02*
X193779580Y-98095713D01*
X75349405Y-88284819D02*
X75349405Y-87284819D01*
X75349405Y-87284819D02*
X75587500Y-87284819D01*
X75587500Y-87284819D02*
X75730357Y-87332438D01*
X75730357Y-87332438D02*
X75825595Y-87427676D01*
X75825595Y-87427676D02*
X75873214Y-87522914D01*
X75873214Y-87522914D02*
X75920833Y-87713390D01*
X75920833Y-87713390D02*
X75920833Y-87856247D01*
X75920833Y-87856247D02*
X75873214Y-88046723D01*
X75873214Y-88046723D02*
X75825595Y-88141961D01*
X75825595Y-88141961D02*
X75730357Y-88237200D01*
X75730357Y-88237200D02*
X75587500Y-88284819D01*
X75587500Y-88284819D02*
X75349405Y-88284819D01*
X76825595Y-87284819D02*
X76349405Y-87284819D01*
X76349405Y-87284819D02*
X76301786Y-87761009D01*
X76301786Y-87761009D02*
X76349405Y-87713390D01*
X76349405Y-87713390D02*
X76444643Y-87665771D01*
X76444643Y-87665771D02*
X76682738Y-87665771D01*
X76682738Y-87665771D02*
X76777976Y-87713390D01*
X76777976Y-87713390D02*
X76825595Y-87761009D01*
X76825595Y-87761009D02*
X76873214Y-87856247D01*
X76873214Y-87856247D02*
X76873214Y-88094342D01*
X76873214Y-88094342D02*
X76825595Y-88189580D01*
X76825595Y-88189580D02*
X76777976Y-88237200D01*
X76777976Y-88237200D02*
X76682738Y-88284819D01*
X76682738Y-88284819D02*
X76444643Y-88284819D01*
X76444643Y-88284819D02*
X76349405Y-88237200D01*
X76349405Y-88237200D02*
X76301786Y-88189580D01*
X79697319Y-82666666D02*
X79221128Y-82999999D01*
X79697319Y-83238094D02*
X78697319Y-83238094D01*
X78697319Y-83238094D02*
X78697319Y-82857142D01*
X78697319Y-82857142D02*
X78744938Y-82761904D01*
X78744938Y-82761904D02*
X78792557Y-82714285D01*
X78792557Y-82714285D02*
X78887795Y-82666666D01*
X78887795Y-82666666D02*
X79030652Y-82666666D01*
X79030652Y-82666666D02*
X79125890Y-82714285D01*
X79125890Y-82714285D02*
X79173509Y-82761904D01*
X79173509Y-82761904D02*
X79221128Y-82857142D01*
X79221128Y-82857142D02*
X79221128Y-83238094D01*
X78697319Y-82333332D02*
X78697319Y-81666666D01*
X78697319Y-81666666D02*
X79697319Y-82095237D01*
X134019642Y-71534819D02*
X133686309Y-71058628D01*
X133448214Y-71534819D02*
X133448214Y-70534819D01*
X133448214Y-70534819D02*
X133829166Y-70534819D01*
X133829166Y-70534819D02*
X133924404Y-70582438D01*
X133924404Y-70582438D02*
X133972023Y-70630057D01*
X133972023Y-70630057D02*
X134019642Y-70725295D01*
X134019642Y-70725295D02*
X134019642Y-70868152D01*
X134019642Y-70868152D02*
X133972023Y-70963390D01*
X133972023Y-70963390D02*
X133924404Y-71011009D01*
X133924404Y-71011009D02*
X133829166Y-71058628D01*
X133829166Y-71058628D02*
X133448214Y-71058628D01*
X134972023Y-71534819D02*
X134400595Y-71534819D01*
X134686309Y-71534819D02*
X134686309Y-70534819D01*
X134686309Y-70534819D02*
X134591071Y-70677676D01*
X134591071Y-70677676D02*
X134495833Y-70772914D01*
X134495833Y-70772914D02*
X134400595Y-70820533D01*
X135924404Y-71534819D02*
X135352976Y-71534819D01*
X135638690Y-71534819D02*
X135638690Y-70534819D01*
X135638690Y-70534819D02*
X135543452Y-70677676D01*
X135543452Y-70677676D02*
X135448214Y-70772914D01*
X135448214Y-70772914D02*
X135352976Y-70820533D01*
X83709642Y-106374819D02*
X83376309Y-105898628D01*
X83138214Y-106374819D02*
X83138214Y-105374819D01*
X83138214Y-105374819D02*
X83519166Y-105374819D01*
X83519166Y-105374819D02*
X83614404Y-105422438D01*
X83614404Y-105422438D02*
X83662023Y-105470057D01*
X83662023Y-105470057D02*
X83709642Y-105565295D01*
X83709642Y-105565295D02*
X83709642Y-105708152D01*
X83709642Y-105708152D02*
X83662023Y-105803390D01*
X83662023Y-105803390D02*
X83614404Y-105851009D01*
X83614404Y-105851009D02*
X83519166Y-105898628D01*
X83519166Y-105898628D02*
X83138214Y-105898628D01*
X84090595Y-105470057D02*
X84138214Y-105422438D01*
X84138214Y-105422438D02*
X84233452Y-105374819D01*
X84233452Y-105374819D02*
X84471547Y-105374819D01*
X84471547Y-105374819D02*
X84566785Y-105422438D01*
X84566785Y-105422438D02*
X84614404Y-105470057D01*
X84614404Y-105470057D02*
X84662023Y-105565295D01*
X84662023Y-105565295D02*
X84662023Y-105660533D01*
X84662023Y-105660533D02*
X84614404Y-105803390D01*
X84614404Y-105803390D02*
X84042976Y-106374819D01*
X84042976Y-106374819D02*
X84662023Y-106374819D01*
X85042976Y-105470057D02*
X85090595Y-105422438D01*
X85090595Y-105422438D02*
X85185833Y-105374819D01*
X85185833Y-105374819D02*
X85423928Y-105374819D01*
X85423928Y-105374819D02*
X85519166Y-105422438D01*
X85519166Y-105422438D02*
X85566785Y-105470057D01*
X85566785Y-105470057D02*
X85614404Y-105565295D01*
X85614404Y-105565295D02*
X85614404Y-105660533D01*
X85614404Y-105660533D02*
X85566785Y-105803390D01*
X85566785Y-105803390D02*
X84995357Y-106374819D01*
X84995357Y-106374819D02*
X85614404Y-106374819D01*
X166644819Y-53333333D02*
X167359104Y-53333333D01*
X167359104Y-53333333D02*
X167501961Y-53380952D01*
X167501961Y-53380952D02*
X167597200Y-53476190D01*
X167597200Y-53476190D02*
X167644819Y-53619047D01*
X167644819Y-53619047D02*
X167644819Y-53714285D01*
X167073390Y-52714285D02*
X167025771Y-52809523D01*
X167025771Y-52809523D02*
X166978152Y-52857142D01*
X166978152Y-52857142D02*
X166882914Y-52904761D01*
X166882914Y-52904761D02*
X166835295Y-52904761D01*
X166835295Y-52904761D02*
X166740057Y-52857142D01*
X166740057Y-52857142D02*
X166692438Y-52809523D01*
X166692438Y-52809523D02*
X166644819Y-52714285D01*
X166644819Y-52714285D02*
X166644819Y-52523809D01*
X166644819Y-52523809D02*
X166692438Y-52428571D01*
X166692438Y-52428571D02*
X166740057Y-52380952D01*
X166740057Y-52380952D02*
X166835295Y-52333333D01*
X166835295Y-52333333D02*
X166882914Y-52333333D01*
X166882914Y-52333333D02*
X166978152Y-52380952D01*
X166978152Y-52380952D02*
X167025771Y-52428571D01*
X167025771Y-52428571D02*
X167073390Y-52523809D01*
X167073390Y-52523809D02*
X167073390Y-52714285D01*
X167073390Y-52714285D02*
X167121009Y-52809523D01*
X167121009Y-52809523D02*
X167168628Y-52857142D01*
X167168628Y-52857142D02*
X167263866Y-52904761D01*
X167263866Y-52904761D02*
X167454342Y-52904761D01*
X167454342Y-52904761D02*
X167549580Y-52857142D01*
X167549580Y-52857142D02*
X167597200Y-52809523D01*
X167597200Y-52809523D02*
X167644819Y-52714285D01*
X167644819Y-52714285D02*
X167644819Y-52523809D01*
X167644819Y-52523809D02*
X167597200Y-52428571D01*
X167597200Y-52428571D02*
X167549580Y-52380952D01*
X167549580Y-52380952D02*
X167454342Y-52333333D01*
X167454342Y-52333333D02*
X167263866Y-52333333D01*
X167263866Y-52333333D02*
X167168628Y-52380952D01*
X167168628Y-52380952D02*
X167121009Y-52428571D01*
X167121009Y-52428571D02*
X167073390Y-52523809D01*
X83722080Y-77142857D02*
X83769700Y-77190476D01*
X83769700Y-77190476D02*
X83817319Y-77333333D01*
X83817319Y-77333333D02*
X83817319Y-77428571D01*
X83817319Y-77428571D02*
X83769700Y-77571428D01*
X83769700Y-77571428D02*
X83674461Y-77666666D01*
X83674461Y-77666666D02*
X83579223Y-77714285D01*
X83579223Y-77714285D02*
X83388747Y-77761904D01*
X83388747Y-77761904D02*
X83245890Y-77761904D01*
X83245890Y-77761904D02*
X83055414Y-77714285D01*
X83055414Y-77714285D02*
X82960176Y-77666666D01*
X82960176Y-77666666D02*
X82864938Y-77571428D01*
X82864938Y-77571428D02*
X82817319Y-77428571D01*
X82817319Y-77428571D02*
X82817319Y-77333333D01*
X82817319Y-77333333D02*
X82864938Y-77190476D01*
X82864938Y-77190476D02*
X82912557Y-77142857D01*
X83817319Y-76190476D02*
X83817319Y-76761904D01*
X83817319Y-76476190D02*
X82817319Y-76476190D01*
X82817319Y-76476190D02*
X82960176Y-76571428D01*
X82960176Y-76571428D02*
X83055414Y-76666666D01*
X83055414Y-76666666D02*
X83103033Y-76761904D01*
X83817319Y-75238095D02*
X83817319Y-75809523D01*
X83817319Y-75523809D02*
X82817319Y-75523809D01*
X82817319Y-75523809D02*
X82960176Y-75619047D01*
X82960176Y-75619047D02*
X83055414Y-75714285D01*
X83055414Y-75714285D02*
X83103033Y-75809523D01*
X111659580Y-95566666D02*
X111707200Y-95614285D01*
X111707200Y-95614285D02*
X111754819Y-95757142D01*
X111754819Y-95757142D02*
X111754819Y-95852380D01*
X111754819Y-95852380D02*
X111707200Y-95995237D01*
X111707200Y-95995237D02*
X111611961Y-96090475D01*
X111611961Y-96090475D02*
X111516723Y-96138094D01*
X111516723Y-96138094D02*
X111326247Y-96185713D01*
X111326247Y-96185713D02*
X111183390Y-96185713D01*
X111183390Y-96185713D02*
X110992914Y-96138094D01*
X110992914Y-96138094D02*
X110897676Y-96090475D01*
X110897676Y-96090475D02*
X110802438Y-95995237D01*
X110802438Y-95995237D02*
X110754819Y-95852380D01*
X110754819Y-95852380D02*
X110754819Y-95757142D01*
X110754819Y-95757142D02*
X110802438Y-95614285D01*
X110802438Y-95614285D02*
X110850057Y-95566666D01*
X111754819Y-94614285D02*
X111754819Y-95185713D01*
X111754819Y-94899999D02*
X110754819Y-94899999D01*
X110754819Y-94899999D02*
X110897676Y-94995237D01*
X110897676Y-94995237D02*
X110992914Y-95090475D01*
X110992914Y-95090475D02*
X111040533Y-95185713D01*
X72347080Y-104569166D02*
X72394700Y-104616785D01*
X72394700Y-104616785D02*
X72442319Y-104759642D01*
X72442319Y-104759642D02*
X72442319Y-104854880D01*
X72442319Y-104854880D02*
X72394700Y-104997737D01*
X72394700Y-104997737D02*
X72299461Y-105092975D01*
X72299461Y-105092975D02*
X72204223Y-105140594D01*
X72204223Y-105140594D02*
X72013747Y-105188213D01*
X72013747Y-105188213D02*
X71870890Y-105188213D01*
X71870890Y-105188213D02*
X71680414Y-105140594D01*
X71680414Y-105140594D02*
X71585176Y-105092975D01*
X71585176Y-105092975D02*
X71489938Y-104997737D01*
X71489938Y-104997737D02*
X71442319Y-104854880D01*
X71442319Y-104854880D02*
X71442319Y-104759642D01*
X71442319Y-104759642D02*
X71489938Y-104616785D01*
X71489938Y-104616785D02*
X71537557Y-104569166D01*
X71775652Y-103712023D02*
X72442319Y-103712023D01*
X71394700Y-103950118D02*
X72108985Y-104188213D01*
X72108985Y-104188213D02*
X72108985Y-103569166D01*
X103795833Y-60459580D02*
X103748214Y-60507200D01*
X103748214Y-60507200D02*
X103605357Y-60554819D01*
X103605357Y-60554819D02*
X103510119Y-60554819D01*
X103510119Y-60554819D02*
X103367262Y-60507200D01*
X103367262Y-60507200D02*
X103272024Y-60411961D01*
X103272024Y-60411961D02*
X103224405Y-60316723D01*
X103224405Y-60316723D02*
X103176786Y-60126247D01*
X103176786Y-60126247D02*
X103176786Y-59983390D01*
X103176786Y-59983390D02*
X103224405Y-59792914D01*
X103224405Y-59792914D02*
X103272024Y-59697676D01*
X103272024Y-59697676D02*
X103367262Y-59602438D01*
X103367262Y-59602438D02*
X103510119Y-59554819D01*
X103510119Y-59554819D02*
X103605357Y-59554819D01*
X103605357Y-59554819D02*
X103748214Y-59602438D01*
X103748214Y-59602438D02*
X103795833Y-59650057D01*
X104129167Y-59554819D02*
X104748214Y-59554819D01*
X104748214Y-59554819D02*
X104414881Y-59935771D01*
X104414881Y-59935771D02*
X104557738Y-59935771D01*
X104557738Y-59935771D02*
X104652976Y-59983390D01*
X104652976Y-59983390D02*
X104700595Y-60031009D01*
X104700595Y-60031009D02*
X104748214Y-60126247D01*
X104748214Y-60126247D02*
X104748214Y-60364342D01*
X104748214Y-60364342D02*
X104700595Y-60459580D01*
X104700595Y-60459580D02*
X104652976Y-60507200D01*
X104652976Y-60507200D02*
X104557738Y-60554819D01*
X104557738Y-60554819D02*
X104272024Y-60554819D01*
X104272024Y-60554819D02*
X104176786Y-60507200D01*
X104176786Y-60507200D02*
X104129167Y-60459580D01*
X120147319Y-81238094D02*
X119147319Y-81238094D01*
X119147319Y-81238094D02*
X119147319Y-80999999D01*
X119147319Y-80999999D02*
X119194938Y-80857142D01*
X119194938Y-80857142D02*
X119290176Y-80761904D01*
X119290176Y-80761904D02*
X119385414Y-80714285D01*
X119385414Y-80714285D02*
X119575890Y-80666666D01*
X119575890Y-80666666D02*
X119718747Y-80666666D01*
X119718747Y-80666666D02*
X119909223Y-80714285D01*
X119909223Y-80714285D02*
X120004461Y-80761904D01*
X120004461Y-80761904D02*
X120099700Y-80857142D01*
X120099700Y-80857142D02*
X120147319Y-80999999D01*
X120147319Y-80999999D02*
X120147319Y-81238094D01*
X119147319Y-80333332D02*
X119147319Y-79666666D01*
X119147319Y-79666666D02*
X120147319Y-80095237D01*
X120717319Y-87111904D02*
X119717319Y-87111904D01*
X120717319Y-86540476D02*
X120145890Y-86969047D01*
X119717319Y-86540476D02*
X120288747Y-87111904D01*
X116305833Y-108374819D02*
X115972500Y-107898628D01*
X115734405Y-108374819D02*
X115734405Y-107374819D01*
X115734405Y-107374819D02*
X116115357Y-107374819D01*
X116115357Y-107374819D02*
X116210595Y-107422438D01*
X116210595Y-107422438D02*
X116258214Y-107470057D01*
X116258214Y-107470057D02*
X116305833Y-107565295D01*
X116305833Y-107565295D02*
X116305833Y-107708152D01*
X116305833Y-107708152D02*
X116258214Y-107803390D01*
X116258214Y-107803390D02*
X116210595Y-107851009D01*
X116210595Y-107851009D02*
X116115357Y-107898628D01*
X116115357Y-107898628D02*
X115734405Y-107898628D01*
X117162976Y-107374819D02*
X116972500Y-107374819D01*
X116972500Y-107374819D02*
X116877262Y-107422438D01*
X116877262Y-107422438D02*
X116829643Y-107470057D01*
X116829643Y-107470057D02*
X116734405Y-107612914D01*
X116734405Y-107612914D02*
X116686786Y-107803390D01*
X116686786Y-107803390D02*
X116686786Y-108184342D01*
X116686786Y-108184342D02*
X116734405Y-108279580D01*
X116734405Y-108279580D02*
X116782024Y-108327200D01*
X116782024Y-108327200D02*
X116877262Y-108374819D01*
X116877262Y-108374819D02*
X117067738Y-108374819D01*
X117067738Y-108374819D02*
X117162976Y-108327200D01*
X117162976Y-108327200D02*
X117210595Y-108279580D01*
X117210595Y-108279580D02*
X117258214Y-108184342D01*
X117258214Y-108184342D02*
X117258214Y-107946247D01*
X117258214Y-107946247D02*
X117210595Y-107851009D01*
X117210595Y-107851009D02*
X117162976Y-107803390D01*
X117162976Y-107803390D02*
X117067738Y-107755771D01*
X117067738Y-107755771D02*
X116877262Y-107755771D01*
X116877262Y-107755771D02*
X116782024Y-107803390D01*
X116782024Y-107803390D02*
X116734405Y-107851009D01*
X116734405Y-107851009D02*
X116686786Y-107946247D01*
X168319642Y-59334819D02*
X167986309Y-58858628D01*
X167748214Y-59334819D02*
X167748214Y-58334819D01*
X167748214Y-58334819D02*
X168129166Y-58334819D01*
X168129166Y-58334819D02*
X168224404Y-58382438D01*
X168224404Y-58382438D02*
X168272023Y-58430057D01*
X168272023Y-58430057D02*
X168319642Y-58525295D01*
X168319642Y-58525295D02*
X168319642Y-58668152D01*
X168319642Y-58668152D02*
X168272023Y-58763390D01*
X168272023Y-58763390D02*
X168224404Y-58811009D01*
X168224404Y-58811009D02*
X168129166Y-58858628D01*
X168129166Y-58858628D02*
X167748214Y-58858628D01*
X169272023Y-59334819D02*
X168700595Y-59334819D01*
X168986309Y-59334819D02*
X168986309Y-58334819D01*
X168986309Y-58334819D02*
X168891071Y-58477676D01*
X168891071Y-58477676D02*
X168795833Y-58572914D01*
X168795833Y-58572914D02*
X168700595Y-58620533D01*
X169891071Y-58334819D02*
X169986309Y-58334819D01*
X169986309Y-58334819D02*
X170081547Y-58382438D01*
X170081547Y-58382438D02*
X170129166Y-58430057D01*
X170129166Y-58430057D02*
X170176785Y-58525295D01*
X170176785Y-58525295D02*
X170224404Y-58715771D01*
X170224404Y-58715771D02*
X170224404Y-58953866D01*
X170224404Y-58953866D02*
X170176785Y-59144342D01*
X170176785Y-59144342D02*
X170129166Y-59239580D01*
X170129166Y-59239580D02*
X170081547Y-59287200D01*
X170081547Y-59287200D02*
X169986309Y-59334819D01*
X169986309Y-59334819D02*
X169891071Y-59334819D01*
X169891071Y-59334819D02*
X169795833Y-59287200D01*
X169795833Y-59287200D02*
X169748214Y-59239580D01*
X169748214Y-59239580D02*
X169700595Y-59144342D01*
X169700595Y-59144342D02*
X169652976Y-58953866D01*
X169652976Y-58953866D02*
X169652976Y-58715771D01*
X169652976Y-58715771D02*
X169700595Y-58525295D01*
X169700595Y-58525295D02*
X169748214Y-58430057D01*
X169748214Y-58430057D02*
X169795833Y-58382438D01*
X169795833Y-58382438D02*
X169891071Y-58334819D01*
X60254819Y-115833333D02*
X60969104Y-115833333D01*
X60969104Y-115833333D02*
X61111961Y-115880952D01*
X61111961Y-115880952D02*
X61207200Y-115976190D01*
X61207200Y-115976190D02*
X61254819Y-116119047D01*
X61254819Y-116119047D02*
X61254819Y-116214285D01*
X60254819Y-115452380D02*
X60254819Y-114785714D01*
X60254819Y-114785714D02*
X61254819Y-115214285D01*
X170485833Y-67834819D02*
X170152500Y-67358628D01*
X169914405Y-67834819D02*
X169914405Y-66834819D01*
X169914405Y-66834819D02*
X170295357Y-66834819D01*
X170295357Y-66834819D02*
X170390595Y-66882438D01*
X170390595Y-66882438D02*
X170438214Y-66930057D01*
X170438214Y-66930057D02*
X170485833Y-67025295D01*
X170485833Y-67025295D02*
X170485833Y-67168152D01*
X170485833Y-67168152D02*
X170438214Y-67263390D01*
X170438214Y-67263390D02*
X170390595Y-67311009D01*
X170390595Y-67311009D02*
X170295357Y-67358628D01*
X170295357Y-67358628D02*
X169914405Y-67358628D01*
X170866786Y-66930057D02*
X170914405Y-66882438D01*
X170914405Y-66882438D02*
X171009643Y-66834819D01*
X171009643Y-66834819D02*
X171247738Y-66834819D01*
X171247738Y-66834819D02*
X171342976Y-66882438D01*
X171342976Y-66882438D02*
X171390595Y-66930057D01*
X171390595Y-66930057D02*
X171438214Y-67025295D01*
X171438214Y-67025295D02*
X171438214Y-67120533D01*
X171438214Y-67120533D02*
X171390595Y-67263390D01*
X171390595Y-67263390D02*
X170819167Y-67834819D01*
X170819167Y-67834819D02*
X171438214Y-67834819D01*
%TO.C,R20*%
D11*
X86162500Y-93130000D02*
X86162500Y-94080000D01*
X86162500Y-98870000D02*
X86162500Y-97920000D01*
X85242500Y-94080000D02*
X87082500Y-94080000D01*
X87082500Y-97920000D01*
X85242500Y-97920000D01*
X85242500Y-94080000D01*
%TO.C,R3*%
X185462500Y-62430000D02*
X185462500Y-63380000D01*
X185462500Y-68170000D02*
X185462500Y-67220000D01*
X184542500Y-63380000D02*
X186382500Y-63380000D01*
X186382500Y-67220000D01*
X184542500Y-67220000D01*
X184542500Y-63380000D01*
%TO.C,U2*%
X172552500Y-92890000D02*
X173252500Y-92890000D01*
X172552500Y-93590000D02*
X172552500Y-92890000D01*
X172552500Y-107110000D02*
X172552500Y-106410000D01*
X173252500Y-107110000D02*
X172552500Y-107110000D01*
X186072500Y-92890000D02*
X186772500Y-92890000D01*
X186772500Y-92890000D02*
X186772500Y-93590000D01*
X186772500Y-106410000D02*
X186772500Y-107110000D01*
X186772500Y-107110000D02*
X186072500Y-107110000D01*
X171912500Y-93590000D02*
X171572500Y-93120000D01*
X172252500Y-93120000D01*
X171912500Y-93590000D01*
G36*
X171912500Y-93590000D02*
G01*
X171572500Y-93120000D01*
X172252500Y-93120000D01*
X171912500Y-93590000D01*
G37*
%TO.C,R17*%
X64500000Y-102130000D02*
X64500000Y-103080000D01*
X64500000Y-107870000D02*
X64500000Y-106920000D01*
X63580000Y-103080000D02*
X65420000Y-103080000D01*
X65420000Y-106920000D01*
X63580000Y-106920000D01*
X63580000Y-103080000D01*
%TO.C,C16*%
X146813748Y-92190000D02*
X148236252Y-92190000D01*
X146813748Y-94910000D02*
X148236252Y-94910000D01*
%TO.C,C7*%
X79302500Y-96273752D02*
X79302500Y-94851248D01*
X82022500Y-96273752D02*
X82022500Y-94851248D01*
%TO.C,C14*%
X112951248Y-111140000D02*
X114373752Y-111140000D01*
X112951248Y-113860000D02*
X114373752Y-113860000D01*
%TO.C,C10*%
X75302500Y-73788748D02*
X75302500Y-75211252D01*
X78022500Y-73788748D02*
X78022500Y-75211252D01*
%TO.C,Q1*%
X145702500Y-75540000D02*
X147222500Y-75540000D01*
X145702500Y-75590000D02*
X145702500Y-75540000D01*
X145702500Y-77490000D02*
X145702500Y-76710000D01*
X145702500Y-78660000D02*
X145702500Y-78610000D01*
X147222500Y-75540000D02*
X147222500Y-76540000D01*
X147222500Y-77660000D02*
X147222500Y-78660000D01*
X147222500Y-78660000D02*
X145702500Y-78660000D01*
X145162500Y-76720000D02*
X145402500Y-77050000D01*
X144922500Y-77050000D01*
X145162500Y-76720000D01*
G36*
X145402500Y-77050000D02*
G01*
X144922500Y-77050000D01*
X145162500Y-76720000D01*
X145402500Y-77050000D01*
G37*
%TO.C,R14*%
X170102500Y-77500000D02*
X171052500Y-77500000D01*
X175842500Y-77500000D02*
X174892500Y-77500000D01*
X171052500Y-76580000D02*
X174892500Y-76580000D01*
X174892500Y-78420000D01*
X171052500Y-78420000D01*
X171052500Y-76580000D01*
%TO.C,C2*%
X85223752Y-70565000D02*
X84701248Y-70565000D01*
X85223752Y-72035000D02*
X84701248Y-72035000D01*
%TO.C,RV1*%
D10*
X91050000Y-107000000D02*
X91050000Y-119000000D01*
X94950000Y-107000000D02*
X91050000Y-107000000D01*
X94950000Y-107000000D02*
X94950000Y-119000000D01*
X94950000Y-119000000D02*
X91050000Y-119000000D01*
%TO.C,J9*%
D11*
X169050000Y-117170000D02*
X169050000Y-119830000D01*
X186890000Y-117170000D02*
X169050000Y-117170000D01*
X186890000Y-117170000D02*
X186890000Y-119830000D01*
X186890000Y-119830000D02*
X169050000Y-119830000D01*
X189490000Y-118500000D02*
X189490000Y-119830000D01*
X189490000Y-119830000D02*
X188160000Y-119830000D01*
%TO.C,C15*%
X140302500Y-104211252D02*
X140302500Y-102788748D01*
X143022500Y-104211252D02*
X143022500Y-102788748D01*
%TO.C,D2*%
X176637500Y-70435000D02*
X180697500Y-70435000D01*
X180697500Y-68165000D02*
X176637500Y-68165000D01*
X180697500Y-70435000D02*
X180697500Y-68165000D01*
%TO.C,R15*%
X131292500Y-89500000D02*
X132242500Y-89500000D01*
X137032500Y-89500000D02*
X136082500Y-89500000D01*
X132242500Y-88580000D02*
X136082500Y-88580000D01*
X136082500Y-90420000D01*
X132242500Y-90420000D01*
X132242500Y-88580000D01*
%TO.C,J10*%
X146430000Y-117670000D02*
X147760000Y-117670000D01*
X146430000Y-119000000D02*
X146430000Y-117670000D01*
X149030000Y-117670000D02*
X166870000Y-117670000D01*
X149030000Y-120330000D02*
X149030000Y-117670000D01*
X149030000Y-120330000D02*
X166870000Y-120330000D01*
X166870000Y-120330000D02*
X166870000Y-117670000D01*
%TO.C,R21*%
X70982500Y-91000000D02*
X71932500Y-91000000D01*
X76722500Y-91000000D02*
X75772500Y-91000000D01*
X71932500Y-90080000D02*
X75772500Y-90080000D01*
X75772500Y-91920000D01*
X71932500Y-91920000D01*
X71932500Y-90080000D01*
%TO.C,C5*%
X68302500Y-94851248D02*
X68302500Y-96273752D01*
X71022500Y-94851248D02*
X71022500Y-96273752D01*
%TO.C,D3*%
X176587500Y-61935000D02*
X180647500Y-61935000D01*
X180647500Y-59665000D02*
X176587500Y-59665000D01*
X180647500Y-61935000D02*
X180647500Y-59665000D01*
%TO.C,RV2*%
D10*
X99050000Y-107000000D02*
X99050000Y-119000000D01*
X102950000Y-107000000D02*
X99050000Y-107000000D01*
X102950000Y-107000000D02*
X102950000Y-119000000D01*
X102950000Y-119000000D02*
X99050000Y-119000000D01*
%TO.C,J12*%
D11*
X103792500Y-77390000D02*
X103792500Y-77390000D01*
X103792500Y-79390000D02*
X103792500Y-78610000D01*
X103792500Y-81390000D02*
X103792500Y-80610000D01*
X103792500Y-83610000D02*
X103792500Y-82610000D01*
X105282500Y-77390000D02*
X103792500Y-77390000D01*
X105282500Y-78390000D02*
X105282500Y-77390000D01*
X105282500Y-80390000D02*
X105282500Y-79610000D01*
X105282500Y-82390000D02*
X105282500Y-81610000D01*
X105282500Y-83610000D02*
X103792500Y-83610000D01*
X105282500Y-83610000D02*
X105282500Y-83610000D01*
X105282500Y-83610000D02*
X106227500Y-83610000D01*
%TO.C,J3*%
X119970000Y-52170000D02*
X121300000Y-52170000D01*
X119970000Y-53500000D02*
X119970000Y-52170000D01*
X122570000Y-52170000D02*
X140410000Y-52170000D01*
X122570000Y-54830000D02*
X122570000Y-52170000D01*
X122570000Y-54830000D02*
X140410000Y-54830000D01*
X140410000Y-54830000D02*
X140410000Y-52170000D01*
%TO.C,J1*%
X55000000Y-65400000D02*
X69500000Y-65400000D01*
X55000000Y-74600000D02*
X55000000Y-65400000D01*
X63600000Y-74600000D02*
X55000000Y-74600000D01*
X69500000Y-65400000D02*
X69500000Y-67400000D01*
X69500000Y-72600000D02*
X69500000Y-74600000D01*
X69500000Y-74600000D02*
X68200000Y-74600000D01*
X69800000Y-65100000D02*
X68500000Y-65100000D01*
X69800000Y-66800000D02*
X69800000Y-65100000D01*
%TO.C,J5*%
X190380000Y-85890000D02*
X189435000Y-85890000D01*
X190380000Y-85890000D02*
X190380000Y-85890000D01*
X190380000Y-85890000D02*
X191870000Y-85890000D01*
X190380000Y-87110000D02*
X190380000Y-87890000D01*
X190380000Y-89110000D02*
X190380000Y-89890000D01*
X190380000Y-91110000D02*
X190380000Y-92110000D01*
X190380000Y-92110000D02*
X191870000Y-92110000D01*
X191870000Y-85890000D02*
X191870000Y-86890000D01*
X191870000Y-88110000D02*
X191870000Y-88890000D01*
X191870000Y-90110000D02*
X191870000Y-90890000D01*
X191870000Y-92110000D02*
X191870000Y-92110000D01*
%TO.C,J2*%
X195880000Y-56520000D02*
X195880000Y-55950000D01*
X195880000Y-59060000D02*
X195880000Y-58040000D01*
X195880000Y-61600000D02*
X195880000Y-60580000D01*
X195880000Y-64140000D02*
X195880000Y-63120000D01*
X195880000Y-66680000D02*
X195880000Y-65660000D01*
X195880000Y-69220000D02*
X195880000Y-68200000D01*
X195880000Y-71760000D02*
X195880000Y-70740000D01*
X195880000Y-74300000D02*
X195880000Y-73280000D01*
X195880000Y-76840000D02*
X195880000Y-75820000D01*
X195880000Y-79380000D02*
X195880000Y-78360000D01*
X195880000Y-81920000D02*
X195880000Y-80900000D01*
X195880000Y-84460000D02*
X195880000Y-83440000D01*
X195880000Y-87000000D02*
X195880000Y-85980000D01*
X195880000Y-89540000D02*
X195880000Y-88520000D01*
X195880000Y-92080000D02*
X195880000Y-91060000D01*
X195880000Y-94620000D02*
X195880000Y-93600000D01*
X195880000Y-97160000D02*
X195880000Y-96140000D01*
X195880000Y-99700000D02*
X195880000Y-98680000D01*
X195880000Y-102240000D02*
X195880000Y-101220000D01*
X195880000Y-104780000D02*
X195880000Y-103760000D01*
X195880000Y-107320000D02*
X195880000Y-106300000D01*
X195880000Y-109860000D02*
X195880000Y-108840000D01*
X195880000Y-112400000D02*
X195880000Y-111380000D01*
X195880000Y-114940000D02*
X195880000Y-113920000D01*
X195880000Y-117480000D02*
X195880000Y-116460000D01*
X195880000Y-119000000D02*
X194520000Y-119000000D01*
X195880000Y-119570000D02*
X195880000Y-119000000D01*
X201080000Y-55950000D02*
X195880000Y-55950000D01*
X201080000Y-56520000D02*
X201080000Y-55950000D01*
X201080000Y-59060000D02*
X201080000Y-58040000D01*
X201080000Y-61600000D02*
X201080000Y-60580000D01*
X201080000Y-64140000D02*
X201080000Y-63120000D01*
X201080000Y-66680000D02*
X201080000Y-65660000D01*
X201080000Y-69220000D02*
X201080000Y-68200000D01*
X201080000Y-71760000D02*
X201080000Y-70740000D01*
X201080000Y-74300000D02*
X201080000Y-73280000D01*
X201080000Y-76840000D02*
X201080000Y-75820000D01*
X201080000Y-79380000D02*
X201080000Y-78360000D01*
X201080000Y-81920000D02*
X201080000Y-80900000D01*
X201080000Y-84460000D02*
X201080000Y-83440000D01*
X201080000Y-87000000D02*
X201080000Y-85980000D01*
X201080000Y-89540000D02*
X201080000Y-88520000D01*
X201080000Y-92080000D02*
X201080000Y-91060000D01*
X201080000Y-94620000D02*
X201080000Y-93600000D01*
X201080000Y-97160000D02*
X201080000Y-96140000D01*
X201080000Y-99700000D02*
X201080000Y-98680000D01*
X201080000Y-102240000D02*
X201080000Y-101220000D01*
X201080000Y-104780000D02*
X201080000Y-103760000D01*
X201080000Y-107320000D02*
X201080000Y-106300000D01*
X201080000Y-109860000D02*
X201080000Y-108840000D01*
X201080000Y-112400000D02*
X201080000Y-111380000D01*
X201080000Y-114940000D02*
X201080000Y-113920000D01*
X201080000Y-117480000D02*
X201080000Y-116460000D01*
X201080000Y-119570000D02*
X195880000Y-119570000D01*
X201080000Y-119570000D02*
X201080000Y-119000000D01*
%TO.C,R9*%
X134662500Y-102130000D02*
X134662500Y-103080000D01*
X134662500Y-107870000D02*
X134662500Y-106920000D01*
X133742500Y-103080000D02*
X135582500Y-103080000D01*
X135582500Y-106920000D01*
X133742500Y-106920000D01*
X133742500Y-103080000D01*
%TO.C,C17*%
X76373752Y-79140000D02*
X74951248Y-79140000D01*
X76373752Y-81860000D02*
X74951248Y-81860000D01*
%TO.C,R8*%
X129662500Y-102130000D02*
X129662500Y-103080000D01*
X129662500Y-107870000D02*
X129662500Y-106920000D01*
X128742500Y-103080000D02*
X130582500Y-103080000D01*
X130582500Y-106920000D01*
X128742500Y-106920000D01*
X128742500Y-103080000D01*
%TO.C,U6*%
X136567500Y-60520000D02*
X136567500Y-60790000D01*
X136567500Y-67420000D02*
X136567500Y-67150000D01*
X142987500Y-60520000D02*
X136567500Y-60520000D01*
X142987500Y-67420000D02*
X136567500Y-67420000D01*
X134837500Y-60830000D02*
X134497500Y-60360000D01*
X135177500Y-60360000D01*
X134837500Y-60830000D01*
G36*
X134837500Y-60830000D02*
G01*
X134497500Y-60360000D01*
X135177500Y-60360000D01*
X134837500Y-60830000D01*
G37*
%TO.C,U5*%
X146252500Y-83940000D02*
X148072500Y-83940000D01*
X146252500Y-83990000D02*
X146252500Y-83940000D01*
X146252500Y-85890000D02*
X146252500Y-85110000D01*
X146252500Y-87060000D02*
X146252500Y-87010000D01*
X148072500Y-83940000D02*
X148072500Y-83990000D01*
X148072500Y-87010000D02*
X148072500Y-87060000D01*
X148072500Y-87060000D02*
X146252500Y-87060000D01*
X148612500Y-87010000D02*
X148852500Y-87340000D01*
X148372500Y-87340000D01*
X148612500Y-87010000D01*
G36*
X148852500Y-87340000D02*
G01*
X148372500Y-87340000D01*
X148612500Y-87010000D01*
X148852500Y-87340000D01*
G37*
%TO.C,R4*%
X191500000Y-107320000D02*
X191500000Y-108270000D01*
X191500000Y-113060000D02*
X191500000Y-112110000D01*
X190580000Y-108270000D02*
X192420000Y-108270000D01*
X192420000Y-112110000D01*
X190580000Y-112110000D01*
X190580000Y-108270000D01*
%TO.C,R18*%
X60500000Y-102440000D02*
X60500000Y-103390000D01*
X60500000Y-108180000D02*
X60500000Y-107230000D01*
X59580000Y-103390000D02*
X61420000Y-103390000D01*
X61420000Y-107230000D01*
X59580000Y-107230000D01*
X59580000Y-103390000D01*
%TO.C,F1*%
D10*
X68162500Y-108400000D02*
X68162500Y-114600000D01*
X68162500Y-108400000D02*
X80162500Y-108400000D01*
X68162500Y-114600000D02*
X80162500Y-114600000D01*
X80162500Y-108400000D02*
X80162500Y-114600000D01*
%TO.C,JP2*%
D11*
X95312500Y-71750000D02*
X97312500Y-71750000D01*
X95312500Y-74550000D02*
X95312500Y-71750000D01*
X97312500Y-71750000D02*
X97312500Y-74550000D01*
X97312500Y-74550000D02*
X95312500Y-74550000D01*
%TO.C,U1*%
X118052500Y-63390000D02*
X119312500Y-63390000D01*
X118052500Y-67150000D02*
X118052500Y-63390000D01*
X124872500Y-63390000D02*
X123612500Y-63390000D01*
X124872500Y-67150000D02*
X124872500Y-63390000D01*
X118152500Y-68430000D02*
X117822500Y-68670000D01*
X117822500Y-68190000D01*
X118152500Y-68430000D01*
G36*
X118152500Y-68430000D02*
G01*
X117822500Y-68670000D01*
X117822500Y-68190000D01*
X118152500Y-68430000D01*
G37*
%TO.C,SW1*%
X57462500Y-55185000D02*
X58852500Y-55185000D01*
X58852500Y-54535000D02*
X58852500Y-55185000D01*
X58852500Y-54535000D02*
X63472500Y-54535000D01*
X58852500Y-58465000D02*
X58852500Y-57755000D01*
X58852500Y-58465000D02*
X63472500Y-58465000D01*
X63472500Y-54535000D02*
X63472500Y-55245000D01*
X63472500Y-58465000D02*
X63472500Y-57755000D01*
%TO.C,J6*%
X101292500Y-88390000D02*
X101292500Y-87390000D01*
X101292500Y-90390000D02*
X101292500Y-89610000D01*
X101292500Y-91610000D02*
X100347500Y-91610000D01*
X101292500Y-91610000D02*
X101292500Y-91610000D01*
X102782500Y-87390000D02*
X101292500Y-87390000D01*
X102782500Y-87390000D02*
X102782500Y-87390000D01*
X102782500Y-89390000D02*
X102782500Y-88610000D01*
X102782500Y-91390000D02*
X102782500Y-90610000D01*
X102782500Y-91610000D02*
X101292500Y-91610000D01*
X102782500Y-91610000D02*
X102782500Y-90610000D01*
%TO.C,Y1*%
X66052500Y-82500000D02*
X66052500Y-79500000D01*
X69272500Y-79500000D02*
X69272500Y-82500000D01*
X66052500Y-79500000D02*
G75*
G02*
X66567501Y-78320001I1604620J2060D01*
G01*
X66567500Y-83680000D02*
G75*
G02*
X66052499Y-82500000I1089620J1177940D01*
G01*
X68757500Y-78320000D02*
G75*
G02*
X69272501Y-79500000I-1089620J-1177940D01*
G01*
X69272500Y-82500000D02*
G75*
G02*
X68757499Y-83679999I-1604620J-2060D01*
G01*
%TO.C,C6*%
X73802500Y-96273752D02*
X73802500Y-94851248D01*
X76522500Y-96273752D02*
X76522500Y-94851248D01*
%TO.C,D1*%
X79402500Y-66300000D02*
X81892500Y-66300000D01*
X86312500Y-67770000D02*
X86312500Y-64830000D01*
X86432500Y-67770000D02*
X86432500Y-64830000D01*
X86552500Y-67770000D02*
X86552500Y-64830000D01*
X89822500Y-66300000D02*
X87332500Y-66300000D01*
X81892500Y-64830000D02*
X87332500Y-64830000D01*
X87332500Y-67770000D01*
X81892500Y-67770000D01*
X81892500Y-64830000D01*
%TO.C,U3*%
X89477500Y-79815000D02*
X89952500Y-79815000D01*
X89477500Y-80290000D02*
X89477500Y-79815000D01*
X89477500Y-85035000D02*
X89477500Y-84560000D01*
X89952500Y-85035000D02*
X89477500Y-85035000D01*
X94222500Y-79815000D02*
X94697500Y-79815000D01*
X94697500Y-79815000D02*
X94697500Y-80290000D01*
X94697500Y-84560000D02*
X94697500Y-85035000D01*
X94697500Y-85035000D02*
X94222500Y-85035000D01*
X88977500Y-80675000D02*
X88647500Y-80915000D01*
X88647500Y-80435000D01*
X88977500Y-80675000D01*
G36*
X88977500Y-80675000D02*
G01*
X88647500Y-80915000D01*
X88647500Y-80435000D01*
X88977500Y-80675000D01*
G37*
%TO.C,R19*%
X90162500Y-93130000D02*
X90162500Y-94080000D01*
X90162500Y-98870000D02*
X90162500Y-97920000D01*
X89242500Y-94080000D02*
X91082500Y-94080000D01*
X91082500Y-97920000D01*
X89242500Y-97920000D01*
X89242500Y-94080000D01*
%TO.C,J11*%
X144970000Y-51670000D02*
X146300000Y-51670000D01*
X144970000Y-53000000D02*
X144970000Y-51670000D01*
X147570000Y-51670000D02*
X165410000Y-51670000D01*
X147570000Y-54330000D02*
X147570000Y-51670000D01*
X147570000Y-54330000D02*
X165410000Y-54330000D01*
X165410000Y-54330000D02*
X165410000Y-51670000D01*
%TO.C,C9*%
X79302500Y-73788748D02*
X79302500Y-75211252D01*
X82022500Y-73788748D02*
X82022500Y-75211252D01*
%TO.C,JP1*%
X121112500Y-111500000D02*
X123912500Y-111500000D01*
X121112500Y-113500000D02*
X121112500Y-111500000D01*
X123912500Y-111500000D02*
X123912500Y-113500000D01*
X123912500Y-113500000D02*
X121112500Y-113500000D01*
%TO.C,U4*%
X164442500Y-63890000D02*
X167662500Y-63890000D01*
X164442500Y-64115000D02*
X164442500Y-63890000D01*
X164442500Y-67110000D02*
X164442500Y-66885000D01*
X167662500Y-63890000D02*
X167662500Y-64115000D01*
X167662500Y-66885000D02*
X167662500Y-67110000D01*
X167662500Y-67110000D02*
X164442500Y-67110000D01*
X163912500Y-64500000D02*
X163582500Y-64740000D01*
X163582500Y-64260000D01*
X163912500Y-64500000D01*
G36*
X163912500Y-64500000D02*
G01*
X163582500Y-64740000D01*
X163582500Y-64260000D01*
X163912500Y-64500000D01*
G37*
%TO.C,R1*%
X62162500Y-77940000D02*
X62162500Y-78890000D01*
X62162500Y-83680000D02*
X62162500Y-82730000D01*
X61242500Y-78890000D02*
X63082500Y-78890000D01*
X63082500Y-82730000D01*
X61242500Y-82730000D01*
X61242500Y-78890000D01*
%TO.C,C8*%
X182873752Y-77140000D02*
X181451248Y-77140000D01*
X182873752Y-79860000D02*
X181451248Y-79860000D01*
%TO.C,R16*%
X130982500Y-93500000D02*
X131932500Y-93500000D01*
X136722500Y-93500000D02*
X135772500Y-93500000D01*
X131932500Y-92580000D02*
X135772500Y-92580000D01*
X135772500Y-94420000D01*
X131932500Y-94420000D01*
X131932500Y-92580000D01*
%TO.C,C13*%
X74211252Y-115640000D02*
X72788748Y-115640000D01*
X74211252Y-118360000D02*
X72788748Y-118360000D01*
%TO.C,D4*%
X190000000Y-60940000D02*
X190000000Y-63430000D01*
X190000000Y-71360000D02*
X190000000Y-68870000D01*
X191470000Y-64210000D02*
X188530000Y-64210000D01*
X191470000Y-64330000D02*
X188530000Y-64330000D01*
X191470000Y-64450000D02*
X188530000Y-64450000D01*
X188530000Y-63430000D02*
X191470000Y-63430000D01*
X191470000Y-68870000D01*
X188530000Y-68870000D01*
X188530000Y-63430000D01*
%TO.C,D6*%
X100027500Y-99527500D02*
X100027500Y-103587500D01*
X102297500Y-99527500D02*
X100027500Y-99527500D01*
X102297500Y-103587500D02*
X102297500Y-99527500D01*
%TO.C,R13*%
X131792500Y-84000000D02*
X132742500Y-84000000D01*
X137532500Y-84000000D02*
X136582500Y-84000000D01*
X132742500Y-83080000D02*
X136582500Y-83080000D01*
X136582500Y-84920000D01*
X132742500Y-84920000D01*
X132742500Y-83080000D01*
%TO.C,C12*%
X91436252Y-71140000D02*
X90013748Y-71140000D01*
X91436252Y-73860000D02*
X90013748Y-73860000D01*
%TO.C,R12*%
X131792500Y-78000000D02*
X132742500Y-78000000D01*
X137532500Y-78000000D02*
X136582500Y-78000000D01*
X132742500Y-77080000D02*
X136582500Y-77080000D01*
X136582500Y-78920000D01*
X132742500Y-78920000D01*
X132742500Y-77080000D01*
%TO.C,R23*%
X113662500Y-77940000D02*
X113662500Y-78890000D01*
X113662500Y-83680000D02*
X113662500Y-82730000D01*
X112742500Y-78890000D02*
X114582500Y-78890000D01*
X114582500Y-82730000D01*
X112742500Y-82730000D01*
X112742500Y-78890000D01*
%TO.C,J4*%
X123930000Y-117670000D02*
X123930000Y-120330000D01*
X141770000Y-117670000D02*
X123930000Y-117670000D01*
X141770000Y-117670000D02*
X141770000Y-120330000D01*
X141770000Y-120330000D02*
X123930000Y-120330000D01*
X144370000Y-119000000D02*
X144370000Y-120330000D01*
X144370000Y-120330000D02*
X143040000Y-120330000D01*
%TO.C,Y2*%
X84919500Y-82928000D02*
G75*
G02*
X84919500Y-80072000I742500J1428000D01*
G01*
X86405500Y-80072000D02*
G75*
G02*
X86405500Y-82928000I-742500J-1428000D01*
G01*
%TO.C,R5*%
X191500000Y-95440000D02*
X191500000Y-96390000D01*
X191500000Y-101180000D02*
X191500000Y-100230000D01*
X190580000Y-96390000D02*
X192420000Y-96390000D01*
X192420000Y-100230000D01*
X190580000Y-100230000D01*
X190580000Y-96390000D01*
%TO.C,D5*%
X74487500Y-87135000D02*
X78547500Y-87135000D01*
X78547500Y-84865000D02*
X74487500Y-84865000D01*
X78547500Y-87135000D02*
X78547500Y-84865000D01*
%TO.C,R7*%
X81162500Y-79630000D02*
X81162500Y-80580000D01*
X81162500Y-85370000D02*
X81162500Y-84420000D01*
X80242500Y-80580000D02*
X82082500Y-80580000D01*
X82082500Y-84420000D01*
X80242500Y-84420000D01*
X80242500Y-80580000D01*
%TO.C,R11*%
X131792500Y-73000000D02*
X132742500Y-73000000D01*
X137532500Y-73000000D02*
X136582500Y-73000000D01*
X132742500Y-72080000D02*
X136582500Y-72080000D01*
X136582500Y-73920000D01*
X132742500Y-73920000D01*
X132742500Y-72080000D01*
%TO.C,R22*%
X81482500Y-104000000D02*
X82432500Y-104000000D01*
X87222500Y-104000000D02*
X86272500Y-104000000D01*
X82432500Y-103080000D02*
X86272500Y-103080000D01*
X86272500Y-104920000D01*
X82432500Y-104920000D01*
X82432500Y-103080000D01*
%TO.C,J8*%
X168630000Y-51670000D02*
X169960000Y-51670000D01*
X168630000Y-53000000D02*
X168630000Y-51670000D01*
X171230000Y-51670000D02*
X189070000Y-51670000D01*
X171230000Y-54330000D02*
X171230000Y-51670000D01*
X171230000Y-54330000D02*
X189070000Y-54330000D01*
X189070000Y-54330000D02*
X189070000Y-51670000D01*
%TO.C,C11*%
X84302500Y-77211252D02*
X84302500Y-75788748D01*
X87022500Y-77211252D02*
X87022500Y-75788748D01*
%TO.C,C1*%
X112240000Y-90140000D02*
X116190000Y-90140000D01*
X112240000Y-99595563D02*
X112240000Y-90140000D01*
X113304437Y-100660000D02*
X112240000Y-99595563D01*
X113304437Y-100660000D02*
X116190000Y-100660000D01*
X121695563Y-100660000D02*
X118810000Y-100660000D01*
X121695563Y-100660000D02*
X122760000Y-99595563D01*
X122760000Y-90140000D02*
X118810000Y-90140000D01*
X122760000Y-99595563D02*
X122760000Y-90140000D01*
%TO.C,C4*%
X68327500Y-103691248D02*
X68327500Y-105113752D01*
X71047500Y-103691248D02*
X71047500Y-105113752D01*
%TO.C,C3*%
X98702500Y-62104437D02*
X98702500Y-64990000D01*
X98702500Y-62104437D02*
X99766937Y-61040000D01*
X98702500Y-70495563D02*
X98702500Y-67610000D01*
X98702500Y-70495563D02*
X99766937Y-71560000D01*
X99766937Y-61040000D02*
X109222500Y-61040000D01*
X99766937Y-71560000D02*
X109222500Y-71560000D01*
X109222500Y-61040000D02*
X109222500Y-64990000D01*
X109222500Y-71560000D02*
X109222500Y-67610000D01*
%TO.C,D7*%
X120692500Y-82200000D02*
X123632500Y-82200000D01*
X120692500Y-82320000D02*
X123632500Y-82320000D01*
X120692500Y-82440000D02*
X123632500Y-82440000D01*
X122162500Y-75290000D02*
X122162500Y-77780000D01*
X122162500Y-85710000D02*
X122162500Y-83220000D01*
X120692500Y-77780000D02*
X123632500Y-77780000D01*
X123632500Y-83220000D01*
X120692500Y-83220000D01*
X120692500Y-77780000D01*
%TO.C,R6*%
X113602500Y-106000000D02*
X114552500Y-106000000D01*
X119342500Y-106000000D02*
X118392500Y-106000000D01*
X114552500Y-105080000D02*
X118392500Y-105080000D01*
X118392500Y-106920000D01*
X114552500Y-106920000D01*
X114552500Y-105080000D01*
%TO.C,R10*%
X166092500Y-60800000D02*
X167042500Y-60800000D01*
X171832500Y-60800000D02*
X170882500Y-60800000D01*
X167042500Y-59880000D02*
X170882500Y-59880000D01*
X170882500Y-61720000D01*
X167042500Y-61720000D01*
X167042500Y-59880000D01*
%TO.C,J7*%
X54900000Y-111690000D02*
X55160000Y-111690000D01*
X55160000Y-119310000D02*
X54900000Y-119310000D01*
X57440000Y-111690000D02*
X59210000Y-111690000D01*
X59210000Y-111690000D02*
X59210000Y-112070000D01*
X59210000Y-119310000D02*
X57440000Y-119310000D01*
X59210000Y-119310000D02*
X59210000Y-118930000D01*
%TO.C,R2*%
X167782500Y-69300000D02*
X168732500Y-69300000D01*
X173522500Y-69300000D02*
X172572500Y-69300000D01*
X168732500Y-68380000D02*
X172572500Y-68380000D01*
X172572500Y-70220000D01*
X168732500Y-70220000D01*
X168732500Y-68380000D01*
%TD*%
M02*
