%TF.GenerationSoftware,KiCad,Pcbnew,10.99.0-1021-gc24091a86e*%
%TF.CreationDate,2026-07-26T01:42:24+00:00*%
%TF.ProjectId,Arduino Mega,41726475-696e-46f2-904d-6567612e6b69,rev?*%
%TF.SameCoordinates,Original*%
%TF.FileFunction,Soldermask,Bot*%
%TF.FilePolarity,Negative*%
%FSLAX46Y46*%
G04 Gerber Fmt 4.6, Leading zero omitted, Abs format (unit mm)*
G04 Created by KiCad (PCBNEW 10.99.0-1021-gc24091a86e) date 2026-07-26 01:42:24*
%MOMM*%
%LPD*%
G01*
G04 APERTURE LIST*
G04 Aperture macros list*
%AMRoundRect*
0 Rectangle with rounded corners*
0 $1 Rounding radius*
0 $2 $3 $4 $5 $6 $7 $8 $9 X,Y pos of 4 corners*
0 Add a 4 corners polygon primitive as box body*
4,1,4,$2,$3,$4,$5,$6,$7,$8,$9,$2,$3,0*
0 Add four circle primitives for the rounded corners*
1,1,$1+$1,$2,$3*
1,1,$1+$1,$4,$5*
1,1,$1+$1,$6,$7*
1,1,$1+$1,$8,$9*
0 Add four rect primitives between the rounded corners*
20,1,$1+$1,$2,$3,$4,$5,0*
20,1,$1+$1,$4,$5,$6,$7,0*
20,1,$1+$1,$6,$7,$8,$9,0*
20,1,$1+$1,$8,$9,$2,$3,0*%
G04 Aperture macros list end*
%ADD10C,1.400000*%
%ADD11C,1.800000*%
%ADD12R,1.700000X1.700000*%
%ADD13C,1.700000*%
%ADD14R,2.000000X4.600000*%
%ADD15O,2.000000X4.200000*%
%ADD16O,4.200000X2.000000*%
%ADD17RoundRect,0.250000X0.650000X0.650000X-0.650000X0.650000X-0.650000X-0.650000X0.650000X-0.650000X0*%
%ADD18RoundRect,0.250000X-0.650000X0.650000X-0.650000X-0.650000X0.650000X-0.650000X0.650000X0.650000X0*%
%ADD19C,1.000000*%
%ADD20RoundRect,0.250000X0.650000X-0.650000X0.650000X0.650000X-0.650000X0.650000X-0.650000X-0.650000X0*%
G04 APERTURE END LIST*
D10*
%TO.C,R20*%
X86162500Y-99810000D03*
X86162500Y-92190000D03*
%TD*%
%TO.C,R3*%
X185462500Y-61490000D03*
X185462500Y-69110000D03*
%TD*%
%TO.C,R17*%
X64500000Y-108810000D03*
X64500000Y-101190000D03*
%TD*%
%TO.C,R14*%
X169162500Y-77500000D03*
X176782500Y-77500000D03*
%TD*%
D11*
%TO.C,RV1*%
X93700000Y-109250000D03*
X92300000Y-116750000D03*
%TD*%
D12*
%TO.C,J9*%
X188160000Y-118500000D03*
D13*
X185620000Y-118500000D03*
X183080000Y-118500000D03*
X180540000Y-118500000D03*
X178000000Y-118500000D03*
X175460000Y-118500000D03*
X172920000Y-118500000D03*
X170380000Y-118500000D03*
%TD*%
D10*
%TO.C,R15*%
X130352500Y-89500000D03*
X137972500Y-89500000D03*
%TD*%
D12*
%TO.C,J10*%
X147760000Y-119000000D03*
D13*
X150300000Y-119000000D03*
X152840000Y-119000000D03*
X155380000Y-119000000D03*
X157920000Y-119000000D03*
X160460000Y-119000000D03*
X163000000Y-119000000D03*
X165540000Y-119000000D03*
%TD*%
D10*
%TO.C,R21*%
X77662500Y-91000000D03*
X70042500Y-91000000D03*
%TD*%
D11*
%TO.C,RV2*%
X101700000Y-109250000D03*
X100300000Y-116750000D03*
%TD*%
D12*
%TO.C,J3*%
X121300000Y-53500000D03*
D13*
X123840000Y-53500000D03*
X126380000Y-53500000D03*
X128920000Y-53500000D03*
X131460000Y-53500000D03*
X134000000Y-53500000D03*
X136540000Y-53500000D03*
X139080000Y-53500000D03*
%TD*%
D14*
%TO.C,J1*%
X68800000Y-70000000D03*
D15*
X62500000Y-70000000D03*
D16*
X65900000Y-74800000D03*
%TD*%
D10*
%TO.C,R9*%
X134662500Y-108810000D03*
X134662500Y-101190000D03*
%TD*%
%TO.C,R8*%
X129662500Y-101190000D03*
X129662500Y-108810000D03*
%TD*%
%TO.C,R4*%
X191500000Y-106380000D03*
X191500000Y-114000000D03*
%TD*%
%TO.C,R18*%
X60500000Y-109120000D03*
X60500000Y-101500000D03*
%TD*%
D11*
%TO.C,F1*%
X70412500Y-110000000D03*
X77912500Y-113000000D03*
%TD*%
D13*
%TO.C,Y1*%
X67662500Y-83500000D03*
X67662500Y-81000000D03*
X67662500Y-78500000D03*
%TD*%
D17*
%TO.C,D1*%
X90962500Y-66300000D03*
D11*
X78262500Y-66300000D03*
%TD*%
D10*
%TO.C,R19*%
X90162500Y-99810000D03*
X90162500Y-92190000D03*
%TD*%
D12*
%TO.C,J11*%
X146300000Y-53000000D03*
D13*
X148840000Y-53000000D03*
X151380000Y-53000000D03*
X153920000Y-53000000D03*
X156460000Y-53000000D03*
X159000000Y-53000000D03*
X161540000Y-53000000D03*
X164080000Y-53000000D03*
%TD*%
D10*
%TO.C,R1*%
X62162500Y-84620000D03*
X62162500Y-77000000D03*
%TD*%
%TO.C,R16*%
X130042500Y-93500000D03*
X137662500Y-93500000D03*
%TD*%
D18*
%TO.C,D4*%
X190000000Y-59800000D03*
D11*
X190000000Y-72500000D03*
%TD*%
D10*
%TO.C,R13*%
X130852500Y-84000000D03*
X138472500Y-84000000D03*
%TD*%
%TO.C,R12*%
X130852500Y-78000000D03*
X138472500Y-78000000D03*
%TD*%
%TO.C,R23*%
X113662500Y-84620000D03*
X113662500Y-77000000D03*
%TD*%
D12*
%TO.C,J4*%
X143040000Y-119000000D03*
D13*
X140500000Y-119000000D03*
X137960000Y-119000000D03*
X135420000Y-119000000D03*
X132880000Y-119000000D03*
X130340000Y-119000000D03*
X127800000Y-119000000D03*
X125260000Y-119000000D03*
%TD*%
D19*
%TO.C,Y2*%
X85662500Y-80230000D03*
X85662500Y-82770000D03*
%TD*%
D10*
%TO.C,R5*%
X191500000Y-94500000D03*
X191500000Y-102120000D03*
%TD*%
%TO.C,R7*%
X81162500Y-86310000D03*
X81162500Y-78690000D03*
%TD*%
%TO.C,R11*%
X130852500Y-73000000D03*
X138472500Y-73000000D03*
%TD*%
%TO.C,R22*%
X88162500Y-104000000D03*
X80542500Y-104000000D03*
%TD*%
D12*
%TO.C,J8*%
X169960000Y-53000000D03*
D13*
X172500000Y-53000000D03*
X175040000Y-53000000D03*
X177580000Y-53000000D03*
X180120000Y-53000000D03*
X182660000Y-53000000D03*
X185200000Y-53000000D03*
X187740000Y-53000000D03*
%TD*%
D20*
%TO.C,D7*%
X122162500Y-86850000D03*
D11*
X122162500Y-74150000D03*
%TD*%
D10*
%TO.C,R6*%
X120282500Y-106000000D03*
X112662500Y-106000000D03*
%TD*%
%TO.C,R10*%
X165152500Y-60800000D03*
X172772500Y-60800000D03*
%TD*%
%TO.C,R2*%
X166842500Y-69300000D03*
X174462500Y-69300000D03*
%TD*%
M02*
